<?xml version="1.0" encoding="UTF-8" standalone="no"?>
<!-- Created with Inkscape (http://www.inkscape.org/) -->

<svg
   version="1.1"
   id="svg2"
   width="100%"
   height="auto"
   viewBox="0 0 3125.1641 1075.75"
   sodipodi:docname="textos_clean.png"
   inkscape:export-filename="textos.svg"
   inkscape:export-xdpi="96"
   inkscape:export-ydpi="96"
   xmlns:inkscape="http://www.inkscape.org/namespaces/inkscape"
   xmlns:sodipodi="http://sodipodi.sourceforge.net/DTD/sodipodi-0.dtd"
   xmlns="http://www.w3.org/2000/svg"
   xmlns:svg="http://www.w3.org/2000/svg">
  <defs
     id="defs6" />
  <sodipodi:namedview
     id="namedview4"
     pagecolor="#ffffff"
     bordercolor="#000000"
     borderopacity="0.25"
     inkscape:showpageshadow="2"
     inkscape:pageopacity="0.0"
     inkscape:pagecheckerboard="0"
     inkscape:deskcolor="#d1d1d1"
     showgrid="false" />
  <g
     inkscape:groupmode="layer"
     inkscape:label="Image"
     id="g8"
     transform="translate(-178.13635,-94.853571)">
    <path
       style="fill:var(--text);stroke-width:1.33333"
       d="m 3056.2157,1160.0304 c -57.5821,-19.1111 -129.3729,-112.0595 -62.3065,-153.2262 53.3083,27.0163 91.1413,128.9368 154.8904,38.6138 37.1789,-51.09321 135.4528,-129.26256 52.9745,-183.69934 -61.2413,-41.12791 -23.02,-86.32962 -84.8644,-98.75486 -33.3094,-42.39328 -90.126,-82.71847 -92.4259,-135.48684 -43.7967,-64.111 -0.3819,-154.39681 69.0807,-184.60248 59.929,-28.76432 198.9115,-44.33111 193.5523,52.73424 -6.1149,82.30179 -94.303,56.51384 -53.5606,0.10859 -39.7351,-51.07422 -133.9425,-20.55814 -161.9045,34.42705 -36.0754,49.16148 12.9992,103.94564 37.9003,146.2084 46.5756,42.0847 79.2281,105.55316 131.8532,135.5468 50.1944,51.80824 79.8114,131.36373 26.9745,189.37644 -36.7952,27.2144 -38.462,94.4447 -86.9134,122.3878 -33.6241,35.4567 -79.0796,38.667 -125.2506,36.3666 z m 13.3334,-467.82264 c -1.6562,-5.25643 -4.7842,5.07647 0,0 z M 521.19145,1154.3536 c -71.79126,-1.9222 -50.9583,-82.779 -62.97569,-130.9082 -7.33594,-46.07015 2.0579,-98.54258 -3.19975,-152.81378 16.50226,-46.38646 -1.36586,-112.24948 24.20314,-150.74706 -21.60017,-57.9863 29.98249,-159.61137 -30.15472,-187.9622 -72.53715,-9.20807 -143.5523,-14.17579 -222.41238,-25.16883 -75.85432,-6.71411 -26.0633,-103.19555 32.73963,-55.99108 82.09029,1.65742 265.9065,72.30526 218.86696,-70.81967 32.64696,-56.4395 -51.00615,-165.20481 25.0321,-189.02098 42.44546,36.78332 29.19057,124.68709 32.20075,181.08525 -38.26134,121.90728 96.9216,89.69548 172.62332,101.51778 66.48837,-3.0094 135.20115,-11.98535 196.01161,7.94301 101.10858,69.26919 -46.47591,96.97152 -103.96148,62.82232 -58.81767,-1.50397 -133.8069,7.43037 -178.13947,-0.73436 -89.31805,-30.80524 -100.32661,62.22229 -95.95352,118.78327 5.99367,82.0513 -11.67764,170.76566 4.03692,248.70513 -17.67136,52.14367 13.0739,113.4949 20.37674,169.6236 6.19494,24.1366 7.18636,80.0622 -29.29416,73.6858 z m 32.24727,-609.42554 c -30.86885,-4.48775 -3.26389,0.33062 0,0 z M 2341.6313,1127.6656 c -91.1444,-3.8442 -176.1536,-34.0548 -220.0836,-119.4578 -32.0486,-48.88573 -61.8394,-109.74967 -54.0106,-170.00004 -12.9146,-86.57349 20.0115,-174.28103 46.6773,-252.8616 32.3973,-66.48414 76.5336,-146.63236 148.9887,-179.46946 83.9259,-16.60744 34.5848,76.24796 -23.246,59.85136 -41.1881,58.49972 -87.1309,106.19975 -103.7998,176.3839 -18.4648,69.5861 -21.4322,140.92003 -21.7931,211.22279 15.4859,51.75623 37.2516,102.37201 73.8091,143.61821 30.4431,45.64264 105.619,76.60754 158.4566,65.58114 30.0894,-16.481 91.635,-76.35337 102.3962,3.8465 -2.172,48.2997 -63.3855,68.5628 -107.3948,61.285 z m -63.6765,-714.9688 c -9.325,-14.46979 -14.9908,13.98129 0,0 z m -1333.72431,676.002 c -55.12014,-22.9963 -160.47636,15.1987 -209.93928,-51.2956 -46.7345,-50.34256 -86.51153,-116.10824 -60.17185,-187.17599 15.96509,-39.01889 18.63279,-92.35488 49.83749,-125.75755 26.18085,-59.8869 87.23251,-90.97023 123.56254,-61.5952 69.96052,-24.97978 141.58323,2.21342 210.02971,20 49.6824,10.92513 169.0119,-28.79537 144.0108,65.3292 -70.7169,42.31211 -164.0715,11.05644 -234.10441,-8.6359 -52.51419,-10.64012 -118.26801,-45.01774 -166.31221,-6.1252 -48.54677,27.46055 -69.43755,82.11339 -75.41377,135.8981 -3.61387,73.20656 57.47007,148.19324 131.12878,140.87574 75.82921,-13.91201 153.32051,5.9648 228.58531,1.3666 104.7525,50.3823 -53.2018,96.7051 -113.78377,72.0856 l -18.42934,3.9381 z m 1765.98521,-10.488 c -91.2957,-14.0012 -26.2073,-130.92477 41.8595,-77.1819 63.1442,-50.12819 81.7003,-135.77081 91.4775,-209.49154 7.5894,-54.14096 -1.0306,-70.59521 -16.9676,-131.9962 -21.4702,-69.3322 -41.3288,-145.2981 -94.8831,-195.7143 -45.9234,-53.0416 65.4442,-64.1666 74.9765,-5.49072 17.8477,51.41533 67.3555,106.8355 68.0426,172.27547 38.4171,70.50573 28.085,154.74541 20.3296,231.73115 5.9627,51.97886 -48.9534,75.6444 -35.5797,126.0845 -22.4886,58.39044 -86.9354,102.07314 -149.2553,89.78354 z M 1202.601,1063.1113 c -81.4273,-47.5884 57.7006,-106.25171 83.7139,-152.93824 86.0768,-33.7232 72.2137,-96.63839 30.6181,-151.46702 -44.5447,-45.13623 8.5787,-143.20766 49.5137,-69.64188 4.6187,105.15315 95.8214,91.43681 136.9469,10.7032 60.3715,-29.56672 108.7045,63.33775 43.3944,87.7355 -108.286,19.18158 -98.8422,122.66945 -18.9306,166.4884 73.0278,5.9557 39.9424,133.13434 -17.3849,103.25574 -56.7634,-42.4508 -75.3988,-105.50313 -122.2566,-148.22144 -49.3757,49.17524 -135.1602,88.87407 -167.1932,155.69054 l -7.7549,0.7696 -10.6666,-2.3744 z m 589.9902,-11.6391 c -102.4804,-1.7957 -82.156,-178.4676 -83.9772,-154.93104 -5.6267,-63.75349 -17.9098,-79.26874 -0.7075,-143.06014 -38.0039,-51.90855 41.9546,-189.98519 -39.6907,-175.93986 -82.5793,3.46008 -183.9732,26.98458 -257.2142,-11.1668 -27.3658,-52.14171 47.1337,-69.0639 78.5475,-41.6526 69.2613,-7.18632 173.7101,5.69604 217.2909,-51.92617 18.9737,-74.4643 3.5976,-152.23212 33.2275,-227.62861 10.4122,-27.22157 -4.5891,-113.26327 34.0102,-135.28842 68.9102,-25.047552 50.4634,50.21098 13.7602,78.99385 -15.8701,84.36651 -18.0024,170.43875 -27.8386,255.85323 4.8776,56.03234 112.8457,4.53449 157.6347,14.05476 50.5805,15.95882 166.5985,-6.37667 162.5473,68.81566 -6.0563,31.95063 -48.6177,122.47087 -93.2976,75.782 -12.1991,-101.24574 -150.2855,-32.76145 -218.9472,-42.87709 -6.6945,69.27729 -5.854,148.27719 3.2374,223.51553 -10.9799,56.5896 13.5164,115.66511 23.9535,164.72406 36.8003,28.08373 42.1641,69.54964 -2.5362,102.73164 z M 1032.8824,930.87446 c -78.41791,-24.52073 -163.94842,-16.02794 -238.96353,-43.0333 -22.78368,-101.80569 146.16486,-39.80818 205.63023,-34.9667 18.3611,20.45736 115.0799,18.00688 78.2575,69 -10.8248,11.54409 -30.3414,17.27389 -44.9242,9 z m 1407.2713,-10.0119 c -79.0866,-10.30047 -131.9397,-86.21452 -111.2117,-165.8514 9.2954,-56.61042 24.4323,-108.53086 63.5948,-151.613 35.1559,-41.4845 146.6079,-85.54169 170.8469,-21.5481 38.4343,56.30071 37.4485,137.94549 15.8007,200.6442 -8.85,53.87352 -38.9577,108.81474 -98.302,131.695 -12.215,5.33843 -27.1494,15.03311 -40.7287,6.6733 z m 7.1515,-69.4772 c 59.1669,-48.8762 82.0074,-126.29418 79.7781,-203.00244 1.4028,-77.15897 -110.1501,-35.17862 -118.2009,1.61774 -27.2274,60.71135 -65.1735,199.64935 38.4228,201.3847 z m -86.4228,-187.1776 c -1.6128,-4.87488 -3.2882,4.74991 0,0 z"
       id="path170" />
  </g>
</svg>
