<?xml version="1.0" encoding="UTF-8" standalone="no"?>
<!-- Created with Inkscape (http://www.inkscape.org/) -->

<svg
   version="1.1"
   id="svg48"
   width="3110.301"
   height="1055.3989"
   viewBox="0 0 3110.3011 1055.399"
   sodipodi:docname="textos_clean.svg"
   inkscape:version="1.2.2 (b0a8486541, 2022-12-01)"
   xmlns:inkscape="http://www.inkscape.org/namespaces/inkscape"
   xmlns:sodipodi="http://sodipodi.sourceforge.net/DTD/sodipodi-0.dtd"
   xmlns="http://www.w3.org/2000/svg"
   xmlns:svg="http://www.w3.org/2000/svg">
  <defs
     id="defs52" />
  <sodipodi:namedview
     id="namedview50"
     pagecolor="#ffffff"
     bordercolor="#000000"
     borderopacity="0.25"
     inkscape:showpageshadow="2"
     inkscape:pageopacity="0.0"
     inkscape:pagecheckerboard="0"
     inkscape:deskcolor="#d1d1d1"
     showgrid="false"
     inkscape:zoom="0.25415614"
     inkscape:cx="2592.8943"
     inkscape:cy="651.17452"
     inkscape:window-width="1920"
     inkscape:window-height="999"
     inkscape:window-x="0"
     inkscape:window-y="0"
     inkscape:window-maximized="1"
     inkscape:current-layer="g54" />
  <g
     inkscape:groupmode="layer"
     inkscape:label="Image"
     id="g54"
     transform="translate(-243.63426,-58.732468)">
    <path
       style="fill:#000000;stroke-width:1.33333"
       d="m 3109.2239,1112.5849 c -1.5745,-0.9031 -6.0745,-3.3368 -10,-5.4083 -3.9253,-2.0716 -8.337,-4.8816 -9.8037,-6.2446 -1.4667,-1.3629 -4.2071,-3.0615 -6.0897,-3.7746 -10.3002,-3.9013 -27.9103,-19.8859 -27.9103,-25.334 0,-0.6449 -5.7435,-6.5676 -12.7633,-13.1616 -11.9815,-11.2546 -12.7284,-12.2667 -12.1926,-16.5206 0.3139,-2.4924 -0.1712,-6.0316 -1.078,-7.8649 -7.2796,-14.7174 -7.7353,-16.7329 -6.7981,-30.0653 0.7413,-10.54548 1.494,-13.71707 4.2009,-17.7006 1.8138,-2.66922 3.3006,-5.76383 3.3042,-6.87692 0,-1.11311 1.9534,-4.14936 4.3333,-6.74724 2.3797,-2.59788 5.3608,-6.19788 6.6243,-8 2.1725,-3.09866 2.3997,-3.14731 4.1816,-0.89592 1.0364,1.30937 3.0025,2.6138 4.3693,2.89873 1.3668,0.28493 6.4731,1.76859 11.3473,3.29701 4.8742,1.52843 9.8466,2.40124 11.0496,1.93956 2.2078,-0.84717 7.4215,2.77491 7.4215,5.15584 0,3.3571 5.0525,11.6676 10.7377,17.66152 4.269,4.50082 6.5528,8.18272 7.0298,11.33332 1.9488,12.8725 3.3601,16.3561 8.9228,22.0241 3.1185,3.1775 7.2329,6.1695 9.1432,6.6489 1.9102,0.4795 3.8232,1.4382 4.2512,2.1306 0.4278,0.6924 2.0449,1.5029 3.5934,1.8011 1.5486,0.2982 4.015,1.1841 5.4811,1.9687 4.0157,2.1493 8.9579,1.7264 14.4925,-1.2401 3.4658,-1.8575 7.5228,-2.6666 13.3704,-2.6666 6.1632,0 8.5952,-0.5221 9.1484,-1.9638 0.4146,-1.08 2.7958,-2.3468 5.2916,-2.815 2.4958,-0.4682 4.5379,-1.2926 4.5379,-1.8319 0,-1.5039 22.5155,-23.1983 29.7099,-28.6266 10.3353,-7.79797 27.6234,-25.71124 27.6234,-28.62225 0,-1.45736 0.5239,-2.97355 1.1643,-3.36929 1.2785,-0.79018 8.1691,-14.38462 8.1691,-16.11686 0,-0.59393 3.3,-4.53958 7.3333,-8.76811 4.0333,-4.22854 7.3333,-8.37282 7.3333,-9.20951 0,-1.91283 5.5696,-9.51609 12.7523,-17.40865 3.8459,-4.22591 6.0241,-8.16763 7.1828,-12.99764 1.3109,-5.4643 3.0468,-8.25848 8.1973,-13.19454 3.5939,-3.4442 6.5343,-7.22526 6.5343,-8.40236 0,-1.17709 0.7437,-2.88396 1.6528,-3.79302 0.9091,-0.90907 2.332,-4.66788 3.1619,-8.35294 l 1.509,-6.7001 -5.6245,-7.58039 c -3.0935,-4.16921 -8.3529,-10.03767 -11.6877,-13.04101 -3.3348,-3.00335 -6.9784,-7.20335 -8.0971,-9.33334 -1.1187,-2.12998 -4.782,-6.54762 -8.1408,-9.81698 -3.3588,-3.26935 -6.1069,-6.57736 -6.1069,-7.35113 0,-0.77376 -2.1,-4.52518 -4.6667,-8.33646 -2.5667,-3.81128 -4.6667,-7.34902 -4.6667,-7.86165 0,-0.51263 -3.15,-4.30415 -7,-8.4256 -3.85,-4.12145 -8.9046,-9.57571 -11.2326,-12.12055 -2.328,-2.54485 -6.9654,-6.31574 -10.3052,-8.37977 -4.7063,-2.90853 -6.384,-4.90997 -7.4575,-8.89675 -0.7619,-2.82918 -2.1245,-5.44308 -3.0283,-5.80864 -1.2056,-0.48769 -1.1654,-0.69266 0.1511,-0.7699 0.9868,-0.0579 3.4777,-1.30408 5.5355,-2.7693 3.5958,-2.56042 3.7222,-3.03256 3.252,-12.14108 -0.2691,-5.21238 -1.175,-10.3033 -2.0131,-11.31314 -1.8676,-2.25036 -9.7099,-4.53095 -15.6151,-4.54098 -11.3957,-0.0193 -34.9534,-11.32596 -34.9534,-16.77601 0,-3.87856 -5.3646,-11.71628 -13.2548,-19.36534 -7.1294,-6.91144 -8.7554,-7.86608 -13.399,-7.86608 -6.3558,0 -10.0165,-4.1985 -8.5958,-9.85882 0.6628,-2.64098 0.3688,-3.47452 -1.2256,-3.47452 -2.1335,0 -5.1824,-4.28016 -4.5428,-6.37721 0.1932,-0.63356 -2.6487,-3.72019 -6.3154,-6.85917 -3.6666,-3.139 -8.0409,-7.14495 -9.7206,-8.90211 -1.6796,-1.75716 -3.9296,-3.19484 -5,-3.19484 -1.4518,0 -1.946,-1.7294 -1.946,-6.80937 0,-6.15118 -3.4022,-15.8637 -9.4012,-26.8392 -1.961,-3.58755 -1.5136,-6.58203 1.455,-9.74206 3.7684,-4.01132 4.5995,-9.4067 1.6247,-10.54822 -2.2404,-0.85975 -4.1808,0.79902 -9.0504,7.73689 -1.3317,1.89743 -2.6737,2.25741 -5.8304,1.56408 -4.9673,-1.09101 -6.5716,-3.25061 -3.8859,-5.23105 5.3944,-3.97784 7.0375,-13.7671 3.0502,-18.17303 -1.2148,-1.34232 -3.2032,-4.42366 -4.4187,-6.84742 -1.2155,-2.42378 -3.4211,-5.0152 -4.9013,-5.75874 -6.7808,-3.40598 -9.166,-7.53432 -9.3659,-16.21041 -0.1053,-4.57959 0.3051,-9.10988 0.9123,-10.06732 0.8449,-1.33224 1.1089,-1.34964 1.1245,-0.0741 0.013,0.91666 0.6883,1.51666 1.5047,1.33333 0.8162,-0.18333 1.7346,1.16667 2.0406,3 0.7504,4.49532 4.7482,8.32319 7.564,7.24261 2.7931,-1.07178 2.924,-4.02982 0.2244,-5.0658 -1.111,-0.42633 -2.6193,-2.35152 -3.3518,-4.27818 -0.8923,-2.34691 -2.0026,-3.24571 -3.3639,-2.72331 -1.1445,0.43923 -2.362,-0.0805 -2.7877,-1.19015 -0.4159,-1.08341 -1.308,-1.6287 -1.9827,-1.21174 -0.6747,0.41697 -1.1133,0.26352 -0.9748,-0.34099 0.1384,-0.60451 -0.108,-2.59911 -0.5476,-4.43244 -0.4396,-1.83333 -1.1296,-6.20541 -1.5333,-9.71572 -0.6051,-5.26164 -0.3275,-6.53229 1.5806,-7.23608 3.3122,-1.22165 4.271,-3.08489 4.2942,-8.34517 0.016,-3.72403 1.0694,-5.55083 5.3798,-9.33334 4.8222,-4.23153 5.3931,-5.39642 5.6942,-11.61942 0.1841,-3.80403 0.7724,-7.35403 1.3072,-7.8889 1.8952,-1.89521 1.072,-6.18486 -1.0319,-5.3775 -2.7459,1.05369 1.4576,-5.5147 5.7453,-8.97774 1.6983,-1.37161 2.785,-3.28332 2.4147,-4.24822 -0.3703,-0.96491 0.4932,-3.23731 1.9189,-5.04979 1.4256,-1.81247 2.5922,-4.44805 2.5922,-5.85684 0,-1.4088 3.3074,-6.81812 7.3498,-12.02072 5.5672,-7.16493 8.397,-9.68361 11.6667,-10.38416 2.3743,-0.50869 7.7789,-2.63021 12.0105,-4.71449 4.2315,-2.08429 8.1315,-3.92287 8.6667,-4.08573 2.7395,-0.83376 9.6396,-5.5661 9.6396,-6.61122 0,-0.66089 0.8789,-1.20162 1.9531,-1.20162 1.0742,0 2.5476,-1.11075 3.2741,-2.46834 0.7265,-1.35757 5.9605,-4.73068 11.6311,-7.49576 9.273,-4.52172 11.081,-4.95753 17.974,-4.3325 6.393,0.5797 8.044,0.275 9.9558,-1.83756 1.2606,-1.39288 3.3691,-2.53251 4.6856,-2.53251 1.3166,0 2.957,-1.00633 3.6452,-2.23629 1.0214,-1.82486 3.6706,-2.28696 14.3996,-2.51171 15.8011,-0.331 32.2919,-2.34309 36.157,-4.41164 4.0874,-2.18753 34.8414,-2.00532 37.5529,0.22249 1.1577,0.95124 5.7049,3.14522 10.1049,4.87551 12.0848,4.75231 24.6667,11.01283 24.6667,12.27367 0,2.00228 4.6708,5.85812 9.3905,7.75204 7.3842,2.96312 11.8248,8.96658 11.8887,16.07258 0.032,3.6444 -0.8609,7.34311 -2.2549,9.33334 -1.27,1.81317 -2.1822,3.45297 -2.0271,3.64398 1.4556,1.79228 4.1993,8.31936 3.4971,8.31936 -0.4992,0 0,1.05 1.12,2.33334 4.9272,5.67019 4.287,9.18994 -4.3139,23.72239 -4.6033,7.77787 -10.8709,16.27412 -14.3937,19.51195 -5.4899,5.04568 -6.3202,6.53843 -6.9067,12.41707 l -0.6667,6.68192 -9.3333,-0.21872 c -5.1333,-0.12027 -10.2391,-0.27031 -11.346,-0.33334 -1.1069,-0.0631 -2.7513,-1.29768 -3.6544,-2.74364 -1.5271,-2.44522 -1.4036,-2.53844 1.7661,-1.33333 1.8743,0.71263 3.9688,1.29569 4.6544,1.29569 1.594,0 6.5799,-4.9519 6.5799,-6.53496 0,-1.84102 -9.5012,-7.34921 -14,-8.11632 l -4,-0.68205 v -10.48367 c 0,-10.18 0.1267,-10.59516 4.3791,-14.33277 4.3308,-3.80665 4.3732,-3.95812 3.8401,-13.73504 l -0.5391,-9.88594 6.16,-1.5533 c 6.1391,-1.54806 6.1487,-1.55944 2.8266,-3.36718 -3.303,-1.79732 -8.826,-1.37407 -11.2667,0.86338 -2.2111,2.02692 -8.2537,1.25554 -11.7581,-1.501 -2.1688,-1.70594 -7.1423,-3.17481 -13.8466,-4.08937 -5.7541,-0.78496 -13.6584,-2.34303 -17.565,-3.46239 -11.4944,-3.2934 -19.866,-3.47136 -25.405,-0.54001 -2.654,1.40451 -9.0253,2.93167 -14.1586,3.39371 -22.4852,2.0238 -25.4456,2.6567 -29.8802,6.38812 -2.3784,2.00133 -5.1784,3.6388 -6.2221,3.6388 -1.0437,0 -1.8977,0.63541 -1.8977,1.41202 0,0.77662 -0.6,1.0412 -1.3334,0.58798 -0.7333,-0.45323 -1.3333,-0.15323 -1.3333,0.66666 0,0.8199 -0.6,1.1199 -1.3333,0.66667 -0.7334,-0.45323 -1.3334,0.0385 -1.3334,1.09288 0,1.05432 -1.8077,2.66573 -4.0172,3.58093 -2.2096,0.9152 -6.5596,4.7148 -9.6666,8.44353 -6.3422,7.6108 -11.4318,12.68411 -17.8924,17.83514 -2.4128,1.92374 -4.7084,4.51069 -5.1014,5.74877 -0.5178,1.63165 -1.7153,2.06667 -4.3517,1.58093 -3.5923,-0.66181 -3.6069,-0.63578 -1.1784,2.10096 2.7995,3.15478 2.0579,10.15535 -1.2731,12.01947 -1.0665,0.59685 -2.2602,3.74969 -2.6528,7.00632 -0.3925,3.25664 -2.1157,9.52188 -3.8294,13.92277 -1.7136,4.4009 -3.3876,11.18034 -3.72,15.06543 -0.5719,6.68399 -0.3996,7.16975 3.206,9.03424 2.0957,1.08375 3.8104,2.69984 3.8104,3.59132 0,0.89148 2.0437,4.62608 4.5416,8.29909 2.6412,3.88384 4.8602,9.0765 5.3032,12.40982 0.4189,3.15237 1.6752,7.03588 2.7917,8.63 1.1165,1.59413 2.0301,4.2295 2.0301,5.85638 0,1.62688 0.5482,3.29671 1.218,3.71072 0.6699,0.414 2.5687,3.59941 4.2196,7.07868 1.6511,3.47927 5.903,10.06307 9.4488,14.63065 3.5458,4.5676 6.447,9.14414 6.447,10.17008 0,1.02595 0.9,2.6123 2,3.52522 1.1,0.91292 2,3.24278 2,5.17749 0,2.67052 1.7865,4.94324 7.4189,9.43757 5.7983,4.62679 7.2559,6.51684 6.6728,8.65244 -0.5529,2.02546 0.8331,4.28502 5.3567,8.7325 16.1758,15.90342 37.8849,38.8012 37.8849,39.9592 0,0.71314 2.4017,2.39765 5.3371,3.74334 6.3341,2.90376 19.9962,14.6148 19.9962,17.14051 0,3.13326 9.0544,16.04374 14.5523,20.74966 3.8509,3.29631 5.1397,5.29702 4.6409,7.20455 -0.4293,1.64196 0.3491,3.58188 2.0582,5.12848 1.5117,1.36816 2.7486,3.46253 2.7486,4.65417 0,2.91248 7.5646,9.78122 13.3334,12.10684 5.1165,2.06267 6.7714,3.18212 11.2345,7.59916 2.4007,2.3759 3.9445,2.7966 7.9045,2.15398 5.6588,-0.91828 10.1968,2.09505 10.1906,6.76676 0,3.22212 4.9885,13.53004 8.1621,16.8513 1.1871,1.24234 2.9004,5.18752 3.8073,8.76708 1.3818,5.45358 3.0202,7.69671 10.1104,13.84163 4.6539,4.03333 8.4906,8.18061 8.526,9.21618 0.036,1.03558 1.4566,4.33558 3.1578,7.33334 1.7013,2.99776 3.8678,8.15048 4.8145,11.45048 0.9467,3.3 3.5035,10.67332 5.6817,16.38514 2.5396,6.65891 4.471,15.07987 5.3828,23.46951 1.367,12.57737 1.3111,13.19535 -1.4417,15.9482 -1.5752,1.57509 -2.8639,3.98221 -2.8639,5.34915 0,1.40112 -2.3634,4.1232 -5.4177,6.2398 -4.3309,3.00132 -5.2673,4.35353 -4.6681,6.74089 0.7834,3.12125 -3.307,14.25597 -5.8038,15.79911 -0.7941,0.49073 -1.4437,2.28337 -1.4437,3.98362 0,1.70027 -0.9,3.83832 -2,4.75124 -1.1,0.91292 -2,3.14022 -2,4.94954 0,3.95974 -3.8248,7.44159 -12.3333,11.22749 -4.9235,2.19066 -6.3334,3.50602 -6.3334,5.90848 0,1.69974 0.6,3.46126 1.3334,3.91449 2.0137,1.24457 1.6117,5.08684 -1.1859,11.33564 -1.7855,3.98803 -4.8299,7.2342 -10.4528,11.14561 -16.086,11.18979 -17.646,12.96219 -19.0405,21.63369 -0.6975,4.3368 -1.1819,10.1592 -1.0764,12.9388 0.1588,4.1864 -0.679,5.9455 -4.8812,10.2489 -4.4618,4.5693 -4.981,5.7619 -4.3094,9.8997 0.7215,4.4465 0.3844,4.9799 -6.1452,9.7224 -3.7997,2.7597 -9.4314,7.7885 -12.5149,11.1751 -3.4673,3.8083 -9.5096,8.1431 -15.8379,11.3621 -7.4937,3.8119 -12.2374,7.4345 -17.7272,13.5373 -4.1224,4.5829 -8.5136,8.3329 -9.7581,8.3333 -1.2445,4e-4 -5.0839,1.5008 -8.5319,3.3341 -3.448,1.8333 -6.988,3.3333 -7.8665,3.3333 -0.8787,0 -3.0392,1.2712 -4.8015,2.8249 -2.9801,2.6276 -4.2134,2.769 -17.6513,2.0247 -10.7555,-0.5957 -15.3551,-0.3435 -18,0.9868 -4.7884,2.4086 -37.0592,2.7795 -41.0823,0.4722 z m 18.1354,-458.90185 c 2.2518,-2.71338 1.1977,-7.9565 -1.7112,-8.51118 -3.3483,-0.63845 -8.8946,0.87615 -8.8946,2.42895 0,0.70053 1.8196,2.21465 4.0436,3.36472 2.224,1.15007 3.6886,2.66547 3.2547,3.36757 -1.2536,2.02835 1.5404,1.47922 3.3075,-0.65006 z m 201.3942,-228.07338 c 0,-2.15056 -1.2213,-2.47095 -4.55,-1.19363 -2.7137,1.04136 -1.3914,3.19363 1.962,3.19363 1.4235,0 2.588,-0.9 2.588,-2 z m -83.7897,-18.51907 c 1.1928,-1.68676 -2.8301,-9.84433 -5.3275,-10.80264 -1.1068,-0.42475 -4.6537,-0.37617 -7.882,0.10787 -5.011,0.75146 -6.191,1.5547 -8.0689,5.4925 -2.1036,4.41124 -2.0847,4.68011 0.4344,6.1668 5.9681,3.52248 18.0668,2.9626 20.844,-0.96458 z M 576.00833,1108.3435 c -3.15832,-4.8202 -9.72891,-8.1845 -17.96395,-9.1981 -14.0261,-1.7264 -19.65641,-3.0833 -23.87407,-5.7537 -3.92682,-2.4863 -4.28507,-3.3235 -4.70028,-10.9842 -0.30974,-5.7149 -1.21631,-9.1409 -2.9163,-11.0208 -2.0711,-2.2903 -2.3935,-4.4805 -2.00973,-13.6532 0.36653,-8.7606 0.0363,-11.2745 -1.66667,-12.6878 -1.2628,-1.048 -2.12376,-3.8221 -2.12376,-6.8428 0,-3.855 -0.62318,-5.278 -2.58386,-5.9003 -2.1794,-0.6917 -2.50346,-1.8015 -2.07022,-7.0899 0.28251,-3.4483 1.03846,-8.9697 1.6799,-12.2697 0.64144,-3.3 0.9021,-11.4986 0.57925,-18.21906 -0.51196,-10.65734 -0.91447,-12.30469 -3.14927,-12.8891 -1.9498,-0.50988 -2.37012,-1.43567 -1.75837,-3.87306 0.62248,-2.48017 0.12173,-3.50738 -2.21887,-4.5518 -2.49636,-1.1139 -3.061,-2.49102 -3.24232,-7.90789 -0.1208,-3.60751 -0.6489,-8.10789 -1.17368,-10.00087 -0.7131,-2.57241 -0.0836,-4.72445 2.49204,-8.51995 1.89539,-2.793 4.38854,-5.76727 5.54032,-6.60948 1.89978,-1.38915 1.88466,-2.39292 -0.16292,-10.81338 -2.86962,-11.80108 -3.17798,-17.91096 -3.76568,-74.61542 -0.26601,-25.66667 -0.67174,-47.26667 -0.90162,-48 -0.22988,-0.73333 2.41253,-4.33333 5.87204,-8 6.93929,-7.35483 8.48602,-11.05549 6.31573,-15.11073 -0.79252,-1.48084 -2.12919,-8.74486 -2.97035,-16.14226 -1.36149,-11.97318 -1.28893,-13.7155 0.66091,-15.87005 3.09579,-3.42081 2.82197,-11.22535 -0.49929,-14.23105 -2.05218,-1.85719 -2.54812,-3.60787 -2.09262,-7.38691 0.692,-5.74103 3.15523,-15.31277 4.74426,-18.43548 5.15926,-10.13881 5.76704,-13.34243 4.05853,-21.39321 -2.03799,-9.60347 -1.43893,-11.57357 3.87404,-12.74049 2.24115,-0.49224 4.408,-1.4341 4.81524,-2.09302 0.40723,-0.65893 0.97543,-5.86276 1.26264,-11.56409 0.47236,-9.37628 0.1992,-10.83716 -2.86091,-15.30029 l -3.38312,-4.93424 0.8114,-28.3991 c 0.94976,-33.24125 0.91142,-25.35112 0.36158,-74.39907 -0.41895,-37.37312 -0.58615,-39.61476 -3.355,-44.98051 -4.26992,-8.27464 -6.71666,-9.28231 -24.49418,-10.08768 -11.16829,-0.50596 -16.47308,-1.30883 -18.63001,-2.8196 -1.65857,-1.16172 -3.98911,-2.11221 -5.17895,-2.11221 -1.18984,0 -3.30309,-1.25942 -4.69613,-2.79871 -2.22129,-2.45449 -3.59953,-2.71617 -11.20664,-2.12775 -7.15757,0.55366 -18.84395,3.19788 -30.78445,6.96547 -1.34798,0.42533 -2.66252,-0.5454 -3.63808,-2.68653 -1.35711,-2.97851 -2.33051,-3.35248 -8.72616,-3.35248 -4.7722,0 -7.75815,-0.67415 -8.85851,-2 -1.15691,-1.39399 -4.22828,-2 -10.13628,-2 -4.66203,0 -10.87323,-0.95902 -13.80264,-2.13114 -6.32245,-2.52973 -11.11731,-2.78788 -28.23869,-1.52029 -9.85066,0.72931 -14.35671,0.48215 -19.33334,-1.06041 -4.94469,-1.53266 -9.847,-1.81023 -20.59834,-1.16632 -12.00087,0.71874 -14.79032,0.49222 -18.66667,-1.5158 -2.50656,-1.29846 -7.54935,-2.416 -11.20619,-2.48343 -6.70409,-0.1236 -7.5739,-0.55639 -15.3556,-7.63985 -6.45797,-5.87851 -12.8056,-8.06465 -21.99558,-7.57536 l -8,0.42593 -0.41382,-5.74469 c -0.22758,-3.15959 0.56884,-8.31773 1.76986,-11.46253 1.9981,-5.23196 2.00494,-6.14558 0.0805,-10.75147 -3.05904,-7.32132 -2.71125,-8.86044 3.60015,-15.93212 l 5.70334,-6.39037 14.29666,-0.61691 c 11.56506,-0.49904 14.29666,-0.26533 14.29666,1.22319 0,1.01204 1.8399,3.20037 4.08864,4.86294 3.70519,2.73936 5.0019,2.9373 13.8261,2.11039 9.05798,-0.8488 9.88096,-0.70757 11.7942,2.02396 1.93822,2.76721 3.26882,2.97088 23.09082,3.53431 18.43108,0.52389 21.24476,0.89865 22.73644,3.02832 1.39227,1.98774 3.71466,2.46626 12.74975,2.62706 10.50281,0.18692 27.23321,1.40996 58.38072,4.26779 19.53201,1.79209 35.77061,2.5886 51.16693,2.50975 10.55431,-0.054 13.66072,0.37944 15.65555,2.18472 2.10069,1.9011 4.10111,2.1033 12.83307,1.29712 5.68945,-0.52528 13.3407,-1.06375 17.00278,-1.19659 6.51508,-0.23633 6.69584,-0.35588 8.40195,-5.55601 3.17928,-9.69036 3.43785,-16.2624 0.95091,-24.16906 l -2.35207,-7.47781 3.71459,-2.96192 c 3.3516,-2.67247 3.61472,-3.47241 2.69246,-8.18599 -0.56217,-2.87324 -1.43274,-8.52408 -1.93462,-12.55741 -0.50188,-4.03333 -1.69192,-8.74689 -2.64452,-10.47457 -2.04255,-3.7044 -2.135,-20.06975 -0.15174,-26.85876 0.74979,-2.56667 0.983,-8.0776 0.51826,-12.24652 -0.70704,-6.34224 -0.3831,-8.32725 1.98405,-12.15737 3.57009,-5.77654 3.61521,-12.79295 0.1624,-25.25286 -3.05247,-11.01517 -3.58264,-29.62084 -1.04411,-36.64104 1.23934,-3.4273 1.25566,-5.02424 0.0691,-6.76132 -6.68328,-9.78401 -7.22917,-12.17688 -7.80043,-34.19278 -0.30561,-11.77813 -0.88813,-24.34996 -1.29446,-27.9374 -0.65299,-5.76484 -0.29416,-7.08152 3.08857,-11.33333 2.10505,-2.6459 4.19571,-5.80214 4.64589,-7.01387 0.87239,-2.34813 9.55507,-4.68005 22.31608,-5.99345 l 7.35271,-0.75678 3.20261,8.14826 c 1.76144,4.48154 4.01144,8.81952 5,9.63996 2.07528,1.72236 2.45212,9.16517 0.46401,9.16517 -0.73333,0 -1.33333,0.66504 -1.33333,1.47788 0,0.91061 1.27947,1.15675 3.33333,0.64127 l 3.33334,-0.83662 0.15789,15.0254 c 0.0868,8.26397 0.0399,15.6164 -0.1044,16.33872 -0.14428,0.72233 -0.31779,4.96988 -0.38556,9.43901 -0.10107,6.66206 0.39812,8.64702 2.77111,11.02 1.59188,1.59188 2.89433,4.32087 2.89433,6.06442 0,1.74353 0.90691,3.92273 2.01535,4.84265 1.5496,1.28605 1.98317,4.48223 1.87612,13.82993 -0.34235,29.89126 0.0145,36.41952 2.08528,38.13803 3.0835,2.55909 2.66042,16.97073 -0.75239,25.62911 -2.82957,7.17866 -2.83771,10.33663 -0.0577,22.39019 2.15264,9.33334 1.74564,18.8685 -1.1667,27.33334 -3.38265,9.83184 -3.34925,13.5306 0.17436,19.31074 2.44512,4.01098 2.72172,5.93766 2.02898,14.13282 -0.73632,8.71066 -0.55183,9.72384 2.24989,12.35592 1.67859,1.57694 4.33156,2.86718 5.89549,2.86718 1.56394,0 5.69684,1.51714 9.18426,3.3714 3.9351,2.09232 8.1352,3.26814 11.07054,3.09922 2.6014,-0.14971 6.15256,0.4932 7.89148,1.42869 2.2275,1.19833 5.37915,1.39621 10.66667,0.66972 4.12775,-0.56713 8.105,-0.82476 8.83833,-0.57249 0.73334,0.25226 16.33334,0.60786 34.66667,0.7902 20.70703,0.20594 35.10101,0.91465 38,1.87098 2.56667,0.8467 9.17176,1.77746 14.67799,2.06836 5.50621,0.29091 14.80621,1.44644 20.66666,2.56786 6.02503,1.15292 17.89791,2.03874 27.32202,2.03849 17.71781,-4.7e-4 23.1431,-1.268 37.80985,-8.83367 3.56209,-1.83745 7.31209,-3.0202 8.33333,-2.6283 2.38991,0.91709 2.37907,4.08348 -0.0221,6.48473 -3.26455,3.26456 -0.4654,5.59148 4.60145,3.82516 6.48383,-2.26028 37.87599,-1.90996 45.85929,0.51175 3.62,1.0981 7.52,1.71433 8.6667,1.3694 1.1467,-0.34495 5.9806,-0.75362 10.742,-0.90815 6.9615,-0.22595 10.3461,-1.17705 17.2812,-4.85623 l 8.6243,-4.57525 2.7187,3.31656 c 1.4953,1.82411 4.0145,3.70992 5.5983,4.19069 1.5838,0.48079 3.6072,1.75092 4.4966,2.82252 0.8893,1.0716 2.7564,1.94836 4.149,1.94836 1.4069,0 3.2068,1.48118 4.0507,3.33334 1.5579,3.41922 4.2931,4.36936 5.7574,2 1.1355,-1.83726 8.914,-1.67112 15.6078,0.33333 7.183,2.15095 23.6806,18.12066 27.5939,26.71106 3.1346,6.88075 3.6495,15.34523 1.1317,18.6011 -0.9167,1.18534 -4.0897,4.15002 -7.0513,6.58817 -4.8218,3.96976 -14.3061,14.0476 -21.0928,22.41297 -2.3169,2.85582 -3.1375,2.99883 -12.6666,2.20762 -9.3484,-0.7762 -10.4759,-1.19398 -13.6611,-5.0618 -3.3769,-4.10059 -3.6306,-4.17544 -9.2873,-2.73963 -5.0879,1.29145 -6.3602,1.13961 -10.1676,-1.21349 -3.588,-2.21751 -6.2282,-2.62571 -15.0401,-2.32531 -7.0056,0.23881 -11.2415,-0.18895 -12.294,-1.24151 -0.9492,-0.94917 -5.4579,-1.60585 -11.0257,-1.60585 -6.8724,0 -10.7652,-0.72115 -14.3951,-2.66667 -6.21967,-3.33352 -9.54697,-3.35789 -14.82776,-0.10866 -3.26675,2.01002 -7.01375,2.61588 -17.49071,2.82804 -18.17517,0.36805 -34.04688,-1.03131 -36.57398,-3.22463 -3.3672,-2.92244 -15.02366,-3.81579 -21.62858,-1.65761 -3.1886,1.04188 -12.8758,2.1768 -21.52713,2.52204 -13.7094,0.54708 -16.11796,0.99245 -18.7526,3.46758 -3.7874,3.55807 -7.00855,3.61898 -9.16047,0.1732 -0.91594,-1.46666 -2.62804,-2.66666 -3.80465,-2.66666 -1.17661,0 -3.25433,-1.23212 -4.61717,-2.73804 -2.04234,-2.25675 -3.4263,-2.5818 -7.87332,-1.84924 -2.96748,0.48882 -6.23764,1.57094 -7.26702,2.40469 -1.02938,0.83376 -3.42938,1.62533 -5.33333,1.75905 -1.90396,0.13372 -7.81175,0.66435 -13.12841,1.17916 -9.273,0.89791 -9.66667,0.82012 -9.66667,-1.9098 0,-2.01885 -0.82901,-2.84578 -2.85301,-2.84578 -1.56915,0 -3.59826,-1.01918 -4.5091,-2.26484 -1.39705,-1.91058 -3.71425,-2.21091 -14.81366,-1.92 -10.69766,0.28036 -15.40891,1.12528 -25.19956,4.51928 -7.45671,2.58493 -12.99938,3.80706 -14.5563,3.20962 -1.91632,-0.73536 -2.14416,-1.33494 -0.958,-2.5211 2.9577,-2.9577 1.52186,-3.68963 -7.23798,-3.68963 -5.91468,0 -10.06226,0.74901 -12.66667,2.28748 -4.64567,2.74425 -4.71299,3.3502 -0.93931,8.45437 l 2.93308,3.9672 -2.93308,2.05442 c -1.61318,1.12992 -2.9591,3.07038 -2.9909,4.31213 -0.0319,1.24176 -1.53564,4.65773 -3.34186,7.59107 -7.29828,11.8526 -7.64877,13.42424 -4.54598,20.38506 2.30978,5.18183 2.62197,7.56551 1.78308,13.61494 -1.42894,10.30445 -0.61182,25.25742 1.6156,29.56475 2.87329,5.55635 2.34534,9.9827 -1.51554,12.70634 -9.42721,6.65036 -8.92114,5.30013 -5.89517,15.7289 1.48947,5.13334 3.41811,10.53334 4.28587,12 0.86774,1.46667 1.81496,9.45768 2.1049,17.75782 0.49459,14.15838 0.34323,15.28694 -2.449,18.25913 -2.61177,2.78011 -2.95233,4.47925 -2.78153,13.87761 0.16736,9.20938 -0.16081,10.93162 -2.34268,12.29422 -2.26236,1.41286 -2.46248,2.78424 -1.84665,12.65507 0.42757,6.85348 0.0637,13.30992 -0.95534,16.94942 -1.55112,5.54005 -1.43722,6.19437 1.97584,11.35186 3.44292,5.2026 3.58424,6.05047 2.86088,17.16391 -0.41853,6.43003 -1.39356,16.19096 -2.16673,21.69096 -0.83707,5.95445 -0.95811,12.69703 -0.29919,16.66667 0.60863,3.66666 0.76115,14.66152 0.33896,24.433 -0.85825,19.86342 -0.3042,23.05249 3.81775,21.97458 3.16249,-0.82701 3.82533,1.92935 0.74795,3.11024 -2.83184,1.08668 -2.50112,16.40677 0.55636,25.77253 l 2.37996,7.29035 -5.13483,6.49604 c -6.22571,7.87612 -6.86835,13.52392 -1.80149,15.83252 3.01238,1.37253 3.33333,2.28331 3.33333,9.45913 0,4.3672 -1.04853,10.89256 -2.33007,14.5008 -2.21785,6.24454 -2.21785,6.75595 0,10.62035 1.44131,2.51131 2.33007,6.84979 2.33007,11.37413 0,5.61251 0.73531,8.30175 3.16043,11.55862 2.67984,3.59898 3.28112,6.34746 3.95421,18.07521 0.51744,9.0156 1.50605,14.91785 2.83959,16.95309 1.12517,1.71723 2.04577,5.46244 2.04577,8.32268 0,3.18151 1.03527,6.51655 2.66667,8.59055 1.46666,1.86452 2.66666,4.86452 2.66666,6.66662 0,1.8022 1.35,4.9942 3,7.0934 2.84174,3.6155 2.97482,4.7826 2.52248,22.1225 -0.43316,16.6047 -0.22386,18.716 2.2524,22.7227 1.72704,2.7944 2.83404,7.1014 3.01334,11.724 0.2525,6.5102 -0.16132,7.7804 -3.7951,11.6486 -2.87594,3.0614 -4.33664,6.2185 -4.95397,10.7071 -0.70423,5.1203 -2.05509,7.5963 -6.90611,12.6583 -4.86673,5.0784 -6.90306,6.2929 -10.55109,6.2929 -3.32572,0 -5.08608,-0.8632 -6.66052,-3.2661 z m 369.4119,-664.73383 c 0.4532,-0.73334 0.1886,-1.33334 -0.588,-1.33334 -0.7766,0 -1.412,0.6 -1.412,1.33334 0,0.73333 0.2646,1.33333 0.588,1.33333 0.3234,0 0.9588,-0.6 1.412,-1.33333 z M 316.08691,414.27633 c -0.6451,-1.04378 -1.4121,-1.12124 -2.30099,-0.23234 -0.73333,0.73333 -0.89788,2.03788 -0.36568,2.89901 0.64509,1.04379 1.41209,1.12124 2.30099,0.23235 0.73333,-0.73334 0.89788,-2.03788 0.36568,-2.89902 z M 2398.2438,1082.4235 c -4.7192,-1.9145 -9.1837,-2.3171 -23.2101,-2.0934 -14.3287,0.2286 -18.3287,-0.1484 -22.8642,-2.1546 -3.0233,-1.3374 -9.6788,-2.8315 -14.7898,-3.3202 -5.1111,-0.4888 -10.6218,-1.719 -12.2459,-2.7338 -1.6243,-1.0149 -4.5296,-1.8452 -6.4564,-1.8452 -1.9268,0 -5.0288,-1.2 -6.8933,-2.6667 -1.8647,-1.4666 -4.2292,-2.6666 -5.2547,-2.6666 -1.0255,0 -4.8699,-1.523 -8.5432,-3.3844 -6.3808,-3.2334 -7.35,-3.3442 -21.7328,-2.4843 -13.4267,0.8027 -15.2583,0.6463 -16.9436,-1.4469 -2.7341,-3.3959 -9.2621,-9.9471 -15.5339,-15.589 -2.9986,-2.6975 -6.2554,-6.5735 -7.2372,-8.6133 -0.9818,-2.0397 -5.3852,-6.5993 -9.7852,-10.1324 -4.4,-3.5331 -8.2225,-7.4556 -8.4946,-8.7167 -0.6775,-3.1407 -6.4607,-8.2997 -9.3039,-8.2997 -2.5379,0 -16.2015,-16.24958 -16.2015,-19.26781 0,-1.02349 -1.3893,-3.55695 -3.0874,-5.62987 -1.6982,-2.07293 -4.4639,-6.46897 -6.1463,-9.76897 -1.6824,-3.3 -5.4468,-8.59492 -8.3653,-11.76651 -3.8632,-4.19802 -5.1138,-6.55533 -4.5978,-8.66666 0.8048,-3.29208 -5.718,-11.56683 -9.1177,-11.56683 -1.1829,0 -2.0188,-1.19857 -2.0188,-2.89501 0,-1.59225 -0.8281,-3.84225 -1.8403,-5 -2.6766,-3.06164 -11.493,-24.08233 -11.493,-27.40249 0,-1.55539 -2.3563,-5.12875 -5.236,-7.94082 -4.9304,-4.81442 -5.2887,-5.70569 -6.137,-15.27058 -0.9184,-10.35658 -6.6766,-29.27494 -10.8484,-35.64175 -1.7638,-2.69199 -2.4465,-7.29817 -2.8789,-19.42552 -0.5281,-14.81612 -0.3732,-16.1028 2.2801,-18.92708 2.2575,-2.40298 2.6618,-3.97562 1.9527,-7.59685 -0.4917,-2.51161 -1.6656,-5.76656 -2.6085,-7.23323 -3.3914,-5.27512 -2.9806,-75.01056 0.4745,-80.54306 1.3877,-2.2223 2.2147,-8.3751 2.6877,-20 0.6296,-15.47389 0.93,-17.02048 3.8318,-19.7266 1.7317,-1.61499 3.1486,-3.77563 3.1486,-4.80141 0,-1.0258 1.42,-4.53576 3.1556,-7.79992 2.2284,-4.1912 3.1759,-8.19872 3.2248,-13.64038 0.045,-5.07366 0.7895,-8.50129 2.1778,-10.0354 1.481,-1.63653 2.1085,-4.98964 2.1085,-11.2677 0,-4.92844 0.8972,-11.08507 2,-13.72451 1.1,-2.63268 2,-6.78676 2,-9.23129 0,-2.5422 1.4268,-6.5471 3.3333,-9.35658 1.8334,-2.70156 3.3334,-5.95474 3.3334,-7.22928 0,-1.27454 0.9,-3.06428 2,-3.9772 1.1,-0.91292 2,-3.64594 2,-6.07341 0,-3.17297 0.7157,-4.6407 2.5462,-5.2217 4.7584,-1.51026 5.8348,-4.38976 5.6326,-15.06687 l -0.1952,-10.30468 4.6381,-3.33333 c 3.8613,-2.775 4.6444,-4.17194 4.6749,-8.33987 0.02,-2.7536 1.5599,-8.1536 3.4215,-12 1.9033,-3.9328 3.0795,-8.22589 2.6873,-9.80951 -0.5374,-2.17052 0.979,-4.29362 6.6154,-9.262 4.7745,-4.20874 7.3125,-7.48462 7.3125,-9.4386 0,-1.64596 0.6612,-3.4013 1.4693,-3.90077 0.8083,-0.49947 2.3172,-2.78488 3.3534,-5.07869 1.036,-2.2938 2.5694,-5.37056 3.4074,-6.83723 0.838,-1.46667 1.9263,-3.56667 2.4183,-4.66667 0.492,-1.1 4.5723,-4.7 9.0671,-8 4.4948,-3.3 8.2066,-6.9 8.2485,-8 0.1619,-4.25417 3.8899,-12.69666 6.1744,-13.98307 3.116,-1.75448 7.094,-6.28335 7.1505,-8.14055 0.024,-0.80132 1.5344,-4.10132 3.3555,-7.33333 1.8211,-3.232 3.8569,-7.07638 4.5243,-8.54304 2.273,-4.99607 14.9316,-16.7534 18.89,-17.54507 2.1348,-0.42697 4.5684,-1.604 5.408,-2.61561 0.8396,-1.01163 2.5712,-1.83932 3.8481,-1.83932 1.2768,0 3.7533,-1.39778 5.5033,-3.10616 1.75,-1.7084 4.2032,-3.47855 5.4515,-3.93368 1.2936,-0.47168 2.0689,-1.86923 1.8029,-3.25007 -0.2565,-1.3324 0.5222,-3.63511 1.7306,-5.11712 3.6269,-4.44849 14.4533,-11.25964 17.8972,-11.25964 3.5073,0 8.2532,-4.24139 6.636,-5.93063 -1.2999,-1.35769 7.9697,0.54099 9.4646,1.93866 0.6238,0.58322 -0.1266,1.46044 -1.6666,1.94937 -3.2828,1.04188 -3.7415,5.39636 -0.6919,6.56661 5.1337,1.97 11.3677,0.79191 14.6712,-2.77256 4.1156,-4.4409 3.6783,-7.61894 -1.1251,-8.17334 -2.0102,-0.23204 -3.6552,-0.93532 -3.6552,-1.56283 0,-0.62752 5.6388,-1.15251 12.5307,-1.16664 10.5671,-0.0217 12.8844,0.36499 14.7869,2.46728 1.4662,1.62015 1.9383,3.49436 1.3483,5.35312 -0.6183,1.94807 -0.1791,3.39292 1.3772,4.53089 1.8827,1.37668 2.3445,4.29891 2.6235,16.60112 0.3296,14.54174 0.2513,14.99892 -3.0106,17.56466 -2.7754,2.18313 -5.4304,2.63652 -15.5025,2.64732 -10.154,0.0107 -13.3337,0.56244 -19.3275,3.35262 -6.1764,2.87518 -8.3273,3.22147 -15.4661,2.49008 l -8.292,-0.84954 -9.2005,9.01478 c -5.0604,4.95814 -11.1507,9.8398 -13.534,10.84814 -3.643,1.54124 -4.3334,2.53429 -4.3334,6.23266 0,3.14763 -1.1381,5.48966 -4,8.23156 -2.2,2.10773 -4,4.53237 -4,5.38809 0,0.85572 -1.5,3.17438 -3.3333,5.15258 -1.8333,1.9782 -3.3333,4.62653 -3.3333,5.88518 0,1.25866 -1.4154,4.37774 -3.1451,6.93131 -1.7299,2.55356 -3.6153,6.14284 -4.19,7.97617 -1.5371,4.90314 -10.448,14.8106 -16.2653,18.0843 -4.0182,2.26118 -4.9704,3.5129 -4.6028,6.05004 0.2548,1.75945 1.0465,3.91064 1.7592,4.78044 1.2925,1.57757 -0.3639,6.33852 -2.5407,7.30236 -1.4837,0.65694 -7.0153,8.78566 -7.0153,10.30906 0,0.71547 -2.4106,2.98978 -5.3567,5.054 -3.6901,2.58559 -6.6841,6.44922 -9.6243,12.4198 -4.607,9.35599 -5.8454,10.77752 -8.5009,9.7585 -3.1208,-1.19754 -4.8791,0.9608 -2.7487,3.37388 1.0687,1.21052 2.3466,5.22294 2.8395,8.91649 0.7699,5.76783 0.5076,7.06733 -1.8583,9.20846 -1.515,1.37112 -4.5354,6.26204 -6.712,10.86872 -3.4106,7.21858 -3.7592,8.94442 -2.5226,12.49167 1.6952,4.86255 0.5548,12.44376 -2.218,14.74489 -1.0806,0.89682 -1.9647,2.68364 -1.9647,3.97072 0,1.28708 -0.9069,3.09282 -2.0153,4.01274 -1.5664,1.30002 -1.9591,4.38069 -1.7626,13.82993 0.3319,15.96168 -0.9144,25.90564 -3.6216,28.89708 -1.2073,1.33405 -1.8557,2.97461 -1.441,3.64569 0.4148,0.67108 1.1009,4.93292 1.5249,9.47075 0.7055,7.55185 0.4025,8.9204 -3.5769,16.159 -4.1919,7.62496 -4.2875,8.13346 -2.668,14.1884 1.3886,5.19233 1.3416,8.02785 -0.2722,16.37154 -5.3202,27.50898 -5.4164,29.99914 -1.9473,50.42487 0.9928,5.84559 2.0064,8.33333 3.3952,8.33333 2.9064,0 1.0425,15.45831 -2.4575,20.38059 -2.8092,3.95084 -2.4122,8.18603 0.8859,9.45163 4.4735,1.71664 14.4041,28.57893 13.1796,35.65067 -2.4101,13.91898 -2.7491,12.43491 4.6201,20.22675 6.199,6.55452 6.8234,7.78277 6.8234,13.42301 0,5.99754 0.3425,6.53371 10.089,15.79194 6.9999,6.64916 9.8998,10.30732 9.471,11.94716 -0.3399,1.29994 0.22,3.05906 1.2442,3.90916 1.0244,0.85008 1.8624,2.59868 1.8624,3.88576 0,1.28708 0.9,3.08708 2,4 2.34,1.94201 2.6071,5.52624 0.5642,7.56922 -1.0256,1.02563 1.6402,3.60371 9.3304,9.02315 7.7434,5.45695 10.9766,8.59156 11.5153,11.16412 0.412,1.96725 1.3147,4.47684 2.006,5.57684 0.6915,1.1 1.798,3.23712 2.4589,4.74917 1.3839,3.16575 10.2068,11.25083 12.2776,11.25083 0.8366,0 1.0606,1.51257 0.561,3.78754 -1.1047,5.02942 1.9422,7.4798 8.7977,7.0753 4.1095,-0.24247 6.394,0.55142 10.2237,3.55286 2.7126,2.12582 6.4319,4.62524 8.2652,5.55428 1.8334,0.92906 4.8334,3.06042 6.6667,4.73638 4.8944,4.47425 14.4211,9.34102 21.8459,11.16002 3.5818,0.8776 8.6818,2.68 11.3333,4.0055 2.6515,1.3254 6.8815,2.8036 9.4,3.2848 2.5185,0.4812 5.6745,1.8663 7.0133,3.0779 1.5486,1.4014 5.9464,2.5015 12.0875,3.0238 6.2013,0.5274 11.0417,1.7466 13.536,3.4095 3.0201,2.0135 6.7225,2.6809 16.6667,3.0042 13.7906,0.4484 17.2996,-0.8946 19.3685,-7.4132 1.0729,-3.3805 4.4425,-3.7802 8.1607,-0.968 5.4528,4.1244 11.2548,1.7085 11.2548,-4.6864 0,-4.2736 7.7981,-12.7658 14.1656,-15.42628 2.4166,-1.00974 8.168,-5.34151 12.7808,-9.62616 l 8.3869,-7.79031 10.4068,-0.13187 c 8.6421,-0.1096 10.54,0.24979 11.1928,2.11912 1.2179,3.48728 8.6827,10.91502 10.9953,10.94074 4.0631,0.0452 7.6623,5.80728 9.2151,14.75286 2.1085,12.1473 1.9053,19.4016 -0.6531,23.3062 -1.5828,2.4157 -1.9557,4.9315 -1.3673,9.2245 0.6875,5.0159 0.314,6.4913 -2.4853,9.8181 -1.8119,2.1533 -5.6402,4.8537 -8.5071,6.0008 -2.8671,1.1472 -9.6193,6.4729 -15.0049,11.835 l -9.7923,9.7492 -11.4617,-0.022 c -7.5886,-0.014 -12.1818,0.576 -13.5923,1.7466 -2.7528,2.2847 -18.5559,5.5866 -26.2788,5.4907 -3.3003,-0.041 -8.6299,-1.1412 -11.8436,-2.4449 z M 2139.7225,803.94299 c 3.4742,-3.95645 4.1437,-8.04011 1.4198,-8.66061 -5.1433,-1.17164 -12.7312,5.87061 -10.3961,9.64868 1.3293,2.15106 6.7431,1.55517 8.9763,-0.98807 z m -3.4134,-3.88889 c -0.4889,-0.48888 -0.8889,-1.50888 -0.8889,-2.26667 0,-0.83547 0.6211,-0.75675 1.5777,0.2 0.8679,0.86779 1.2679,1.88779 0.889,2.26667 -0.379,0.37889 -1.089,0.28889 -1.5778,-0.2 z m 11.1111,-141.1898 c 0,-1.05672 -0.5359,-1.92131 -1.1907,-1.92131 -1.4717,0 -2.9053,3.45956 -1.8648,4.50007 1.1671,1.16709 3.0555,-0.42667 3.0555,-2.57876 z m 42.6667,-133.84261 c 0,-0.69005 -0.6,-1.62547 -1.3334,-2.07869 -0.7333,-0.45323 -1.3333,0.11133 -1.3333,1.25464 0,1.14328 0.6,2.07869 1.3333,2.07869 0.7334,0 1.3334,-0.56459 1.3334,-1.25464 z m 22.6666,-47.41203 c 0,-1.1 -0.9,-2 -2,-2 -2.0821,0 -2.6453,1.57694 -1.111,3.11111 1.5341,1.53419 3.111,0.97099 3.111,-1.11111 z M 2353.0323,399.943 c 1.1142,-1.28333 2.0899,-4.61287 2.1686,-7.39895 0.079,-2.78609 0.4568,-5.57322 0.8402,-6.19362 0.8671,-1.40302 -2.6902,-2.89367 -3.935,-1.6489 -0.4995,0.49948 -1.3082,0.94295 -1.797,0.98548 -0.4889,0.0425 -3.08,1.41707 -5.758,3.0545 -4.9038,2.99829 -7.148,7.53492 -5.6537,11.42888 1.1609,3.02546 11.4551,2.85986 14.1349,-0.22739 z m -4.0344,-21.95556 c -0.9566,-0.95675 -1.5777,-1.03547 -1.5777,-0.2 0,1.77971 1.5768,3.35652 2.4667,2.46667 0.3789,-0.37888 -0.021,-1.39888 -0.889,-2.26667 z M 998.05393,1040.1895 c -0.7152,-1.8811 -1.3004,-4.1611 -1.3004,-5.0667 0,-5.3936 -6.714,-5.0283 -17.8652,0.9721 -5.8299,3.137 -7.9852,3.5147 -20.0532,3.5147 -8.237,0 -16.627,-0.8377 -21.4681,-2.1435 -7.6067,-2.0518 -28.867,-2.802 -33.9236,-1.1972 -1.2407,0.3938 -4.5111,-0.8144 -7.2676,-2.685 -4.8806,-3.3121 -5.4071,-3.3774 -20.1314,-2.4971 -15.09277,0.9023 -15.12731,0.8975 -19.4331,-2.7256 -3.59989,-3.0291 -5.10291,-3.4846 -9.08561,-2.7535 -2.62468,0.4819 -5.34215,1.4294 -6.03882,2.1057 -2.43181,2.3606 -4.72088,1.1753 -12.57854,-6.5135 -4.35224,-4.2586 -10.36752,-8.8497 -13.36731,-10.2024 -2.99977,-1.3528 -5.45415,-2.9684 -5.45415,-3.5903 0,-0.622 -1.19537,-1.1309 -2.65638,-1.1309 -1.461,0 -4.311,-1.8582 -6.33334,-4.1293 -2.02232,-2.27119 -6.5931,-6.27086 -10.1573,-8.88819 -3.56419,-2.61733 -9.96792,-9.30912 -14.2305,-14.87064 -4.26258,-5.56152 -9.00238,-11.38045 -10.5329,-12.93096 -3.75267,-3.80168 -10.70187,-14.15792 -10.73198,-15.99364 -0.0133,-0.81366 -2.11788,-3.51366 -4.67673,-6 -4.04492,-3.93026 -4.65432,-5.36369 -4.66667,-10.97694 -0.009,-4.35883 -0.85633,-7.52698 -2.60636,-9.75176 -1.42569,-1.81248 -2.29064,-4.08119 -1.92209,-5.04159 0.37228,-0.97016 -2.91981,-5.17035 -7.40784,-9.4512 l -8.07791,-7.70501 v -9.53038 c 0,-5.84526 -0.64445,-10.17573 -1.66666,-11.19938 -1.23144,-1.23319 -1.62655,-8.52752 -1.51304,-27.93334 0.1272,-21.7373 0.5609,-27.2985 2.51645,-32.26431 2.90396,-7.37416 4.09849,-19.46736 2.15432,-21.80995 -1.52008,-1.83157 0.37451,-4.81679 3.10893,-4.89861 2.94527,-0.0881 6.11074,-6.76483 6.743,-14.22251 0.40615,-4.79045 1.67132,-9.11104 3.32308,-11.34828 1.67346,-2.26661 2.66726,-5.70512 2.66726,-9.22855 0,-4.92976 0.74605,-6.33073 6.10632,-11.46676 l 6.1063,-5.85088 -0.87336,-9.58724 c -0.65457,-7.18544 -0.36469,-10.7872 1.15714,-14.37713 1.11677,-2.63445 1.70646,-6.02899 1.31044,-7.5434 -0.45368,-1.73489 0.25009,-3.66224 1.90248,-5.21009 1.44238,-1.35114 5.1415,-4.82666 8.22025,-7.72337 5.10051,-4.79894 16.07043,-21.47242 16.07043,-24.42588 0,-0.67506 1.20848,-2.32104 2.68552,-3.65774 1.5092,-1.36581 2.37857,-3.39742 1.98477,-4.63817 -0.75056,-2.36484 16.35756,-18.89916 26.07385,-25.19932 2.83303,-1.83697 5.82282,-4.96192 6.64395,-6.94433 1.78208,-4.30232 6.20353,-8.56958 10.09992,-9.7477 1.55173,-0.46917 6.91553,-5.33813 11.91955,-10.8199 9.02972,-9.89183 9.14908,-9.96686 15.85413,-9.96686 9.0308,0 14.9468,1.84482 19.039,5.9371 2.7904,2.79032 3.2655,4.27785 2.7039,8.4648 -0.716,5.3387 0.6047,8.17098 4.9252,10.56184 2.9527,1.63392 8.3122,0.11253 10.6282,-3.0171 0.7931,-1.07168 4.0575,-2.31058 7.2541,-2.7531 3.1966,-0.44254 7.929,-2.24115 10.5162,-3.99692 6.4722,-4.39216 12.8144,-5.74963 23.005,-4.92403 16.1299,1.30679 30.8794,0.61491 33.2841,-1.56129 2.9737,-2.69118 10.138,-4.05839 11.3121,-2.15875 2.1718,3.51412 21.28697,9.44427 30.46887,9.45244 3.3103,0.003 7.4536,1.13404 10.1292,2.76521 3.8131,2.3246 6.0226,2.65596 14,2.09962 5.2099,-0.36334 11.5724,-1.04398 14.1391,-1.51254 3.9829,-0.72709 5.3137,-0.254 9.0823,3.22874 4.1151,3.80298 5.1131,4.08386 14.6667,4.1279 6.3613,0.0293 11.5158,0.77028 13.5843,1.95275 1.8334,1.04803 4.8334,1.94011 6.6667,1.9824 1.8333,0.0423 4.8333,1.25021 6.6667,2.68427 1.8333,1.43405 4.5903,2.6207 6.1266,2.63701 1.5364,0.0163 3.8794,1.22965 5.2067,2.69632 2.8692,3.17048 5.7233,3.37876 9.552,0.69705 1.8977,-1.32918 5.7876,-1.9084 11.9633,-1.78136 5.0333,0.10347 10.7258,-0.26565 12.6502,-0.82041 3.5603,-1.02636 4.5075,-0.44261 8.3894,5.17001 1.6489,2.38412 2.3636,2.4679 8.658,1.01498 5.2669,-1.21574 8.2204,-1.22002 12.713,-0.0184 5.4161,1.44858 6.382,1.28704 12.9631,-2.16802 6.5832,-3.45617 8.4174,-3.76256 24.7129,-4.12818 13.891,-0.31168 17.9311,10e-4 19.1632,1.48637 0.8588,1.03473 2.3078,1.88132 3.2201,1.88132 2.065,0 17.9961,16.10271 18.0069,18.20093 0,0.84386 1.502,4.74386 3.3282,8.66667 3.5035,7.52585 4.1652,15.63252 2.1334,26.13575 -0.8888,4.59426 -2.7118,7.18283 -9.6086,13.64389 -6.7705,6.34266 -9.1595,7.82844 -11.6781,7.26285 -2.1306,-0.47847 -4.9654,0.51025 -8.6666,3.02277 -5.4098,3.67228 -5.8739,3.74112 -28.1671,4.17788 -45.1238,0.88404 -43.3997,0.96256 -52.9577,-2.4117 -8.0386,-2.83786 -9.4744,-2.98327 -14.1666,-1.4347 -4.4157,1.45732 -6.2235,1.40434 -11.7152,-0.34334 -3.5716,-1.13662 -8.5914,-2.48891 -11.1551,-3.0051 -4.3218,-0.87016 -10.766,-3.27034 -16.3206,-6.07868 -3.6992,-1.87028 -27.8848,-1.33464 -31.5543,0.69882 -3.6433,2.019 -7.5816,1.41984 -11.4638,-1.74406 -11.5705,-9.42964 -23.6681,-15.18753 -29.8069,-14.18662 -4.1141,0.67079 -7.1104,-0.35013 -19.5265,-6.6532 -8.06657,-4.09507 -15.23657,-8.00956 -15.93327,-8.69887 -2.3436,-2.31888 -12.7691,-1.41872 -16.3695,1.41338 -4.9683,3.90809 -22.2723,3.90809 -24.3638,0 -0.8036,-1.50152 -2.7918,-2.66667 -4.5503,-2.66667 -1.7178,0 -3.8822,-0.91453 -4.8099,-2.03231 -1.2848,-1.54809 -4.2748,-1.9882 -12.5497,-1.84725 -8.7525,0.14909 -11.8852,-0.36276 -16.1236,-2.63436 -2.8932,-1.55071 -6.0193,-2.81944 -6.9468,-2.81944 -0.9275,0 -1.6864,-0.6 -1.6864,-1.33333 0,-0.73334 -2.3584,-1.33334 -5.2409,-1.33334 -5.7846,0 -11.8858,3.22775 -20.6067,10.90156 -3.0637,2.69586 -7.1941,5.3091 -9.17874,5.8072 -1.98461,0.49811 -6.00333,3.22986 -8.93048,6.07056 -4.39575,4.26592 -5.98444,5.03243 -9.12753,4.40382 -2.9423,-0.58847 -6.00642,0.55198 -13.5087,5.02788 -9.10886,5.43438 -13.19808,10.22419 -11.32128,13.26094 0.42428,0.68649 -2.85817,8.58615 -7.29434,17.55477 -4.43618,8.96863 -7.92903,17.49336 -7.76188,18.94386 0.24624,2.13688 -0.708,2.77818 -5.02944,3.38006 -8.30334,1.1565 -8.54451,1.54559 -7.7195,12.4541 l 0.73934,9.7758 -6.88848,4.46358 c -5.1414,3.33151 -6.63324,4.991 -5.8821,6.54307 0.55354,1.14371 0.87718,5.22947 0.71923,9.07947 -0.37661,9.18005 -0.44525,20.07632 -0.15568,24.71286 0.14061,2.25119 -0.93524,4.95522 -2.73281,6.86864 -2.8729,3.05807 -2.92407,3.60371 -1.65227,17.62048 0.98541,10.86052 2.49644,17.74847 6.06428,27.6436 2.61352,7.2484 5.59728,14.1484 6.63057,15.33333 1.0333,1.18492 4.06926,6.32466 6.74656,11.42162 2.67732,5.09696 5.82314,10.32278 6.99072,11.61294 1.36588,1.50928 1.82784,3.52116 1.29552,5.64211 -0.6351,2.53045 -0.22188,3.48853 1.77847,4.12343 2.53752,0.80537 21.70712,19.36417 28.61781,27.70597 1.89659,2.28933 3.44834,5.3167 3.44834,6.72749 0,2.13693 0.61198,2.40837 3.66666,1.62631 2.01667,-0.51632 6.82198,-1.1369 10.67847,-1.37907 5.64839,-0.35471 7.25885,0.0213 8.28237,1.93377 0.69883,1.30576 3.24351,3.16592 5.65489,4.13371 2.4113,0.96777 5.8152,2.85007 7.5641,4.18287 1.7489,1.3328 3.9989,2.42326 5,2.42326 1.0011,0 3.0633,1.24314 4.5827,2.76252 2.4651,2.46511 3.7212,2.66146 11.6667,1.82367 4.8972,-0.51639 10.4041,-1.5274 12.2374,-2.24671 1.8334,-0.7193 7.8334,-1.79016 13.3334,-2.37968 5.5,-0.58952 11.8,-2.01794 14,-3.17428 5.1631,-2.7138 13.0192,-2.69453 18.3167,0.0449 3.3084,1.71084 5.8761,1.9427 12.2671,1.10766 11.3835,-1.48734 20.428,-1.02294 26.3685,1.35395 6.3971,2.55963 16.04737,2.62707 20.84577,0.14568 6.3966,-3.3078 46.7277,-2.49543 50.6705,1.02064 3.6943,3.29455 12.1487,4.70517 28.2374,4.71143 8.4549,0.003 16.9251,0.59624 18.8226,1.31766 4.0431,1.53718 11.501,0.14372 15.9649,-2.98292 3.84,-2.68965 7.0466,-2.75241 10.9211,-0.21376 2.0015,1.31146 7.6219,2.11336 17.0307,2.42994 7.7238,0.25986 14.816,0.95006 15.7604,1.53378 1.8172,1.12306 1.5188,4.09806 -1.3747,13.70719 -1.4667,4.87095 -1.39,6.26756 0.5704,10.37856 1.2459,2.61263 2.2653,7.70879 2.2653,11.32479 0,5.25 -0.5473,6.8674 -2.7164,8.0283 -2.123,1.1362 -2.649,2.5946 -2.4081,6.6772 0.1695,2.873 0.042,5.4385 -0.2837,5.7012 -0.3255,0.2627 -3.471,2.0531 -6.99,3.9786 -4.9409,2.7037 -7.1194,3.2268 -9.5652,2.297 -1.8935,-0.72 -7.8996,-0.7063 -14.9352,0.034 -6.4725,0.6809 -14.942,1.2487 -18.8212,1.2617 -4.5049,0.015 -9.0457,1.0402 -12.5682,2.8373 -3.9949,2.038 -7.081,2.6371 -11.1955,2.1734 -3.1242,-0.3522 -8.7252,0.1495 -12.4466,1.1148 -6.3771,1.6542 -7.1296,1.5673 -13.0848,-1.5122 -4.5783,-2.3676 -8.7053,-3.3264 -14.9851,-3.4815 -14.1321,-0.349 -40.6217,2.4554 -45.1083,4.7755 -5.7376,2.967 -8.08917,2.6474 -9.59137,-1.3037 z m 1767.24097,-7.7518 c -20.2044,-9.6316 -40.172,-19.7075 -42.208,-21.2986 -3.5226,-2.7527 -3.4203,-31.73073 0.132,-37.55653 1.3506,-2.21489 2.8546,-6.15324 3.3421,-8.75189 1.0361,-5.52319 7.7811,-12.60656 13.2997,-13.96703 2.0759,-0.51176 4.09,-1.75327 4.476,-2.7589 1.3443,-3.50332 13.7356,-2.27027 22.5056,2.2395 13.9518,7.17441 37.2736,10.12252 44.2904,5.59873 9.5259,-6.14137 19.3116,-15.89115 24.9536,-24.86195 2.2,-3.49799 6.2255,-9.76004 8.9455,-13.91568 2.72,-4.15563 5.9496,-9.5293 7.1768,-11.94148 1.2272,-2.41219 4.844,-7.29162 8.0371,-10.84319 5.2194,-5.80523 5.9462,-7.44956 7.197,-16.28088 0.7652,-5.40292 2.0487,-12.22348 2.8523,-15.15681 0.8036,-2.93334 1.4256,-6.97754 1.3824,-8.98712 -0.044,-2.04823 0.9591,-4.39182 2.2829,-5.33334 1.299,-0.92374 2.7863,-3.3943 3.3054,-5.49013 0.519,-2.09583 3.4102,-7.94583 6.4249,-13 4.1119,-6.89352 6.2101,-9.18941 8.3985,-9.18941 1.6044,0 3.9467,-1.13756 5.205,-2.52792 2.1808,-2.40977 2.0874,-2.756 -1.997,-7.40789 l -4.2846,-4.87999 1.6774,-11.27488 c 0.9226,-6.20119 1.2868,-12.83117 0.8094,-14.73329 -0.9778,-3.89579 2.156,-9.8427 5.1866,-9.8427 2.5802,0 3.2504,-3.99244 1.3432,-8 -0.8725,-1.83333 -1.9877,-5.55092 -2.4781,-8.26132 -0.7313,-4.04092 -0.4339,-5.17309 1.6525,-6.28964 5.1067,-2.73306 8.1099,-23.07476 4.8322,-32.72945 -1.7979,-5.29513 -1.8675,-6.61383 -0.3979,-7.527 1.0087,-0.62671 1.9747,-0.54708 2.2263,0.18348 0.2445,0.70983 1.2945,1.2906 2.3333,1.2906 2.1313,0 2.38,-4.59984 1.0245,-18.95058 -1.0124,-10.7254 -3.6877,-14.38275 -10.5204,-14.38275 -4.8661,0 -6.0413,-1.73572 -2.5124,-3.71065 3.0892,-1.72878 1.1236,-10.22626 -3.6132,-15.6213 -3.0942,-3.5241 -3.8224,-5.59685 -3.8224,-10.88073 0,-4.02268 -0.8826,-7.78741 -2.3001,-9.81127 -1.3237,-1.88986 -2.3936,-6.11946 -2.52,-9.96333 -0.1213,-3.67367 -0.5012,-7.57939 -0.8449,-8.67939 -0.3438,-1.1 -1.3098,-4.1426 -2.1467,-6.76133 -0.8369,-2.61873 -1.5216,-6.67167 -1.5216,-9.00653 0,-2.33487 -1.5,-7.35456 -3.3333,-11.15488 -1.8334,-3.80031 -3.3334,-7.61646 -3.3334,-8.48031 0,-0.86387 -1.111,-3.00157 -2.469,-4.75047 -1.6778,-2.16082 -2.71,-6.38435 -3.2211,-13.17981 -0.5035,-6.69422 -1.8868,-12.42422 -4.1847,-17.33333 -1.8878,-4.03333 -3.4384,-8.90987 -3.4454,-10.83675 -0.013,-1.92686 -0.9131,-4.25033 -2.0131,-5.16325 -1.1,-0.91292 -2,-2.37369 -2,-3.24616 0,-3.51139 -5.6123,-12.88024 -9.3879,-15.67169 -2.3045,-1.70376 -3.7162,-3.75628 -3.3106,-4.81327 0.3889,-1.01355 -0.3242,-3.58868 -1.5847,-5.72252 -2.1491,-3.6382 -2.1525,-4.11528 -0.056,-7.66467 1.6975,-2.87373 1.8631,-4.15773 0.6875,-5.33333 -2.262,-2.26189 -4.751,-1.89219 -5.2848,0.78497 -0.3156,1.58299 -1.419,0.3757 -3.4311,-3.75429 -1.6312,-3.3482 -2.9659,-6.70521 -2.9659,-7.46003 0,-0.75481 -1.1325,-2.39728 -2.5166,-3.64992 -1.8362,-1.66173 -2.7748,-5.032 -3.4712,-12.4646 l -0.9547,-10.18705 -8.1792,-7.40872 c -4.4987,-4.0748 -10.1965,-9.35872 -12.6621,-11.74205 -2.4655,-2.38333 -4.804,-4.33333 -5.1966,-4.33333 -0.9958,0 -5.9257,-5.44366 -8.5038,-9.39011 -1.3598,-2.08153 -4.4367,-3.90393 -8.3658,-4.95477 l -6.2148,-1.66222 2.0324,-3.93024 c 1.1375,-2.19961 2.0308,-7.3353 2.0287,-11.66312 -0.013,-17.49025 7.9012,-22.88521 32.2757,-22.0148 10.6636,0.38079 13.0754,0.8565 13.7155,2.70531 0.9647,2.78628 9.3411,8.24328 12.6531,8.24328 2.9617,0 9.3594,7.24961 9.3594,10.60571 0,1.32061 0.9386,3.18005 2.0858,4.13209 1.2949,1.07467 1.8,2.86955 1.332,4.7338 -0.625,2.49015 0.4038,3.75283 6.026,7.39589 6.4468,4.17739 6.743,4.62398 6.033,9.09612 -2.63,16.5672 -2.847,15.11383 3.0042,20.11039 2.958,2.52597 7.2098,5.98831 9.4486,7.69408 2.2387,1.70577 4.0704,4.28557 4.0704,5.73288 0,4.43057 3.4312,9.55501 10.5416,15.74388 3.7355,3.25133 6.7918,6.75876 6.7918,7.79428 0,1.03552 0.8649,3.47534 1.922,5.42182 1.057,1.94648 3.103,6.83906 4.5466,10.87239 1.4436,4.03333 3.5751,9.13333 4.7366,11.33333 1.1614,2.2 2.1154,4.60567 2.1198,5.34594 0,0.74026 1.1136,2.03622 2.4646,2.8799 2.0717,1.29383 2.5876,3.98562 3.2956,17.19452 0.7401,13.81192 1.2372,16.23479 4.2104,20.5251 1.854,2.6755 3.371,5.33766 3.371,5.9159 0,0.57826 1.2,2.57692 2.6667,4.44148 2.1733,2.76295 2.6667,5.40904 2.6667,14.30319 0,9.97885 0.2853,11.16118 3.3333,13.81137 1.8333,1.59407 3.3333,4.06183 3.3333,5.48393 0,1.4221 1.2,2.9665 2.6667,3.432 2.1227,0.67372 2.6667,2.01738 2.6667,6.58703 0,5.78101 4.156,17.19464 6.8724,18.87343 0.9302,0.57496 1.1888,3.56106 0.71,8.20042 -0.4142,4.0129 -0.1966,14.12396 0.4836,22.46902 1.0085,12.37366 1.7314,15.66762 3.9186,17.8548 3.0075,3.00745 3.1412,4.00109 2.7286,20.26678 -0.2084,8.21052 0.2878,12.67665 1.7037,15.33333 1.0988,2.0617 2.6529,7.70916 3.4536,12.54995 1.2793,7.73439 1.1329,9.73985 -1.2073,16.54207 -1.4648,4.25734 -2.6632,9.60238 -2.6632,11.87784 0,2.5568 -0.927,4.71612 -2.4267,5.65268 -1.6247,1.01466 -3.0263,4.6935 -4.2412,11.13269 -1.6291,8.63364 -1.5961,9.73955 0.3224,10.8132 3.2996,1.84659 4.1685,8.41083 1.7804,13.45093 -1.8192,3.83923 -2.9912,19.79447 -3.3593,45.72916 -0.021,1.46667 -0.724,5.06667 -1.5628,8 -3.555,12.43317 -5.4939,16.38189 -8.7788,17.87859 -2.6562,1.2102 -3.1662,2.14989 -2.4387,4.49252 2.56,8.24334 2.6487,8.06601 -8.5031,17.01129 -8.1272,6.51911 -10.5593,9.20393 -9.9876,11.02541 0.4156,1.3243 0.3347,7.46216 -0.18,13.63971 -0.7714,9.26229 -1.5013,11.84241 -4.1621,14.71345 -1.7747,1.91486 -4.1943,4.95842 -5.3771,6.76347 -2.007,3.06323 -1.9758,3.52157 0.4676,6.87873 4.4864,6.16392 4.5443,6.60744 1.366,10.48394 -6.343,7.73655 -15.3577,26.60931 -17.4641,36.56211 -0.7688,3.63298 -8.9729,13.21744 -11.3137,13.21744 -2.4598,0 -32.6242,17.89502 -39.9276,23.68702 -3.9159,3.1055 -7.6902,5.6463 -8.3874,5.6463 -0.6972,0 -2.8933,1.1225 -4.8802,2.4945 -5.8186,4.0175 -17.9527,6.2252 -24.0972,4.3843 -6.2016,-1.8581 -14.3726,-1.9921 -19.6499,-0.3224 -8.6929,2.7505 -10.828,2.7019 -17.3243,-0.395 z m -1505.5394,-14.2983 c -1.501,-0.5553 -3.0903,-1.5941 -3.5319,-2.3085 -0.4415,-0.7144 -5.1529,-3.5277 -10.4697,-6.2517 -5.3169,-2.724 -11.5327,-6.3478 -13.8131,-8.0528 -3.9683,-2.96723 -4.1022,-3.3774 -3.1235,-9.56875 2.4474,-15.48187 12.7942,-31.31264 24.2876,-37.16041 2.3734,-1.20759 6.009,-4.21882 8.0791,-6.6916 2.07,-2.47279 4.62,-4.49599 5.6666,-4.49599 1.0466,0 1.903,-0.6 1.903,-1.33333 0,-2.21711 -3.7733,-1.49516 -5.2266,1 -1.1713,2.01108 -1.3646,1.84664 -1.3996,-1.19068 -0.022,-1.93821 0.8595,-3.86937 1.9595,-4.29149 1.1,-0.42211 2,-1.70763 2,-2.8567 0,-1.18032 2.4653,-3.1673 5.6667,-4.56729 3.1166,-1.36293 8.3666,-5.2856 11.6666,-8.71705 3.3,-3.43144 7.9138,-7.04923 10.2528,-8.03954 2.3391,-0.99032 6.8391,-4.16805 10,-7.06164 3.161,-2.8936 7.0958,-5.67934 8.7441,-6.19054 1.7077,-0.52963 3.3745,-2.43374 3.8746,-4.42626 0.4827,-1.92322 2.8841,-5.50324 5.3364,-7.95557 2.4523,-2.45233 4.4588,-4.9764 4.4588,-5.60904 0,-1.12587 7.3552,-8.50947 21.4827,-21.56555 3.8854,-3.59076 8.127,-6.52865 9.4258,-6.52865 1.2988,0 8.5258,-6.34329 16.0599,-14.09621 7.534,-7.75292 15.7983,-14.9755 18.3649,-16.05015 5.1334,-2.14933 11.7544,-8.7388 16.7803,-16.70022 1.7892,-2.83438 3.8456,-5.15342 4.5697,-5.15342 2.158,0 1.6072,-15.43237 -0.6166,-17.27797 -2.0479,-1.6996 -5.2531,-8.01984 -10.1707,-20.05536 -3.4524,-8.44961 -8.36,-14.35281 -12.4131,-14.93133 -2.1074,-0.30082 -2.8553,-1.40879 -2.9713,-4.402 -0.2043,-5.27118 -7.2963,-19.21248 -11.6957,-22.99119 -3.8678,-3.322 -4.453,-8.12728 -2.0456,-16.79689 1.6522,-5.95018 -1.0966,-14.78855 -5.575,-17.92531 -1.432,-1.003 -3.6366,-3.79609 -4.8994,-6.20688 -1.2627,-2.41078 -3.9222,-6.71496 -5.9098,-9.56482 -2.6465,-3.79472 -4.1427,-8.46274 -5.5898,-17.44063 l -1.9761,-12.25907 10.6915,-10.4076 c 5.8803,-5.72418 11.6943,-10.97053 12.9199,-11.65856 3.8564,-2.16481 27.1636,-2.15612 30.5215,0.012 1.6242,1.04843 3.903,1.90623 5.064,1.90623 2.6116,0 8.5502,6.55684 8.6074,9.50341 0.023,1.19354 0.9422,2.917 2.0422,3.82992 2.6316,2.18407 2.5238,4.72674 -0.5835,13.75836 l -2.5836,7.50916 3.5836,1.71207 c 2.1857,1.04429 3.7575,3.00731 4.0297,5.03291 0.2454,1.82645 0.9954,3.89084 1.6667,4.5875 0.6712,0.69667 1.2204,2.64667 1.2204,4.33334 0,1.68666 0.6128,3.06666 1.3619,3.06666 0.749,0 2.065,1.65 2.9245,3.66667 0.8595,2.01667 2.2431,4.56667 3.0747,5.66667 0.8317,1.1 2.2128,4.4599 3.069,7.46646 0.8564,3.00658 3.5723,8.10657 6.0354,11.33333 2.463,3.22678 4.9356,7.36687 5.4945,9.2002 1.2312,4.03848 6.4403,11.1369 12.4752,17 6.3696,6.18822 11.2137,5.88743 18.3751,-1.14097 5.6858,-5.58017 8.5266,-7.54212 16.1673,-11.16523 2.3711,-1.1243 7.7289,-5.3024 11.9065,-9.28465 4.1775,-3.98224 9.1376,-7.62288 11.0224,-8.09031 4.3492,-1.0786 9.4268,-5.76731 9.4268,-8.70478 0,-1.23993 1.2,-3.77999 2.6667,-5.64455 1.4667,-1.86456 2.6667,-4.36056 2.6667,-5.54664 0,-1.18609 4.7357,-6.79146 10.5237,-12.4564 11.7107,-11.46156 14.0431,-12.5133 34.6005,-15.60189 l 12.4576,-1.87167 4.5868,4.58688 c 2.5228,2.52279 5.1368,4.58688 5.809,4.58688 0.6721,0 3.8892,1.8 7.1489,4 3.2597,2.2 6.5089,4 7.2204,4 0.7113,0 2.8573,1.2302 4.7689,2.73378 1.9115,1.50357 4.2424,2.58594 5.1798,2.40526 2.7009,-0.52058 7.7044,1.56012 7.7044,3.20388 0,3.78359 -3.1798,18.15078 -5.0047,22.6124 -1.4324,3.50213 -1.8315,7.68476 -1.3608,14.26252 l 0.666,9.3072 -9.2911,8.40415 c -6.4085,5.7968 -11.7648,9.32156 -17.2646,11.36122 -5.0716,1.8809 -9.8724,4.9137 -13.1911,8.33334 -2.8696,2.95693 -6.3684,5.37625 -7.7751,5.37625 -3.9641,0 -13.3061,4.68653 -22.187,11.13048 -4.4412,3.22256 -9.5412,6.29789 -11.3334,6.83408 -1.792,0.53617 -7.7582,5.30427 -13.2582,10.59576 -5.5,5.29149 -12.198,11.22104 -14.8846,13.17677 -7.6534,5.57156 -8.8313,7.14815 -8.12,10.86892 0.3599,1.88278 2.5255,4.99764 4.8123,6.92192 3.3609,2.82806 4.1945,4.58371 4.3485,9.15915 0.15,4.45584 1.4306,7.2963 6.0171,13.34717 7.2168,9.5206 11.8267,17.62639 11.8267,20.79521 0,1.32552 1.2426,3.07512 2.7616,3.88799 2.1037,1.12589 2.7081,2.64572 2.5374,6.38025 -0.5304,11.60408 -0.061,13.46634 4.3358,17.22535 2.3657,2.02232 7.9666,7.12695 12.4465,11.34361 5.322,5.00939 9.2717,7.66667 11.3956,7.66667 1.7879,0 6.2368,1.95 9.8868,4.33333 3.65,2.38334 8.1363,5.1142 9.9696,6.06859 8.3091,4.32555 11.9093,6.47139 15.4873,9.23116 2.1154,1.63152 7.0412,5.43116 10.9463,8.44364 5.3299,4.11143 6.8584,6.03156 6.1303,7.70025 -2.4524,5.61939 -2.1943,10.68155 0.6348,12.44832 1.5406,0.96223 2.8013,2.77589 2.8013,4.03039 0,4.86261 -4.0992,17.68214 -6.4952,20.31249 -3.422,3.75669 -8.1715,14.97337 -8.1715,19.29811 0,2.61736 -1.1262,4.13392 -4.3661,5.87862 -6.1651,3.3201 -14.6125,11.3382 -13.6264,12.9338 1.5204,2.4601 -3.5617,3.0748 -12.2244,1.4787 -12.5371,-2.3101 -28.4043,-11.5333 -38.8375,-22.57543 -9.425,-9.97527 -10.9456,-12.79373 -10.9456,-20.28904 0,-3.91523 -1.0225,-6.36471 -4.1381,-9.9132 -2.276,-2.59219 -4.976,-4.71307 -6,-4.71307 -1.024,0 -1.8619,-0.58857 -1.8619,-1.30793 0,-0.71936 -1.5185,-1.68907 -3.3745,-2.15489 -1.936,-0.4859 -5.8587,-4.07519 -9.2015,-8.41928 -3.2046,-4.16477 -6.8774,-8.44435 -8.1617,-9.51019 -1.2843,-1.06582 -4.7036,-5.14425 -7.5987,-9.06316 -2.895,-3.9189 -7.3037,-8.32888 -9.797,-9.79994 -5.1435,-3.03475 -5.7548,-6.22583 -1.8666,-9.7446 3.4295,-3.10364 3.3838,-6.27107 -0.1365,-9.45687 -1.5417,-1.39527 -3.722,-4.33825 -4.8451,-6.53999 -1.1232,-2.20173 -4.2117,-6.48621 -6.8636,-9.52108 -2.6517,-3.03486 -6.0214,-7.50546 -7.4881,-9.93465 -5.0001,-8.28161 -18.2785,-13.44225 -24.7503,-9.61924 -4.1857,2.47256 -7.9164,8.29976 -7.9164,12.3652 0,5.33787 -2.4484,8.03996 -7.285,8.03996 -2.4884,0 -5.3174,0.757 -6.2864,1.68221 -0.9691,0.92523 -3.4695,2.43858 -5.5564,3.36302 -5.3532,2.37118 -12.8722,8.31028 -12.8722,10.16746 0,2.30748 -18.3212,19.8249 -19.7869,18.91896 -1.9199,-1.18652 -13.0223,5.52591 -17.0228,10.29183 -1.9589,2.33375 -5.8489,5.44319 -8.6444,6.90985 -2.7954,1.46667 -8.3565,5.74824 -12.358,9.5146 -4.0015,3.76636 -7.9017,7.06636 -8.6671,7.33333 -0.7653,0.26698 -11.0206,9.71444 -22.7895,20.99438 l -21.3979,20.50836 v 9.1577 c 0,8.3061 -0.2511,9.1577 -2.6997,9.1577 -1.6438,0 -3.1892,1.2875 -3.9513,3.292 -1.1314,2.9757 -1.9417,3.2738 -8.4348,3.103 -3.9507,-0.104 -8.4113,-0.6433 -9.9123,-1.1986 z m 550.3562,-14.6412 c -3.9912,-1.4055 -8.1795,-2.2826 -9.3074,-1.9491 -3.8386,1.1352 -9.2733,-4.95613 -11.2909,-12.65538 -1.05,-4.00624 -3.7388,-11.76663 -5.9753,-17.24532 -2.9443,-7.21208 -4.3108,-13.1968 -4.9516,-21.68482 -0.6429,-8.51694 -1.554,-12.49505 -3.3312,-14.54417 -1.3456,-1.55134 -2.1531,-3.29514 -1.7947,-3.87509 0.3584,-0.57996 -0.7206,-2.15251 -2.3978,-3.49457 -2.6698,-2.13618 -3.0828,-3.76866 -3.3155,-13.10676 -0.1463,-5.86667 -0.5116,-15.46667 -0.812,-21.33334 -1.1333,-22.13128 -1.1081,-25.42316 0.2199,-28.77796 1.7264,-4.36114 0.3072,-6.70997 -3.7754,-6.24853 -4.0808,0.46123 -5.2748,-3.65189 -1.3574,-4.67629 2.3489,-0.61428 2.7312,-1.77579 2.7312,-8.2999 0,-5.2065 -0.7718,-8.69568 -2.4606,-11.12482 -1.3533,-1.94654 -3.4088,-7.37827 -4.5677,-12.07051 -2.2697,-9.19014 -1.6375,-11.62953 4.6275,-17.85393 1.5697,-1.55953 2.4008,-4.36877 2.4008,-8.11496 0,-5.30365 -0.5,-6.11771 -6.7252,-10.94805 -13.1406,-10.19634 -14.6082,-11.46926 -14.6082,-12.67023 0,-0.66815 1.2298,-1.21481 2.733,-1.21481 3.8266,0 10.2641,-3.54692 11.8644,-6.53722 1.5426,-2.88234 -0.1358,-29.5763 -2.3972,-38.12945 -1.3483,-5.09897 -1.2079,-5.54087 3.1948,-10.05621 3.9441,-4.04499 4.605,-5.63339 4.605,-11.06622 0,-3.48884 -0.8246,-7.96353 -1.8324,-9.94378 -2.0064,-3.94212 -3.5592,-16.02519 -4.3181,-33.60045 -0.2691,-6.23334 -0.5539,-12.23334 -0.6328,-13.33334 -0.079,-1.1 0.2969,-4.27057 0.8352,-7.04573 0.7155,-3.68909 0.3241,-6.497 -1.4555,-10.44344 -2.1145,-4.68924 -2.2332,-6.35513 -0.904,-12.69204 1.3007,-6.20129 1.1994,-7.9878 -0.6768,-11.92203 -2.1525,-4.514 -2.1137,-4.81526 1.5831,-12.26222 2.0845,-4.199 5.0421,-9.02188 6.5727,-10.71752 3.5978,-3.98604 3.0357,-10.42106 -1.312,-15.01908 -2.857,-3.02137 -3.2254,-4.56172 -3.0564,-12.78083 0.1053,-5.13998 -0.4818,-10.60461 -1.3054,-12.14361 -2.1137,-3.94945 -1.8621,-7.94495 0.7822,-12.42136 3.005,-5.08723 0.8589,-7.78073 -3.8039,-4.77396 -1.7916,1.15532 -8.0144,2.40032 -14.4759,2.89621 -6.2333,0.47839 -14.6333,1.7994 -18.6666,2.93559 -4.0334,1.13619 -11.5334,2.20427 -16.6667,2.37352 -5.1333,0.16925 -14.1333,0.73936 -20,1.26691 -5.8667,0.52754 -15.7667,0.3593 -22,-0.37386 -9.4815,-1.1152 -11.6927,-1.00945 -13.5325,0.6472 -6.0666,5.46224 -33.6007,7.5164 -59.1342,4.41163 -6.6,-0.80255 -21.6,-1.91283 -33.3333,-2.46731 -12.4233,-0.58709 -23.0315,-1.74098 -25.3992,-2.76278 -3.1969,-1.37971 -7.7555,-1.48355 -21.3333,-0.48599 l -17.2675,1.26863 -4.3577,-3.7247 c -2.3968,-2.04858 -5.8468,-4.03336 -7.6667,-4.41062 -1.82,-0.37727 -4.798,-0.99463 -6.618,-1.37192 -1.9961,-0.4138 -4.176,-2.39763 -5.4941,-5 -1.2018,-2.37271 -2.9391,-5.21402 -3.8607,-6.31402 -0.9216,-1.1 -2.0384,-5 -2.4817,-8.66666 -0.4434,-3.66667 -1.1647,-8.47716 -1.6028,-10.68999 -0.7234,-3.65356 0.2402,-5.09339 10.4854,-15.66667 l 11.2822,-11.64334 17.157,0.0141 17.1571,0.0141 4.5205,4.65247 c 3.2258,3.31983 5.7083,4.66145 8.6667,4.68385 2.2804,0.0172 8.6056,1.21726 14.056,2.66667 12.0632,3.20795 27.3099,3.40944 38.1433,0.50408 6.3055,-1.691 12.1883,-1.98825 28.4824,-1.43917 18.5038,0.62354 21.0084,0.43862 25.3136,-1.8688 2.6279,-1.40846 5.4634,-2.56083 6.3011,-2.56083 0.8377,0 2.2423,-0.86633 3.1209,-1.9252 1.1812,-1.42313 3.3258,-1.72055 8.2239,-1.14044 3.6444,0.43163 7.9488,0.16729 9.5655,-0.5874 1.6166,-0.75468 7.6594,-1.98037 13.4282,-2.72375 6.9042,-0.88968 11.7843,-2.30934 14.2794,-4.15406 3.1508,-2.32952 5.699,-2.80248 15.0992,-2.80248 6.2197,0 11.6794,-0.6 12.1326,-1.33334 0.4532,-0.73333 4.1126,-1.33333 8.1319,-1.33333 4.7351,0 9.1932,-0.96192 12.6637,-2.73245 2.9459,-1.50284 6.458,-2.3827 7.805,-1.95523 3.8885,1.23419 13.1061,-10.41549 14.2164,-17.96734 0.486,-3.3064 1.701,-7.19515 2.7001,-8.64166 1.1776,-1.70513 1.8163,-6.542 1.8163,-13.75432 0,-6.11837 0.6693,-12.37493 1.4873,-13.90348 0.8181,-1.52854 2.0449,-7.3391 2.7263,-12.91234 0.8509,-6.95962 1.9849,-10.75955 3.6209,-12.13318 3.0228,-2.53788 5.9192,-12.53338 4.75,-16.39221 -0.49,-1.61761 -2.0827,-4.24435 -3.5392,-5.83717 -2.1228,-2.32144 -2.4705,-3.94788 -1.7525,-8.19743 0.5141,-3.04308 0.2118,-7.58372 -0.7096,-10.65913 -1.434,-4.7865 -1.3019,-5.84844 1.2392,-9.95995 1.7542,-2.83844 2.853,-6.84133 2.867,-10.44481 0.013,-3.21345 1.2274,-10.34263 2.6995,-15.84263 3.4388,-12.8472 4.7235,-30.73108 2.8389,-39.5186 -1.2869,-6.00052 -1.047,-8.28962 2.0235,-19.3111 1.9159,-6.87699 3.7605,-14.90363 4.0993,-17.83696 0.3388,-2.93334 1.2751,-6.14732 2.0806,-7.1422 1.7957,-2.2178 4.5162,-6.83428 5.6126,-9.52447 1.9987,-4.90369 3.0802,-6.11556 7.0565,-7.90729 2.3282,-1.049 4.214,-2.549 4.1908,-3.33333 -0.023,-0.78432 -2.6394,-3.00084 -5.8139,-4.92559 -5.7198,-3.468 -5.7636,-3.55216 -4.8618,-9.33333 0.5006,-3.20859 1.9168,-7.75399 3.1474,-10.10091 2.517,-4.80101 2.8966,-9.16792 0.9038,-10.39955 -1.7736,-1.09612 -1.7154,-10.93976 0.071,-12.04389 0.7724,-0.47737 2.9404,-4.26279 4.8177,-8.41203 3.6435,-8.05227 4.4699,-17.84735 1.9096,-22.63133 -1.0769,-2.01232 -1.0628,-6.35467 0.053,-16.165411 1.4587,-12.829475 1.664,-13.413869 4.7122,-13.413869 1.8148,0 3.5614,-1.00458 4.0569,-2.333333 0.4785,-1.283333 4.844,-6.249161 9.7011,-11.035174 4.857,-4.786012 9.2278,-9.736012 9.7129,-11 0.4851,-1.263987 2.2508,-2.365228 3.9237,-2.447203 1.6731,-0.08197 4.9624,-0.372305 7.3098,-0.64518 4.5668,-0.530878 7.3018,1.608894 3.7826,2.959352 -1.6841,0.646228 -1.7906,1.208019 -0.52,2.739207 1.1648,1.403402 4.1282,1.844209 10.9176,1.624005 8.7684,-0.284389 9.6236,-0.04637 14.478,4.029168 l 5.1592,4.331411 -0.4906,14.222207 c -0.4399,12.74758 -0.7554,14.27057 -3.0427,14.68865 -1.4036,0.25654 -3.752,1.53636 -5.2187,2.84403 -1.4666,1.30768 -4.4666,3.33759 -6.6666,4.51091 -6.8423,3.64914 -11.0055,8.00435 -11.9604,12.51195 -0.5051,2.38333 -1.4474,4.33333 -2.0942,4.33333 -0.6468,0 -1.7966,2.30472 -2.555,5.1216 -0.7586,2.81687 -2.6139,6.23893 -4.1228,7.60457 -2.7663,2.50347 -2.793,3.39347 -0.4735,15.85042 0.2639,1.41711 -0.4845,5.31711 -1.6632,8.66667 -1.4552,4.13537 -2.2019,11.22553 -2.3265,22.09008 -0.147,12.81058 -0.644,16.65715 -2.4939,19.29667 -1.2708,1.81316 -2.3143,4.51316 -2.3188,6 0,1.48683 -0.9044,4.42191 -2,6.5224 -1.0955,2.1005 -1.9917,7.02938 -1.9917,10.95308 0,5.76942 -0.5102,7.407 -2.6667,8.56118 -1.4667,0.78493 -2.6667,2.56318 -2.6667,3.95168 0,1.38848 -0.9324,3.45686 -2.0718,4.5964 -1.7422,1.74204 -1.8483,3.28206 -0.6667,9.67345 2.2309,12.06827 1.804,45.65445 -0.6687,52.61083 -1.7149,4.82454 -1.8154,7.21889 -0.5808,13.8343 1.053,5.64103 1.11,12.52136 0.1939,23.33333 -0.7147,8.43334 -0.9727,19.68462 -0.5733,25.00286 0.6644,8.84621 0.4329,10.09498 -2.7174,14.66666 -4.2809,6.21259 -5.8032,16.26634 -3.5133,23.20467 1.4196,4.30173 1.3519,5.93409 -0.4359,10.48503 l -2.1173,5.39009 5.1772,3.42609 c 4.5813,3.03174 5.9904,3.31592 12.2423,2.46902 3.8858,-0.5264 8.5652,-1.69558 10.3985,-2.59819 1.8333,-0.90261 6.6333,-1.76579 10.6667,-1.91817 4.0333,-0.15239 8.6622,-1.14354 10.2864,-2.20256 1.6242,-1.05902 3.8742,-1.9255 5,-1.9255 1.1258,0 3.2469,-1.2 4.7136,-2.66666 3.3052,-3.30518 11.0384,-3.49154 21.3333,-0.51412 4.9436,1.42973 14.5027,2.2803 29.3333,2.61005 12.1,0.26903 26.0755,0.78465 31.0566,1.14581 7.8344,0.56804 9.3588,0.30366 11.2962,-1.95921 1.232,-1.43872 3.2135,-2.61587 4.4036,-2.61587 1.19,0 3.2496,-1.2 4.577,-2.66666 3.2561,-3.59795 7.5329,-3.35646 11.8784,0.67073 3.7125,3.44065 4.5098,3.49429 18.6721,1.25617 2.478,-0.39161 4.7775,0.19499 6.3528,1.62059 1.3579,1.22889 3.5207,2.31184 4.8063,2.40655 1.2854,0.0947 3.2268,0.73022 4.3138,1.41226 2.0608,1.29294 16.1324,2.60512 46.6432,4.34952 12.9051,0.73783 19.2079,1.67848 22.2671,3.32331 2.3469,1.26181 6.6616,2.2942 9.588,2.2942 2.9265,0 5.6684,0.56231 6.0932,1.24957 0.4247,0.68726 4.5101,3.07047 9.0787,5.296 4.5685,2.22555 11.8358,7.30966 16.1497,11.29803 l 7.8435,7.25157 -2.4283,6.75283 c -2.33,6.47944 -2.3337,7.15401 -0.092,16.66284 l 2.3363,9.91002 -3.418,6.74524 c -1.88,3.70988 -3.4182,7.83712 -3.4182,9.17163 0,2.34009 -10.093,10.86208 -15.0832,12.73528 -2.0392,0.76551 -2.2764,1.84127 -1.5193,6.89035 0.8073,5.38293 0.4213,6.70036 -3.8475,13.13144 -7.7529,11.68041 -23.5532,27.40305 -28.5201,28.38006 -2.3668,0.46558 -4.9903,1.6742 -5.8299,2.68582 -1.871,2.25446 -5.5793,2.32033 -14.5146,0.25781 -5.8416,-1.3484 -7.832,-2.71341 -13.5044,-9.26105 l -6.653,-7.67954 -1.4901,-16.40562 c -1.7893,-19.69926 -3.7423,-23.74272 -11.462,-23.73235 -5.0809,0.007 -15.6081,-2.97709 -21.7816,-6.17393 -1.9465,-1.00798 -4.3631,-1.83267 -5.3704,-1.83267 -1.0072,0 -2.8587,-1.2 -4.1145,-2.66667 -1.9264,-2.24988 -3.9332,-2.66666 -12.8399,-2.66666 -8.9009,0 -11.6595,0.57213 -17.5875,3.64766 -6.968,3.61519 -7.2748,3.64864 -34.4562,3.75899 -17.8306,0.0724 -28.739,0.66213 -31.1792,1.68567 -5.127,2.15044 -18.177,1.90074 -22.2466,-0.42566 -5.9141,-3.3808 -19.8006,-1.62273 -30.3685,3.84472 -3.5285,1.82559 -6.2963,2.08543 -14.3955,1.3515 -9.9009,-0.89722 -10.0764,-0.85815 -13.9544,3.10848 -3.9042,3.99332 -3.9286,4.11701 -4.1146,20.88925 -0.1478,13.32031 0.2356,17.35639 1.821,19.17243 4.836,5.53949 6.5907,17.67925 3.111,21.52423 -3.5459,3.91826 -4.3962,15.75758 -1.6282,22.67518 1.2096,3.0234 2.2412,9.95073 2.3916,16.06024 0.2227,9.0531 -0.1186,11.02358 -2.1692,12.52305 -2.1005,1.53588 -2.3094,2.94791 -1.5269,10.3152 0.4988,4.69464 1.4403,14.23572 2.0924,21.20239 0.652,6.96666 1.9133,14.67134 2.8029,17.1215 1.1128,3.0651 1.2839,7.22464 0.5483,13.33334 -1.8272,15.17671 -1.4433,29.71166 0.9396,35.56659 1.3124,3.22452 2.56,11.73134 3.136,21.3834 0.8725,14.6177 0.7188,16.47238 -1.7452,21.06972 -2.2025,4.10952 -2.4529,5.82502 -1.3551,9.28327 1.1964,3.76828 2.2603,19.14803 2.2975,33.20959 0.013,2.73208 0.9063,6.33208 1.9979,8 1.0916,1.66792 2.41,5.73258 2.9297,9.03258 0.5197,3.3 2.1287,8.28448 3.5752,11.07664 2.0812,4.01667 2.4561,6.55888 1.796,12.17577 -0.6392,5.43784 -0.368,7.48623 1.1588,8.7533 1.1392,0.94548 1.9931,3.86098 1.9931,6.8053 0,4.54203 0.6377,5.57316 5.3929,8.71999 3.7289,2.46773 5.1441,4.21685 4.5868,5.66915 -0.4432,1.15517 -1.1485,5.76874 -1.5672,10.25237 -0.6533,6.99631 -0.4024,8.41636 1.7696,10.01643 3.5512,2.61604 6.5733,7.76612 7.5815,12.91974 0.5294,2.70636 3.17,6.6675 6.8885,10.33334 5.0805,5.00865 6.8561,5.94464 11.2769,5.94464 6.3752,0 8.1979,2.17746 3.3618,4.01616 -3.1783,1.20837 -3.4743,1.88141 -2.9238,6.64785 0.337,2.91684 1.3214,6.15722 2.1875,7.20086 2.22,2.67498 0.7639,12.58614 -2.35,15.99504 -1.6581,1.81523 -2.7665,5.39734 -3.1379,10.14008 -0.5472,6.99006 -0.9918,7.75275 -9.4997,16.29322 -4.9091,4.92793 -10.0831,9.57936 -11.4977,10.33646 -1.4147,0.757 -8.8864,1.3258 -16.604,1.2638 -7.7176,-0.062 -14.5162,0.1866 -15.1079,0.5523 -0.5917,0.3657 -4.3413,-0.485 -8.3325,-1.8906 z m 54.8637,-919.190226 c 0.3185,-1.887111 -0.3121,-2.644011 -2.2219,-2.666667 -4.6106,-0.05469 -6.6026,5.329629 -2.3333,6.307019 2.8721,0.657536 3.9791,-0.227111 4.5552,-3.640352 z M 1100.0869,889.02904 c -3.6667,-0.47949 -9.4472,-2.13053 -12.8456,-3.66897 -3.3984,-1.53844 -8.7984,-3.20295 -12,-3.69891 -3.2016,-0.49596 -8.7204,-1.82505 -12.2641,-2.95355 -4.5682,-1.45477 -8.8363,-1.79549 -14.6682,-1.17094 -5.8566,0.62718 -9.5686,0.32678 -12.8903,-1.04314 -2.5658,-1.05817 -9.6757,-2.35774 -15.7996,-2.88793 -11.1388,-0.96435 -11.7625,-1.20711 -25.14297,-9.78611 -4.2819,-2.74538 -5.7705,-2.99988 -12.2971,-2.10226 -4.084,0.56166 -8.0255,0.80878 -8.7588,0.54913 -0.7333,-0.25965 -7.6333,-0.61531 -15.3333,-0.79033 -17.4268,-0.39612 -31.6419,-2.1559 -41.8891,-5.18568 -6.2679,-1.85323 -10.9258,-2.1867 -22.6667,-1.62276 -8.1276,0.39038 -16.0697,1.11692 -17.649,1.61449 -2.1176,0.66719 -3.0763,0.25925 -3.6518,-1.55383 -1.0912,-3.43808 -5.3527,-5.79848 -11.58883,-6.41886 -3.77606,-0.37566 -7.17344,-2.08587 -11.74184,-5.91075 -6.29464,-5.27017 -6.41602,-5.51467 -5.83485,-11.75223 0.32644,-3.50356 0.0227,-10.56786 -0.67503,-15.69847 -1.40633,-10.3416 -0.2348,-15.90066 3.80682,-18.06366 1.92074,-1.02794 3.11736,-0.71424 5.19308,1.36148 4.21814,4.21815 7.72956,3.28891 6.8006,-1.79968 -0.1168,-0.63997 0.66824,-0.82562 1.74461,-0.41258 1.93065,0.74085 5.41159,-2.05316 4.14096,-3.32379 -0.36001,-0.36001 1.84608,-2.6642 4.90258,-5.1204 4.864,-3.90884 6.4021,-4.42689 12.3328,-4.15372 4.2328,0.19496 8.1625,1.30985 10.4708,2.97069 2.5143,1.80902 6.349,2.79272 12,3.07831 4.5677,0.23085 11.0049,1.34261 14.3049,2.47059 9.5038,3.2485 36.7638,5.2689 44.0143,3.26217 9.08,-2.51307 30.3477,-2.05761 35.5861,0.76211 2.34687,1.26328 7.03537,2.29686 10.41877,2.29686 3.9161,0 8.9067,1.30582 13.7329,3.59326 5.9436,2.81706 10.1014,3.70976 19.2479,4.13266 8.2997,0.38374 11.6667,1.0312 11.6667,2.24348 0,0.93724 0.8643,2.42146 1.9208,3.29824 1.0565,0.8768 2.1065,3.20027 2.3333,5.16327 0.4585,3.96707 0.9193,4.01365 16.4125,1.6592 6.9647,-1.0584 8.4675,-0.88408 11.6127,1.34708 1.987,1.40955 4.5016,2.56281 5.588,2.56281 1.0864,0 2.381,0.65651 2.8769,1.45889 0.4959,0.80239 2.3313,1.1856 4.0787,0.85156 1.9644,-0.3755 3.1771,0.0232 3.1771,1.04452 0,0.90851 0.9625,2.45066 2.1389,3.42698 1.1763,0.97632 2.6615,3.14978 3.3003,4.82992 1.0151,2.66992 2.0796,3.0548 8.4491,3.0548 4.0082,0 7.6299,0.55384 8.0483,1.23074 0.4183,0.67692 2.5123,1.61548 4.6532,2.08571 2.1409,0.47023 4.6075,1.71639 5.4813,2.76925 0.8738,1.05287 3.2152,1.9143 5.2032,1.9143 4.9508,0 5.6069,1.05074 3.3643,5.38754 -1.0569,2.04386 -2.3305,7.21779 -2.8302,11.49762 -0.8042,6.88896 -1.6865,8.65732 -7.6918,15.41716 -5.4034,6.08233 -7.6046,7.64196 -10.8203,7.66666 -2.3568,0.0181 -4.9873,1.1409 -6.3203,2.69768 -2.3858,2.78644 -2.8332,2.83298 -13.6427,1.41939 z m 1396.6666,-12.71512 c -4.9942,-2.88135 -9.3104,-4.70427 -11.1382,-4.70427 -0.8972,0 -3.985,-1.2 -6.8618,-2.66666 -2.8768,-1.46667 -6.0248,-2.66667 -6.9954,-2.66667 -0.9708,0 -3.0939,-0.82623 -4.7182,-1.83607 -2.6356,-1.63868 -24.0896,-7.36388 -30.953,-8.26016 -1.4667,-0.19152 -3.0012,-0.39821 -3.4102,-0.45933 -0.4088,-0.0611 -1.787,-2.47665 -3.0626,-5.36787 -2.3304,-5.28194 -6.8768,-9.74056 -15.518,-15.21806 -2.5616,-1.62376 -4.8827,-4.12216 -5.158,-5.552 -0.2755,-1.42984 -2.9796,-5.36251 -6.0094,-8.73927 -3.2361,-3.60686 -6.3177,-8.84037 -7.4701,-12.68672 -2.1075,-7.03426 -2.1212,-16.9362 -0.024,-17.65234 0.7061,-0.24118 2.6419,-1.55359 4.3016,-2.91647 2.4487,-2.01065 2.7391,-2.93377 1.5392,-4.89484 -0.8132,-1.32928 -2.9132,-2.41687 -4.6667,-2.41687 -2.619,0 -3.3149,0.8329 -3.8996,4.66667 l -0.7114,4.66667 -2.2886,-4.26712 c -1.2585,-2.34692 -2.2884,-5.1758 -2.2884,-6.28643 0,-1.11061 -1.233,-2.67923 -2.7401,-3.4858 -2.5115,-1.34407 -2.7141,-2.54459 -2.4279,-14.38024 0.1719,-7.10256 -0.1801,-15.50897 -0.7821,-18.68091 -0.9023,-4.75345 -0.5936,-6.6586 1.7557,-10.8386 2.6899,-4.78602 2.809,-6.32524 2.1159,-27.3507 -0.6821,-20.69176 -0.5393,-22.65383 2.0053,-27.5358 1.5163,-2.90903 2.7399,-7.80007 2.7399,-10.95207 0,-5.67226 0.029,-5.70552 7,-8.13414 9.286,-3.23499 10.6435,-5.02043 8.2223,-10.81499 -2.9306,-7.0138 -2.4876,-18.16799 0.8344,-21.0124 1.498,-1.28252 2.3392,-2.95368 1.8694,-3.71368 -0.4697,-0.76 0,-2.39401 1.057,-3.63113 1.051,-1.23714 2.6826,-4.19932 3.6257,-6.58266 0.9431,-2.38333 2.172,-4.33333 2.7308,-4.33333 0.5588,0 1.3956,-1.05 1.8596,-2.33333 1.2036,-3.32962 4.0108,-7.91704 6.5859,-10.76247 1.2182,-1.34613 2.2149,-3.07267 2.2149,-3.83675 0,-0.76409 5.1,-6.80696 11.3333,-13.4286 11.0711,-11.76075 11.3334,-12.19189 11.3334,-18.63243 0,-7.75543 2.6798,-11.00642 9.0728,-11.00642 2.3078,0 6.1605,-1.19776 8.5616,-2.66168 2.401,-1.46393 5.3816,-2.66393 6.6233,-2.66666 1.2417,-0.003 3.7009,-2.42514 5.4649,-5.3831 3.8714,-6.49196 11.918,-12.62326 18.2774,-13.92678 2.5666,-0.5261 7.0666,-2.32635 10,-4.00055 6.8974,-3.93675 15.5092,-5.38855 19.5668,-3.29864 1.7049,0.87812 4.7194,3.10635 6.6989,4.95163 3.0525,2.84564 4.4581,3.2398 9.258,2.59602 6.0699,-0.81416 9.1643,-3.60872 12.6369,-11.41288 1.407,-3.16188 2.6696,-4.29124 4.3164,-3.86061 1.4186,0.37097 4.098,-1.13804 6.8611,-3.86403 6.4959,-6.40874 12.9948,-5.74258 21.4035,2.19395 6.0706,5.72971 10.5224,9.13163 12.9634,9.90637 1.4964,0.47496 3.4484,1.74034 4.3378,2.81194 0.8894,1.0716 3.6225,1.94836 6.0736,1.94836 7.0485,0 8.5996,5.47662 5.1245,18.09456 -0.5933,2.15458 0.43,3.54898 4.6577,6.34681 8.9658,5.93323 12.4862,12.93303 13.1896,26.22529 0.443,8.37008 1.2506,12.16473 3.0891,14.51315 1.3691,1.74889 2.4893,3.91516 2.4893,4.81393 0,0.89877 1.5287,3.88669 3.397,6.63984 3.0741,4.52996 3.379,6.16336 3.2086,17.18607 -0.104,6.69918 0.2472,16.79445 0.7796,22.43393 0.7499,7.9416 0.4996,11.42475 -1.1101,15.44765 -2.282,5.70324 -2.772,18.15934 -1.4643,37.21576 0.7415,10.80364 0.5071,12.93967 -1.985,18.08763 -1.5542,3.21052 -2.8258,6.45488 -2.8258,7.20969 0,0.75481 -1.0992,2.36716 -2.4426,3.583 -1.9642,1.77749 -2.3258,3.62081 -1.8459,9.40821 0.5479,6.60566 0.3101,7.38555 -2.8907,9.48272 -2.2712,1.4882 -3.4874,3.4862 -3.4874,5.72923 0,1.89427 -0.722,8.43773 -1.6044,14.54103 -1.4271,9.86949 -1.3548,11.5195 0.6525,14.91766 2.5939,4.39104 2.2268,4.86384 -6.8223,8.78827 -5.1504,2.23365 -5.6825,2.87309 -4.9265,5.91985 2.0008,8.06398 1.7143,8.70746 -4.1939,9.41571 -7.7345,0.92721 -13.9486,6.59769 -13.5648,12.37815 0.425,6.39929 -9.8965,25.24269 -19.5118,35.62185 -4.4159,4.76666 -8.9288,8.53346 -10.0288,8.37066 -2.1156,-0.31312 -16.8995,6.51484 -22.8726,10.56364 -1.9465,1.31947 -4.5276,2.39903 -5.7358,2.39903 -1.2082,0 -4.4155,1.16543 -7.1275,2.58984 -15.2973,8.03472 -19.0903,9.40957 -25.9063,9.39051 -3.8634,-0.0107 -8.5245,-0.88506 -10.3578,-1.94275 z m -80.5665,-54.62848 c 1.0195,-4.06194 -0.1531,-6.07578 -3.5376,-6.07578 -2.1745,0 -2.4661,0.61572 -1.7369,3.66666 1.612,6.74384 3.9217,7.79885 5.2745,2.40912 z m 91.8579,-16.26332 c 0.7398,-1.36352 5.6426,-6.67913 10.8949,-11.81246 5.2524,-5.13334 11.1079,-12.27036 13.0123,-15.86006 1.9044,-3.58969 4.1309,-7.33205 4.9478,-8.31634 0.817,-0.98431 1.1339,-2.7055 0.7043,-3.82487 -0.5201,-1.35536 2.3361,-5.00172 8.5504,-10.91568 5.1321,-4.88425 9.6753,-10.25144 10.0959,-11.92707 0.4206,-1.67564 1.6058,-3.74468 2.6338,-4.59789 1.0282,-0.8532 1.8692,-2.9424 1.8692,-4.64267 0,-1.70025 0.6,-3.4622 1.3334,-3.91542 0.7333,-0.45323 1.3333,-1.76592 1.3333,-2.9171 0,-1.15117 2.1539,-4.47717 4.7865,-7.3911 3.5779,-3.96028 4.5664,-6.02112 3.915,-8.1616 -1.7892,-5.87864 -2.379,-14.19687 -1.0066,-14.19687 0.7563,0 2.6264,-2.1209 4.1559,-4.71313 2.4897,-4.21996 2.6141,-5.33613 1.1884,-10.66667 -1.2377,-4.62785 -1.2339,-7.29382 0.017,-11.97266 0.8855,-3.31052 1.6099,-9.69439 1.6099,-14.18635 0,-6.08973 0.5663,-8.58128 2.2263,-9.79505 1.8882,-1.38075 2.2658,-4.69694 2.4872,-21.84607 l 0.2612,-20.2182 -3.826,-3.21928 c -5.158,-4.34047 -11.8151,-19.00873 -11.8151,-26.03429 0,-3.9002 -1.8353,-9.30123 -6.1643,-18.14048 -3.3902,-6.92271 -6.5402,-12.81708 -7,-13.0986 -0.4596,-0.28151 -2.9357,-0.69001 -5.5024,-0.90779 -2.5666,-0.21777 -5.3494,-0.8949 -6.1841,-1.50476 -2.3087,-1.68702 -8.4461,1.69412 -9.308,5.12778 -0.8879,3.538 1.7557,12.50889 3.6863,12.50889 0.7264,0 0.1434,1.65332 -1.2954,3.67405 -1.5253,2.14208 -6.7058,5.53503 -12.4241,8.13711 -5.3944,2.45469 -11.5067,5.30136 -13.5827,6.32594 -4.6121,2.27616 -15.4102,2.4139 -22.5088,0.28711 -3.7046,-1.10997 -5.5241,-1.15427 -6.1546,-0.14985 -0.4924,0.78426 -3.2338,2.39973 -6.0919,3.58993 -2.8581,1.1902 -5.8581,3.01519 -6.6667,4.05553 -0.8085,1.04035 -2.97,2.08398 -4.8033,2.31919 -3.8888,0.49892 -5.2397,5.32736 -2.4357,8.70597 1.075,1.29532 1.7274,5.32034 1.663,10.25994 -0.091,6.98838 -1.046,9.99845 -6.8077,21.46174 -3.6859,7.33334 -7.1128,15.73334 -7.6152,18.66667 -0.5025,2.93333 -1.7339,7.13333 -2.7363,9.33333 -1.0022,2.2 -2.7196,6.4 -3.8162,9.33334 -1.0966,2.93333 -3.2468,8.433 -4.7784,12.22149 -4.4135,10.91697 -5.73,24.17613 -4.7138,47.47266 0.5044,11.56512 1.3878,21.31826 1.9627,21.67366 1.2752,0.78809 3.1957,10.9249 2.7857,14.70357 -0.1633,1.50593 0.9306,3.84893 2.4308,5.20665 1.5003,1.35774 2.7278,3.2189 2.7278,4.13592 0,3.08972 14.5342,30.30187 18.2634,34.19439 2.527,2.63749 4.5647,3.63892 6.4446,3.16709 1.512,-0.37949 4.5213,-0.12066 6.6872,0.57528 2.166,0.6959 10.526,1.04228 18.5777,0.76974 12.5944,-0.4263 14.8276,-0.84188 15.9851,-2.97466 z m 37.7086,-249.39823 c -2.5352,-0.66251 -3.144,-3.75583 -1,-5.08089 0.7334,-0.45323 1.3334,-0.18864 1.3334,0.58797 0,0.77661 1.8,1.41203 4,1.41203 4.2742,0 5.3733,1.85438 1.8909,3.19068 -2.2324,0.85664 -2.5473,0.85109 -6.2243,-0.10974 z m -120.542,77.48134 c 1.7048,-0.65421 1.609,-1.2317 -0.6326,-3.80976 -1.4532,-1.67128 -3.6583,-5.07252 -4.9004,-7.55833 -2.3227,-4.64865 -6.1694,-6.48303 -8.5671,-4.08539 -2.1907,2.19071 3.6307,12.7758 7.9687,14.48962 2.0204,0.7982 3.7744,1.5151 3.8977,1.59312 0.1227,0.078 1.1285,-0.20515 2.2337,-0.62926 z m 75.0599,-65.2289 c 0.4221,-1.1 1.5679,-2 2.5461,-2 3.0152,0 3.602,-2.62693 1.3535,-6.05864 -2.6121,-3.98679 -5.9479,-4.17543 -9.8327,-0.55608 -3.495,3.25611 -3.6414,4.93877 -0.7114,8.1764 2.6754,2.95643 5.6041,3.14961 6.6445,0.43832 z m 32.2599,-30.09859 c 0.2445,-0.6791 1.4445,-1.25382 2.6666,-1.27714 3.4451,-0.0657 -2.196,-3.9576 -5.7362,-3.9576 -3.81,0 -7.6456,4.52914 -5.5827,6.59208 1.6555,1.65553 7.9217,0.67252 8.6523,-1.35734 z m 58.0849,-10.34585 c 0.3777,-0.61112 -0.1605,-1.11112 -1.196,-1.11112 -1.0355,0 -1.5737,0.5 -1.196,1.11112 0.3777,0.61111 0.9159,1.11111 1.196,1.11111 0.2801,0 0.8183,-0.5 1.196,-1.11111 z m 6.3967,-5.82957 c -1.6895,-1.6894 -4.2594,-0.24156 -4.2594,2.39961 0,1.58848 0.5422,1.67809 2.8099,0.46445 1.9103,-1.02238 2.3743,-1.93921 1.4495,-2.86406 z m 297.3296,181.50734 c 0.2628,-0.78834 1.0477,-1.43334 1.7444,-1.43334 0.6966,0 1.4817,0.645 1.7444,1.43334 0.2628,0.78833 -0.5222,1.43333 -1.7444,1.43333 -1.2223,0 -2.0072,-0.645 -1.7444,-1.43333 z M 603.42024,504.86282 c 0,-1.03205 3.33756,-2.58649 5.55349,-2.58649 0.73447,0 1.10113,0.7028 0.8148,1.56177 -0.56248,1.68747 -6.36829,2.62168 -6.36829,1.02472 z"
       id="path216" />
  </g>
</svg>
