<?xml version="1.0" encoding="UTF-8" standalone="no"?>
<!-- Created with Inkscape (http://www.inkscape.org/) -->

<svg
   version="1.1"
   id="svg55"
   width="2715.5876"
   height="1114.7688"
   viewBox="0 0 2715.5877 1114.7688"
   xmlns="http://www.w3.org/2000/svg"
   xmlns:svg="http://www.w3.org/2000/svg">
  <defs
     id="defs59" />
  <g
     id="g61"
     transform="translate(-102.86041,-94.277051)">
    <path
       style="fill:#000000;stroke-width:1.33333"
       d="m 891.83916,1206.5893 c -0.79202,-1.4799 -1.81116,-5.3983 -2.26474,-8.7076 l -0.8247,-6.0168 21.67772,-22.3703 c 11.92276,-12.3036 23.34184,-23.958 25.37576,-25.8986 2.03392,-1.9406 4.13299,-4.9406 4.6646,-6.6667 1.4465,-4.6965 13.46451,-18.7481 29.48286,-34.4716 7.84434,-7.7 16.79584,-17.2164 19.89224,-21.1475 3.0964,-3.9312 9.2926,-9.6664 13.7694,-12.745 4.6556,-3.2015 16.2075,-14.41 26.9882,-26.1858 24.7804,-27.068 43.5301,-46.24215 55.8349,-57.09875 5.5,-4.8527 10.2426,-9.401 10.5392,-10.1073 0.2965,-0.7064 2.0343,-2.5064 3.8616,-4 6.1791,-5.0508 12.9748,-12.0235 16.941,-17.3824 4.0275,-5.4416 14.0995,-18.1279 15.3494,-19.3334 5.6462,-5.4454 14.6421,-18.2551 14.6421,-20.8494 0,-7.6513 -7.2087,-15.6032 -22,-24.2681 -5.1333,-3.0072 -11.6157,-7.5558 -14.4052,-10.108 -2.7896,-2.5522 -6.2519,-5.0149 -7.6942,-5.4727 -2.5868,-0.821 -9.2339,-12.1401 -9.2339,-15.724 0,-3.888 -7.8188,-12.4385 -14.5834,-15.9481 -3.8478,-1.9963 -7.7657,-3.6297 -8.7063,-3.6297 -2.969,0 -4.8179,-16.2854 -2.0436,-18 2.2143,-1.3685 1.491,-9.0582 -1.2794,-13.6019 -1.4315,-2.3477 -4.3549,-5.1747 -6.4964,-6.2821 -5.8621,-3.0314 -10.9822,-17.4615 -11.6321,-32.7826 -0.2022,-4.7667 -0.966,-13.9064 -1.6973,-20.31053 -1.3173,-11.53526 -1.2926,-11.71244 2.6545,-19 3.6478,-6.73495 4.3981,-7.37674 8.8841,-7.6 10.986,-0.54674 12.6655,0.10613 20.8999,8.12484 4.4,4.28473 10.8658,9.43061 14.3684,11.43529 3.5026,2.00468 8.6026,6.32016 11.3333,9.58994 2.7307,3.26976 8.1497,9.61816 12.0422,14.10746 3.8924,4.4894 9.1264,11.7978 11.6311,16.2411 2.5047,4.4432 8.2171,12.2785 12.6943,17.4119 4.4771,5.1333 10.29,13.1642 12.9174,17.8463 2.7418,4.8861 10.1043,13.9752 17.2807,21.3334 6.877,7.0511 15.6301,17.1605 19.4514,22.4652 9.2098,12.7848 9.9748,12.7446 20.2812,-1.0663 6.3541,-8.5147 27.4593,-29.65 38.6667,-38.7218 4.4,-3.5616 11.1755,-9.0364 15.0566,-12.1663 3.8812,-3.1298 9.6721,-8.9905 12.8685,-13.0239 3.1965,-4.0333 6.9894,-8.5706 8.4286,-10.0828 1.4392,-1.5122 3.6563,-4.9402 4.9268,-7.6177 1.2706,-2.6774 3.3022,-5.2197 4.5148,-5.6494 1.2125,-0.4298 6.1047,-4.9536 10.8713,-10.053 4.7667,-5.0994 14.9667,-15.77751 22.6667,-23.72917 7.7,-7.95164 17.9,-19.12596 22.6667,-24.83181 4.7666,-5.70585 11.1072,-12.84819 14.0898,-15.87184 2.9828,-3.02365 7.9548,-8.88119 11.049,-13.01673 3.094,-4.13555 8.0036,-9.16715 10.91,-11.18134 2.9065,-2.01418 5.2845,-4.60012 5.2845,-5.7465 0,-1.14639 7.05,-9.28627 15.6667,-18.08863 l 15.6666,-16.00428 8.261,-0.47372 8.2609,-0.47371 9.7391,9.29039 9.739,9.2904 -0.374,29.54615 c -0.3813,30.11216 -2.0801,43.41084 -6.3849,49.9808 -1.0827,1.65233 -2.8235,7.09069 -3.8685,12.08525 -2.6436,12.63524 -4.648,14.30594 -17.6422,14.70464 -8.1172,0.2491 -11.0272,-0.172 -13.0845,-1.8935 -3.0627,-2.5626 -10.9335,-12.36946 -14.5939,-18.18345 -5.8125,-9.23249 -10.2972,-9.61922 -14.2414,-1.22813 -1.5784,3.35787 -4.5815,7.37071 -6.6735,8.91741 -2.092,1.54672 -3.8077,4.04938 -3.8125,5.56147 0,1.51209 -1.2008,4.5492 -2.6579,6.7492 -1.4571,2.2 -2.6531,5.604 -2.6579,7.5644 0,1.9604 -1.4921,5.3271 -3.3049,7.4816 -1.8129,2.1545 -2.8629,4.3892 -2.3333,4.9659 0.5294,0.5767 -0.5372,0.6366 -2.3706,0.1332 -10.8257,-2.9731 -11.7145,-2.8055 -17.7438,3.3458 -3.1498,3.2134 -7.3702,6.9388 -9.3787,8.2788 -2.0817,1.3887 -3.9969,4.1612 -4.4543,6.4479 -0.9814,4.9073 -2.3804,5.5211 -9.1468,4.0132 -4.6002,-1.0252 -6.2161,-0.6633 -12.6097,2.8241 -8.9479,4.8806 -16.9477,12.2245 -19.2526,17.6741 -0.945,2.2343 -3.4597,5.5343 -5.5883,7.3334 -4.6646,3.9425 -5.2414,8.2841 -2.3996,18.0599 3.0652,10.5437 0.2731,12.8351 -7.9743,6.5445 -5.1538,-3.931 -8.3787,-4.1406 -12.3747,-0.8045 -2.0168,1.6838 -2.6863,3.3444 -2.16,5.3571 0.4195,1.6042 -0.1521,4.8362 -1.2702,7.1821 -1.1181,2.3459 -2.8096,5.938 -3.759,7.9825 -1.465,3.1552 -2.2926,3.5927 -5.4737,2.894 -7.6913,-1.6893 -11.3896,0.3438 -15.8508,8.7138 -4.0487,7.5963 -9.8581,12.0924 -13.0641,10.1109 -0.7682,-0.4748 -1.7159,1.7642 -2.2476,5.31 -1.0244,6.8313 -0.6719,7.6511 12.9618,30.1392 4.1508,6.8465 10.012,17.5482 13.0249,23.7815 10.9972,22.7519 16.5755,32.8245 22.2744,40.2208 5.8312,7.568 7.3831,13.31375 4.1538,15.37965 -2.0547,1.3145 -4.998,6.4387 -5.0057,8.7149 0,0.9266 -1.8006,4.3847 -3.9943,7.6847 -2.1937,3.3 -3.9912,7.0096 -3.9943,8.2435 0,1.234 -1.1954,2.6211 -2.6496,3.0827 -1.4541,0.4615 -5.0812,3.1809 -8.0601,6.0431 -2.979,2.8622 -8.9504,6.9002 -13.2698,8.9733 l -7.8534,3.7692 -7.0567,-2.3004 c -5.1688,-1.685 -7.5252,-1.9117 -8.8077,-0.8473 -2.6536,2.2022 -10.035,-5.6808 -14.3752,-15.352 -3.3295,-7.4191 -3.5632,-9.0209 -2.8308,-19.3999 0.4391,-6.2221 1.4207,-11.9353 2.1813,-12.6959 0.7606,-0.7606 1.383,-4.92665 1.383,-9.25775 0,-6.8871 -0.5436,-8.5526 -4.3334,-13.2784 -2.3833,-2.9719 -5.5558,-8.7582 -7.0501,-12.8585 l -2.7167,-7.455 -6.1648,-0.4016 -6.1648,-0.4015 -14.6272,15.0682 c -8.045,8.2875 -16.9483,17.8889 -19.7851,21.3363 -4.3514,5.28815 -5.7177,6.16065 -8.7377,5.57995 -3.7456,-0.7202 -9.9188,3.7274 -8.4568,6.0929 1.6252,2.6296 -27.3558,28.0065 -32.1119,28.1184 -1.5108,0.036 -5.4976,3.9158 -9.9657,9.6993 -6.694,8.6647 -8.1536,9.8323 -14.4259,11.5403 -7.4707,2.0343 -9.139,3.3558 -19.4599,15.4137 -3.6667,4.2838 -10.7167,12.1446 -15.6667,17.4685 -4.95,5.3239 -9,10.4225 -9,11.3303 0,0.9077 -2.26,4.389 -5.0221,7.7362 -2.7622,3.3472 -6.7576,8.4858 -8.8788,11.4191 -2.1212,2.9334 -5.5041,6.8334 -7.5175,8.6667 -2.0135,1.8333 -3.8732,4.5333 -4.1327,6 -0.3676,2.0772 -1.6922,2.7558 -5.992,3.0701 -4.7593,0.3477 -6.4386,1.4061 -12.1832,7.678 -4.3673,4.7683 -7.3608,7.0069 -8.68842,6.4974 -1.28468,-0.493 -3.13024,0.7171 -5.0462,3.3085 -1.66141,2.2472 -4.24466,4.4743 -5.74058,4.9491 -3.09624,0.9827 -11.02758,9.3246 -12.19871,12.8302 -0.42872,1.2834 -1.22859,2.3334 -1.77747,2.3334 -0.54888,0 -2.27696,2.2756 -3.84018,5.057 -2.49431,4.438 -13.07824,13.6096 -15.70536,13.6096 -0.52467,0 -5.42662,3.048 -10.8932,6.7734 -11.67791,7.9582 -20.48887,10.0126 -22.97982,5.3582 z m 1275.25794,-43.0854 c -6.1843,-6.8785 -7.6905,-12.6158 -4.7423,-18.0643 0.6891,-1.2734 1.6058,-3.9865 2.0372,-6.0291 0.8806,-4.1687 6.584,-7.2706 9.2699,-5.0415 1.0919,0.9062 2.7871,0 5.5765,-2.9713 2.2043,-2.3504 7.0483,-7.0753 10.7644,-10.4998 3.716,-3.4246 7.1711,-7.8782 7.6778,-9.8969 0.5497,-2.1903 7.0422,-9.7069 16.1005,-18.6401 12.7379,-12.5619 15.5408,-16.0745 17.4259,-21.8377 1.674,-5.1178 3.1874,-7.2753 5.9394,-8.4667 5.647,-2.4447 28.7678,-27.524 29.829,-32.3557 0.4934,-2.2464 3.2737,-6.9604 6.1785,-10.4756 2.9048,-3.5152 5.2815,-6.863 5.2815,-7.4395 0,-0.5766 2.55,-3.7715 5.6666,-7.0998 3.1167,-3.3283 7.7376,-10.14125 10.2687,-15.13995 2.5312,-4.9986 4.9451,-9.3884 5.3641,-9.755 0.4192,-0.3667 1.8122,-2.3167 3.0955,-4.3334 1.2832,-2.0166 3.1148,-3.6666 4.07,-3.6666 2.1127,0 6.4581,-4.7941 8.4599,-9.3334 0.8085,-1.8333 2.4032,-5.465 3.5437,-8.0703 1.1405,-2.6054 3.3017,-5.8484 4.8025,-7.2067 1.501,-1.3583 2.729,-3.2363 2.729,-4.1733 0,-0.9371 4.4885,-6.8518 9.9746,-13.1439 9.9686,-11.4331 14.0254,-17.5668 14.0254,-21.2056 0,-1.0627 1.95,-4.8513 4.3333,-8.4192 2.3833,-3.5678 5.7323,-10.0781 7.4421,-14.4673 1.7099,-4.3892 4.0275,-10.1782 5.1503,-12.8645 1.1228,-2.6863 1.6696,-5.486 1.2149,-6.2214 -1.1766,-1.9041 1.4946,-8.3137 5.0963,-12.2278 4.5445,-4.9387 12.9993,-20.1278 12.2667,-22.0371 -0.3498,-0.9112 0.3402,-3.0502 1.5333,-4.7535 1.1929,-1.7032 2.2528,-5.5771 2.3551,-8.6088 0.124,-3.6851 1.1385,-6.4644 3.0594,-8.3854 2.5572,-2.5571 2.7908,-3.869 2.1226,-11.9208 -0.6963,-8.389 -0.5019,-9.3161 2.6709,-12.7396 2.0864,-2.2513 3.4217,-5.2471 3.4217,-7.6766 0,-2.1914 1.1887,-6.3143 2.6414,-9.1619 1.9353,-3.7935 2.2026,-5.3257 1,-5.7317 -1.2292,-0.415 -1.0587,-1.7845 0.6792,-5.4544 1.2762,-2.6951 2.697,-7.44192 3.1574,-10.54849 0.4603,-3.10658 1.816,-7.14832 3.0128,-8.98166 2.2803,-3.49329 2.2919,-3.88686 1.4902,-50.80416 -0.195,-11.40894 0.23,-20.4762 1.0262,-21.89896 0.9314,-1.66426 0.9059,-3.71826 -0.081,-6.52917 -1.8531,-5.27885 -1.8972,-35.54864 -0.081,-56.10104 0.7772,-8.8 0.9654,-19.79325 0.4182,-24.42944 -0.5793,-4.90881 -0.4346,-10.45786 0.3463,-13.2861 0.9525,-3.45016 0.9137,-4.99907 -0.134,-5.34835 -1.8153,-0.60507 -1.9531,-7.25807 -0.1871,-9.02416 0.8286,-0.82852 0.7139,-6.75087 -0.3214,-16.6 -2.3672,-22.51896 -1.7971,-57.4715 1.0073,-61.7515 2.5448,-3.88392 9.6129,-7.56044 14.5351,-7.56044 3.4508,0 16.1393,7.29476 19.2882,11.08904 3.7163,4.47781 10.88,43.81418 10.9714,60.24429 0.1026,18.47733 -1.1438,77.43416 -1.7336,81.99999 -1.2487,9.66475 -4.0658,22.24108 -6.5072,29.05002 -1.3903,3.8775 -2.5278,8.50716 -2.5278,10.2881 0,1.78094 -0.8522,5.20843 -1.8938,7.61664 -2.8514,6.59212 -6.2468,21.52952 -8.1178,35.71191 -0.919,6.96667 -2.3581,14.76667 -3.1981,17.33333 -0.8399,2.56667 -2.1307,10.89279 -2.8684,18.50251 -0.8204,8.46313 -2.8548,18.42864 -5.2389,25.66334 -2.1438,6.5052 -4.5506,15.4278 -5.3486,19.8281 -0.7978,4.4003 -2.2753,10.3376 -3.283,13.194 -1.0079,2.8564 -1.977,8.1076 -2.1535,11.6694 -0.1767,3.5618 -1.1259,8.4993 -2.1095,10.9721 -0.9836,2.4729 -1.7884,7.2837 -1.7884,10.6905 0,4.2807 -0.9632,7.6287 -3.118,10.8372 -1.7148,2.5536 -3.8544,7.6428 -4.7545,11.3095 -0.9001,3.6667 -3.0971,9.1735 -4.882,12.2374 -1.7851,3.064 -3.2455,6.8511 -3.2455,8.4159 0,1.5649 -1.4316,5.958 -3.1812,9.7626 -4.1621,9.0505 -6.7984,16.9307 -9.251,27.6532 -1.9203,8.3949 -10.7722,30.5872 -16.8016,42.1227 -1.5883,3.0389 -3.2351,7.8389 -3.6596,10.6667 -0.8506,5.6668 -7.9674,21.8082 -9.6154,21.8082 -0.5714,0 -3.0806,2.85 -5.5758,6.3333 -2.4952,3.4833 -6.0468,7.8563 -7.8927,9.7177 -4.1148,4.14945 -12.0227,15.27695 -12.0227,16.91745 0,5.4434 -11.1638,20.6667 -24.7122,33.6983 -9.6044,9.2379 -22.1974,24.2556 -24.0427,28.6721 -1.1881,2.8436 -3.7851,5.3625 -7.5293,7.3028 -8.3546,4.3295 -16.728,11.5627 -20.6618,17.8483 -1.8966,3.0305 -9.8818,11.8101 -17.7449,19.5101 -7.8631,7.7 -15.9,16.5787 -17.8597,19.7304 -1.9598,3.1517 -4.5876,6.0579 -5.8396,6.4583 -7.409,2.3692 -10.3348,4.1192 -16.1427,9.6551 -3.5521,3.3859 -6.7077,6.973 -7.0123,7.9713 -0.3538,1.1598 -3.0648,1.9506 -7.5092,2.1904 -6.8274,0.3684 -7.0658,0.2525 -12.9505,-6.2926 z m 143.3383,-189.04635 c 0,-0.7333 -0.6,-1.3333 -1.3334,-1.3333 -0.7333,0 -1.3333,0.6 -1.3333,1.3333 0,0.7334 0.6,1.3334 1.3333,1.3334 0.7334,0 1.3334,-0.6 1.3334,-1.3334 z m -418,161.90255 c -4.4,-1.8521 -11.2215,-4.6078 -15.159,-6.1236 -4.8064,-1.8503 -10.6404,-5.9618 -17.7532,-12.5115 -5.8268,-5.3655 -13.2261,-11.7456 -16.4428,-14.178 -4.961,-3.7515 -5.9766,-5.3332 -6.692,-10.4227 -1.0562,-7.5131 -15.5796,-46.0139 -18.1066,-48 -0.4666,-0.3666 -1.8182,-8.2649 -3.0034,-17.5517 -1.1852,-9.2868 -2.7598,-18.4759 -3.499,-20.4202 -0.7392,-1.9443 -1.344,-6.7135 -1.344,-10.59825 0,-3.8847 -1.5,-14.4282 -3.3334,-23.4299 -1.8333,-9.0017 -3.3333,-19.0948 -3.3333,-22.4292 0,-5.7226 3.3663,-20.6674 5.3092,-23.5708 0.4908,-0.7333 0.7656,-10.0333 0.6107,-20.6667 -0.155,-10.6333 -0.3503,-24.5168 -0.4342,-30.8522 -0.1962,-14.8379 -2.1862,-17.9396 -10.5972,-16.5186 -4.7926,0.8098 -6.0166,1.7151 -8.2576,6.1076 -1.447,2.8364 -2.6309,5.9681 -2.6309,6.9594 0,3.7568 -13.3421,11.6372 -19.7027,11.6372 -3.3985,0 -13.5913,5.2839 -17.8546,9.2559 -4.3192,4.0239 -9.1094,12.2127 -9.1094,15.5725 0,4.4863 -6.7541,11.1716 -11.2865,11.1716 -1.9204,0 -4.7797,1.2 -6.354,2.6666 -1.5743,1.4667 -3.6387,2.6667 -4.5875,2.6667 -0.9488,0 -4.4785,2.6382 -7.8437,5.8626 -3.4528,3.3084 -7.9651,6.228 -10.3568,6.7011 -8.1533,1.613 -9.5789,1.8816 -10.5715,1.9919 -0.55,0.061 -1,0.7042 -1,1.4292 0,1.3085 -1.299,3.0475 -8.3205,11.1383 -2.0096,2.3156 -3.9581,5.1102 -4.3299,6.2102 -0.3718,1.1 -2.4517,3.0073 -4.6218,4.2383 -2.1703,1.231 -4.7788,4.231 -5.797,6.6667 -2.5072,5.9983 -4.4614,7.3277 -12.2641,8.3432 -17.4395,2.2698 -23.3591,2.2909 -29.9339,0.1071 -4.2002,-1.3951 -10.0925,-2.0919 -16.0541,-1.8986 -8.5948,0.2788 -9.7427,0 -13.1257,-3.2464 -3.6848,-3.5301 -3.6983,-3.6069 -2.2142,-12.5477 0.8214,-4.9478 2.1527,-10.5444 2.9586,-12.4371 2.0166,-4.7362 0.2018,-17.8892 -3.3967,-24.6177 -2.7484,-5.139 -2.8171,-6.1097 -1.4612,-20.6667 0.7824,-8.4009 2.2787,-17.1651 3.3249,-19.4759 1.0463,-2.3109 1.9023,-6.9316 1.9023,-10.2683 0,-7.3263 3.0047,-19.4383 5.9295,-23.9021 1.172,-1.7888 1.7746,-4.1811 1.339,-5.3162 -0.4356,-1.1351 0.742,-4.4937 2.6168,-7.4635 1.8748,-2.9699 3.9875,-7.6757 4.6948,-10.4574 2.392,-9.407 6.945,-24.9982 10.8587,-37.1853 2.142,-6.6701 3.8945,-13.3439 3.8945,-14.8305 0,-1.4866 1.204,-5.4248 2.6756,-8.7516 1.4716,-3.3267 3.0507,-8.953 3.509,-12.5028 0.4582,-3.54978 1.8881,-7.65415 3.1773,-9.12082 3.6168,-4.11467 8.8396,-15.41172 9.8627,-21.33333 0.5068,-2.93334 2.3604,-9.83334 4.119,-15.33334 1.7587,-5.5 3.8812,-13.3 4.7168,-17.33333 0.8355,-4.03333 3.5324,-13.63333 5.9931,-21.33333 2.4608,-7.7 5.4149,-18.18479 6.5647,-23.29954 1.1498,-5.11474 3.4841,-11.41474 5.1874,-14 3.5318,-5.3606 5.503,-17.52522 3.2114,-19.81691 -1.0859,-1.08575 -0.5571,-2.33728 1.9812,-4.68964 5.3986,-5.0034 10.4649,-16.36571 12.5033,-28.0421 1.0241,-5.8663 2.8013,-12.09954 3.9493,-13.85162 1.148,-1.7521 2.0887,-5.0864 2.0902,-7.40958 0,-6.694 -1.4514,-22.57885 -2.1316,-23.2591 -1.19,-1.19 -7.5303,1.13218 -8.2562,3.0239 -0.403,1.05011 0.1524,3.68343 1.2342,5.8518 3.6533,7.32351 -3.2516,14.50059 -7.5863,7.88512 -1.6948,-2.58665 -1.7625,-3.8783 -0.4067,-7.74822 0.895,-2.55426 2.1464,-5.45655 2.7808,-6.44954 1.2022,-1.88117 1.502,-4.82793 2.8974,-28.46773 0.865,-14.65423 2.2969,-18.22701 6.6373,-16.56141 1.1425,0.4384 3.0128,3.05552 4.1563,5.81582 2.9989,7.23966 4.4245,8.71406 6.6441,6.87194 2.4551,-2.03754 2.3095,-11.04491 -0.2587,-16.01131 -1.7545,-3.39285 -2.7501,-3.95885 -6.3333,-3.60045 l -4.2516,0.42528 0.4827,-9.19444 c 0.2653,-5.05695 1.254,-11.05695 2.1968,-13.33333 2.6921,-6.49994 4.0193,-29.67511 1.9237,-33.59079 -1.5249,-2.84939 -2.5337,-3.19505 -8.5001,-2.91239 -3.7234,0.1764 -9.2292,-0.15692 -12.2352,-0.7407 -4.7759,-0.9275 -5.9779,-0.63035 -9.5259,2.3551 -2.2332,1.87911 -5.2504,3.41655 -6.7049,3.41655 -1.4547,0 -4.7119,0.86372 -7.2384,1.91937 -3.7324,1.5595 -7.1811,1.67592 -18.3932,0.62096 l -13.7995,-1.29842 -4.9793,4.86222 c -3.9844,3.89068 -6.2696,4.98914 -11.4364,5.49738 -3.5514,0.34934 -8.5018,1.55502 -11.0008,2.67929 -6.3383,2.85136 -35.2683,5.21719 -40.6592,3.325 -2.8872,-1.01339 -5.9362,-1.04005 -10.1303,-0.0885 -9.5184,2.15929 -28.2691,3.65001 -31.2647,2.4856 -1.5044,-0.5848 -4.9562,-2.97623 -7.6708,-5.31428 -6.4061,-5.51762 -8.0939,-13.9307 -4.2617,-21.24238 1.3778,-2.62872 2.8657,-5.07949 3.3067,-5.44616 1.1333,-0.94237 5.0734,-12.1372 5.3966,-15.33333 0.1484,-1.46667 -0.2029,-5.55013 -0.7806,-9.07437 -0.9339,-5.69622 -0.6994,-6.78443 2.112,-9.8004 2.744,-2.94372 3.9565,-3.2985 9.1625,-2.68091 3.3,0.39148 8.8709,1.989 12.3799,3.55003 7.2576,3.22873 9.8409,3.35056 60.1137,2.83484 18.2383,-0.1871 34.1383,-0.84372 35.3333,-1.45915 4.7191,-2.43001 16.4791,-4.10924 18.2846,-2.61087 1.2222,1.01443 3.1018,1.0551 6.1573,0.1332 9.5769,-2.88948 17.4559,-4.22574 24.916,-4.22574 4.2973,0 10.3641,-0.9 13.4819,-2 3.1177,-1.1 8.8697,-2 12.7824,-2 7.8424,0 12.0269,-2.91723 13.3497,-9.3068 0.3825,-1.84794 1.3679,-4.55987 2.1893,-6.02654 0.8216,-1.46666 1.7592,-7.76666 2.0836,-13.99999 0.5658,-10.86943 2.9062,-18.66667 5.603,-18.66667 0.7346,0 1.1429,-4.93304 0.9657,-11.66667 -0.2659,-10.10232 0.095,-12.3135 2.6929,-16.4907 1.65,-2.65323 3,-6.18366 3,-7.84538 0,-1.66173 2.4,-7.7316 5.3334,-13.48858 2.9333,-5.757 5.3333,-12.3449 5.3333,-14.63976 0,-2.29487 1.1521,-6.35419 2.5603,-9.02071 4.3805,-8.29515 9.3033,-25.45536 9.3922,-32.74038 0.027,-2.14071 1.8356,-7.0605 4.021,-10.93287 2.1854,-3.87236 4.3529,-9.41285 4.8165,-12.31221 0.8047,-5.03239 1.1091,-5.31147 6.7105,-6.15146 8.337,-1.25018 10.4926,-0.1328 13.4922,6.9939 3.5494,8.43292 12.796,18.65913 18.1106,20.02945 4.0443,1.04277 4.28,1.47648 5.3692,9.87713 1.0266,7.91813 0.8559,9.16956 -1.7268,12.66289 -2.3729,3.20942 -2.9972,6.3871 -3.6285,18.46756 -0.5195,9.94035 -1.4375,15.65359 -2.8804,17.92446 -1.2407,1.95286 -2.488,8.02694 -3.0117,14.66666 -2.1643,27.44079 -6.109,53.08394 -8.6144,56 -0.9451,1.1 -2.1539,4.34606 -2.6863,7.21344 -1.2937,6.96811 1.5428,9.42752 7.8452,6.8024 2.3267,-0.96913 7.2304,-2.17105 10.8971,-2.67095 3.6666,-0.49988 9.9666,-1.70449 14,-2.67689 4.0333,-0.97241 15.7333,-2.76145 26,-3.97564 10.2666,-1.2142 20.9621,-2.80438 23.7676,-3.53376 2.8056,-0.72937 6.8168,-0.94926 8.914,-0.48864 2.4421,0.53636 4.9452,0.0957 6.9613,-1.22528 1.7315,-1.13452 7.9201,-2.6983 13.7527,-3.47508 5.8324,-0.77676 12.3896,-2.00361 14.5716,-2.72634 2.1818,-0.72272 8.3972,-1.656 13.8117,-2.07395 5.4144,-0.41796 11.86,-1.60203 14.3233,-2.63128 2.4634,-1.02925 7.648,-1.91516 11.5216,-1.96869 3.8735,-0.0535 10.3428,-0.6755 14.3762,-1.38212 6.7374,-1.18039 18.2202,-2.83454 43.7005,-6.2952 14.1199,-1.91774 76.7544,-0.5208 83.5973,1.86445 2.953,1.02927 7.7203,1.88012 10.5943,1.8908 3.3139,0.012 7.8184,1.48272 12.3132,4.0194 3.8981,2.2 7.9532,4 9.0111,4 2.7566,0 7.4502,6.45484 7.4502,10.24603 0,1.77085 -0.9321,5.0222 -2.0713,7.22519 -1.1392,2.20302 -2.4228,6.97322 -2.8524,10.60046 -0.9043,7.63497 -1.2224,7.73097 -15.0763,4.54857 -5.3956,-1.23943 -18.4798,-2.21605 -34.6666,-2.58753 -14.3,-0.32819 -31.3668,-0.85903 -37.9262,-1.17964 -7.5416,-0.36863 -18.8158,0.35613 -30.6666,1.97136 -38.4975,5.24712 -70.4515,7.23042 -79.7004,4.9468 -2.7518,-0.67942 -6.1292,0.37884 -14,4.3867 -6.9652,3.54668 -11.3818,5.03156 -13.4423,4.51944 -1.9911,-0.49486 -4.2964,0.20296 -6.5644,1.98699 -2.0136,1.58384 -5.5177,2.76655 -8.2647,2.78941 -2.6228,0.0219 -11.3688,0.47527 -19.4354,1.00763 -12.4228,0.81985 -15.7706,1.54883 -21.8819,4.76484 -6.8963,3.62911 -8.0603,3.80453 -26.3372,3.96971 l -19.122,0.1728 -5.5176,5.68472 c -3.0347,3.1266 -7.2329,6.69798 -9.3295,7.93642 -2.0965,1.23844 -3.8118,2.62903 -3.8118,3.09019 0,2.20779 -6.557,8.02389 -11.2487,9.97771 -2.8867,1.20216 -7.1433,3.63094 -9.4591,5.3973 -2.3158,1.76636 -4.8829,3.21156 -5.7045,3.21156 -2.4164,0 -4.2544,4.73031 -4.2544,10.949 0,3.19348 -0.9743,7.18195 -2.1721,8.89206 -1.5207,2.17112 -2.269,6.55834 -2.4951,14.63 -0.1777,6.34092 -0.6171,13.32894 -0.9764,15.52894 -0.7677,4.70053 -7.3539,21.50637 -9.9136,25.29668 -0.9769,1.44649 -1.7957,4.44649 -1.8196,6.66667 -0.024,2.22016 -1.2173,7.33665 -2.6519,11.36998 -1.4345,4.03334 -3.5489,11.83334 -4.6988,17.33334 -2.5146,12.02765 -7.5144,28.83097 -12.8937,43.33333 -2.1761,5.86667 -4.7325,15.16667 -5.6809,20.66667 -0.9484,5.5 -2.6422,13.89999 -3.764,18.66666 -1.1218,4.76667 -2.7467,12.56667 -3.6108,17.33333 -0.8642,4.76667 -2.6439,11.66667 -3.955,15.33334 -4.8501,13.56489 -6.77,21.63092 -7.963,33.45504 -0.94,9.3158 -2.495,15.17989 -6.7174,25.33333 -3.0218,7.26639 -6.6614,15.19368 -8.088,17.6162 -3.8505,6.53852 -6.6561,21.49973 -7.5501,40.26213 -0.6765,14.1987 -1.2395,17.3576 -3.8011,21.3333 -1.9772,3.0685 -3.4958,8.4389 -4.4345,15.6816 -0.7852,6.0582 -2.2665,12.6582 -3.292,14.6666 -1.0253,2.0085 -2.5352,6.8216 -3.3552,10.6958 -0.82,3.8743 -2.7531,9.5181 -4.2956,12.5419 -2.3157,4.5392 -2.8029,7.8899 -2.7943,19.2178 0,7.546 0.4014,14.3521 0.879,15.1248 0.4774,0.7726 3.9389,1.4048 7.6921,1.4048 9.794,0 27.1171,-8.5126 33.1848,-16.3072 5.6983,-7.3199 6.2161,-7.648 12.11,-7.6724 3.2603,-0.014 8.9337,-2.1111 16.6667,-6.1622 13.9662,-7.3167 17.7096,-10.4962 17.7662,-15.0906 0.023,-1.8888 0.9046,-4.5733 1.9583,-5.9654 1.5669,-2.0701 2.2809,-2.2283 3.9192,-0.8687 2.9135,2.418 18.9844,-4.0181 27.6432,-11.0706 3.7339,-3.0412 7.4597,-5.8892 8.2796,-6.3288 0.8199,-0.4395 3.2907,-1.8249 5.4907,-3.0786 2.2,-1.2537 7,-3.674 10.6666,-5.3784 3.6667,-1.7044 7.8667,-4.4478 9.3334,-6.0963 1.4666,-1.6486 7.1505,-5.1644 12.6308,-7.813 10.1626,-4.9115 26.7025,-18.7555 26.7025,-22.3502 0,-1.0322 2.4,-6.6501 5.3333,-12.4842 2.9334,-5.8342 5.3334,-11.32889 5.3334,-12.21059 0,-0.88169 3.3778,-8.47122 7.5062,-16.86562 5.5052,-11.19356 7.8163,-17.61681 8.669,-24.09319 2.6929,-20.4548 3.1846,-22.21278 9.3706,-33.4973 3.982,-7.26428 15.7875,-31.79434 15.7875,-32.80435 0,-0.67719 1.9639,-4.22324 4.3643,-7.88012 3.9697,-6.04784 7.6888,-15.70663 9.5488,-24.79972 0.7189,-3.51394 8.1752,-15.44613 16.5694,-26.51581 4.2479,-5.60176 9.66,-16.14005 13.5572,-26.39844 0.9191,-2.41915 3.4336,-6.01915 5.5878,-8 4.1329,-3.80053 11.2864,-14.32444 14.1168,-20.76836 0.9261,-2.10841 3.6378,-6.30841 6.0261,-9.33333 2.3881,-3.02494 5.1504,-7.11659 6.1383,-9.09258 0.9878,-1.976 5.5908,-8.25832 10.2286,-13.96073 6.2926,-7.7368 8.2495,-11.0976 7.711,-13.24293 -0.5471,-2.18004 0.3508,-3.62809 3.715,-5.99093 4.5323,-3.18312 5.3542,-3.91516 22.085,-19.67144 12.0788,-11.37519 28.3034,-20.20792 37.1196,-20.20792 10.5845,0 18.9838,6.36316 25.7908,19.53857 3.5982,6.96495 4.1402,22.07581 0.9193,25.63484 -2.2373,2.47232 -9.9012,5.77396 -17.1783,7.40052 -2.0352,0.45489 -5.9352,2.83224 -8.6666,5.283 -2.7315,2.45074 -6.4664,4.89509 -8.2998,5.43188 -1.8333,0.53677 -9.1254,6.91638 -16.2048,14.1769 -7.0792,7.26052 -13.7826,13.20095 -14.8965,13.20095 -2.6577,0 -21.0944,18.27917 -23.2079,23.00964 -0.9033,2.02196 -8.7698,11.32196 -17.4812,20.66667 -8.7112,9.34469 -17.5721,20.17772 -19.6908,24.07338 -2.1186,3.89567 -5.192,9.55228 -6.8296,12.57026 -1.6377,3.01797 -4.4446,7.03061 -6.2378,8.91697 -1.7932,1.88636 -6.9179,10.92974 -11.3883,20.09641 -4.4704,9.16667 -8.7104,17.56667 -9.4223,18.66667 -2.2562,3.48694 -17.0442,35.56524 -21.3332,46.27638 -2.2676,5.6628 -4.795,11.10604 -5.6168,12.09611 -0.8216,0.99005 -1.9244,4.97277 -2.4506,8.85049 -0.5263,3.87771 -2.562,12.20088 -4.5239,18.49592 -4.4251,14.1983 -3.6972,16.4422 5.5733,17.1795 6.171,0.4908 6.518,0.3149 12.8891,-6.53037 l 6.5473,-7.0347 h 9.2584 c 8.6536,0 9.6144,-0.30481 14.7103,-4.66667 6.4467,-5.51804 7.9395,-5.65572 14.972,-1.3808 2.9333,1.78311 7.502,4.44392 10.1525,5.91294 10.1508,5.62586 18.1288,25.9304 12.5923,32.0482 -1.2509,1.3822 -3.7495,2.8834 -5.5523,3.3359 -1.8029,0.4524 -7.4649,3.5064 -12.5822,6.7865 -5.1174,3.2802 -10.0095,5.9639 -10.8714,5.9639 -0.8618,0 -3.004,1.35 -4.7604,3 -2.8833,2.7089 -4.574,3.0094 -17.4192,3.0961 -13.0444,0.088 -14.9845,0.4461 -23.358,4.3096 -7.3856,3.4077 -9.6522,3.9351 -11.8522,2.7577 -2.3683,-1.2675 -3.4726,-0.6247 -8.5347,4.9678 -3.1979,3.533 -5.8144,7.5172 -5.8144,8.8538 0,1.3366 -2.4,6.6655 -5.3333,11.842 -2.9334,5.1765 -5.3334,9.7042 -5.3334,10.0615 0,0.3574 -2.4058,4.0096 -5.3464,8.1159 -5.2185,7.2876 -5.3261,7.6627 -4.5041,15.6868 0.6207,6.0579 0.2973,9.4163 -1.2291,12.7648 -2.2945,5.0334 -3.6289,27.363 -3.9766,66.544 -0.2427,27.3449 2.5105,50.1855 6.9213,57.42085 1.8372,3.0137 2.7992,6.8584 2.8139,11.2459 0.028,8.4765 3.6713,20.0935 10.7309,34.218 7.6665,15.3389 21.6892,36.2924 26.9975,40.3413 7.1202,5.4308 20.1461,22.9578 21.1825,28.5021 1.1703,6.2605 1.3288,19.3971 0.2675,22.1629 -1.1354,2.9585 -5.2439,2.5846 -14.524,-1.3218 z m -180.174,-672.6994 c 0.4544,-2.27162 0.4626,-5.57841 0.019,-7.3484 -0.5933,-2.36405 -0.326,-3.04872 1.0074,-2.57973 1.0156,0.35727 3.4297,-1.49231 5.4816,-4.19963 6.2956,-8.30685 4.1333,-20.22634 -2.9786,-16.42012 -3.3498,1.79278 -5.3548,6.51876 -5.3548,12.62227 0,2.517 -0.7868,4.73915 -1.8181,5.13492 -1.1431,0.43864 -1.8264,2.84325 -1.8403,6.47599 -0.037,9.64569 3.9095,14.18936 5.4844,6.3147 z M 137.3728,1114.7626 c -1.68443,-0.2787 -6.1697,-3.7185 -9.96726,-7.6439 -5.62161,-5.8109 -6.95535,-8.0839 -7.17755,-12.2324 -0.1501,-2.8024 -0.67264,-7.2782 -1.16122,-9.9461 -0.64269,-3.5097 -0.25566,-5.8164 1.39974,-8.3429 1.72078,-2.6262 2.14674,-5.4451 1.71816,-11.3703 -0.73666,-10.1841 -2.3973,-12.1027 -10.47579,-12.1027 -6.13923,0 -6.46313,-0.1912 -7.94927,-4.6943 -1.90588,-5.7748 -0.90215,-12.2489 4.16748,-26.8802 2.11291,-6.0979 3.84164,-12.0141 3.84164,-13.1469 0,-1.1329 2.39324,-5.743 5.31832,-10.24465 2.92507,-4.5015 5.7169,-10.3093 6.20404,-12.906 0.48716,-2.5968 2.29392,-7.525 4.01503,-10.9517 1.83822,-3.6598 3.13465,-8.6258 3.1423,-12.0366 0.0147,-6.5522 3.3206,-14.3611 12.43899,-29.3822 3.41805,-5.6307 6.21465,-11.7297 6.21465,-13.5535 0,-1.8237 2.13534,-7.3409 4.74518,-12.2604 2.60985,-4.9195 4.4616,-9.6836 4.11498,-10.5868 -0.3466,-0.9032 0.51412,-3.378 1.91271,-5.4995 1.39859,-2.1215 2.54685,-4.8724 2.55168,-6.1131 0.0181,-4.6603 11.0344,-25.7987 15.50895,-29.7593 4.37389,-3.8714 4.55205,-4.4092 4.97897,-15.0284 0.37243,-9.2638 0.92513,-11.5268 3.47924,-14.2455 1.67007,-1.7777 4.61264,-3.4149 6.53905,-3.6383 3.04444,-0.3529 3.55783,-1.1036 3.92502,-5.7394 0.23233,-2.9333 0.98233,-5.9033 1.66666,-6.6 0.68432,-0.6966 1.24423,-2.0795 1.24423,-3.0731 0,-0.9936 1.27949,-4.6236 2.84332,-8.0667 5.38285,-11.8515 21.21279,-44.93 22.45711,-46.92682 5.3721,-8.62065 10.47924,-17.80871 13.34025,-23.99999 5.69873,-12.33218 12.33012,-24 13.64032,-24 1.63537,0 4.24627,-2.66916 6.222,-6.36086 0.87495,-1.63486 2.67368,-2.97248 3.99716,-2.97248 1.66552,0 2.94917,-1.74454 4.16955,-5.66666 2.54433,-8.1771 11.8869,-25 13.8837,-25 2.95779,0 5.95443,-4.53715 6.89931,-10.44612 0.68595,-4.28968 2.44273,-7.3009 7.06349,-12.1071 3.38275,-3.51852 7.66331,-7.36258 9.51235,-8.54237 2.14653,-1.36959 4.02084,-4.45139 5.18465,-8.52473 1.874,-6.55904 6.1781,-13.3754 11.86984,-18.79821 2.6787,-2.55214 3.10179,-3.9344 2.4487,-8 -0.51256,-3.19079 -0.36536,-4.23468 0.41964,-2.97591 0.96344,1.54489 2.24274,0.73827 6.29554,-3.96945 2.79752,-3.24959 7.34366,-8.30051 10.10252,-11.22427 4.3721,-4.6334 7.61922,-11.51717 7.64311,-16.20312 0.004,-0.80188 2.95856,-3.94637 6.56548,-6.98777 4.34805,-3.66634 6.87644,-6.97948 7.50288,-9.83163 1.62355,-7.39196 3.61007,-10.15183 11.60575,-16.12384 4.06864,-3.03889 5,-4.58069 5,-8.27719 0,-4.71177 1.12784,-6.1153 16.45406,-20.47629 3.41694,-3.20173 6.2126,-6.57708 6.2126,-7.50076 0,-0.92368 -1.49244,-5.05408 -3.31652,-9.17866 -3.86532,-8.74019 -4.875,-9.00063 -18.53581,-4.78123 -5.39084,1.66505 -11.77272,2.60943 -16.47377,2.43775 -8.42435,-0.30767 -20.56859,3.60164 -27.6739,8.90838 -4.93946,3.68915 -12.96509,4.49107 -53.92604,5.38828 -24.16818,0.52937 -32.01072,0.24183 -40.761,-1.49452 -10.71808,-2.12681 -10.8895,-2.11781 -15.89258,0.83408 -4.8913,2.88592 -5.19759,2.90872 -9.31215,0.69288 -3.75255,-2.02088 -5.64347,-2.1186 -16.02739,-0.82824 -6.47509,0.80463 -12.22533,1.58604 -12.77829,1.73649 -0.55297,0.15046 -5.87225,-4.62926 -11.82064,-10.62158 -9.75184,-9.82387 -10.81517,-11.39705 -10.81457,-16 3.7e-4,-2.80768 1.13629,-8.10487 2.52426,-11.77153 1.38798,-3.66667 2.80452,-10.03943 3.1479,-14.1617 0.64158,-7.7026 1.2593,-9.45716 4.76616,-13.53761 1.92508,-2.23995 2.25161,-2.15803 6.13053,1.53795 3.74692,3.5702 4.69945,3.84305 11.1434,3.19188 5.02749,-0.50803 7.42844,-1.42615 8.38025,-3.2046 0.7337,-1.37092 2.66287,-2.50178 4.28707,-2.513 3.747,-0.0259 5.47312,-1.19374 7.52773,-5.09294 1.53614,-2.91526 10.71228,-8.12546 14.42536,-8.1907 0.91667,-0.0161 1.66667,0.87072 1.66667,1.97072 0,1.1 -0.46896,2 -1.04212,2 -0.57317,0 -3.42317,3.90045 -6.33333,8.66766 -3.53252,5.7867 -6.77324,9.37267 -9.75003,10.78876 -4.18013,1.98854 -4.40185,2.42599 -3.54736,6.99902 2.04132,10.92456 3.85228,11.42748 40.00617,11.11022 30.15667,-0.26464 48.18924,-1.44382 64,-4.18508 4.4,-0.76288 13.1,-1.94354 19.33334,-2.62373 15.0976,-1.64744 24.14948,-3.50801 25.18014,-5.17565 0.46471,-0.75192 7.83598,-1.66363 16.38058,-2.02603 11.60348,-0.49213 17.07846,-1.34136 21.63114,-3.35523 8.24266,-3.64612 16.94975,-4.80005 22.47066,-2.97798 4.03093,1.33032 5.39861,1.05385 12.43332,-2.51339 4.34727,-2.20447 8.88294,-4.01573 10.07923,-4.02501 1.1963,-0.009 3.73722,-2.06496 5.6465,-4.56815 1.90928,-2.50319 4.28573,-5.36557 5.281,-6.36085 2.81993,-2.81994 5.10074,-7.68022 4.25006,-9.05666 -0.42386,-0.68582 1.1519,-5.19004 3.5017,-10.00934 3.35494,-6.88079 6.23056,-10.36443 13.39149,-16.22302 5.89071,-4.81937 9.36053,-8.70061 9.80103,-10.96309 0.37502,-1.92635 1.23,-6.20245 1.8999,-9.50245 0.66992,-3.3 1.5805,-8.76847 2.0235,-12.15213 0.54958,-4.19774 1.89425,-7.16275 4.2328,-9.33334 3.1468,-2.92082 13.79694,-17.56726 13.79694,-18.97405 0,-0.33321 2.17936,-3.81613 4.84302,-7.73983 5.58205,-8.22262 13.82365,-25.12797 13.82365,-28.35537 0,-1.2076 1.05,-2.59491 2.33333,-3.08291 3.3819,-1.286 6.71827,-5.94277 12.03004,-16.79101 2.5776,-5.26425 5.50032,-10.05117 6.49492,-10.63761 0.9946,-0.58644 1.80838,-1.6918 1.80838,-2.45636 0,-0.76456 1.2,-2.91567 2.66666,-4.78023 1.62396,-2.06453 2.66667,-5.40904 2.66667,-8.55341 0,-2.87366 1.45036,-7.96743 3.27068,-11.48686 12.38488,-23.94501 19.96668,-41.6219 20.81575,-48.53171 0.50968,-4.14782 1.87892,-9.45027 3.04276,-11.78322 1.16382,-2.33296 3.06969,-10.63929 4.23524,-18.45851 1.16556,-7.81923 3.28537,-19.34576 4.71072,-25.61451 1.42533,-6.26875 2.59152,-12.90649 2.59152,-14.75054 0,-1.97184 1.61925,-4.90417 3.93133,-7.11928 2.16224,-2.07155 4.11224,-5.033799 4.33333,-6.582779 0.36898,-2.58492 1.36828,-2.85114 12.16182,-3.23995 l 11.75981,-0.42362 7.00125,5.40143 c 8.69107,6.705109 14.964,16.188389 16.92827,25.591769 0.82575,3.95305 3.76235,11.9908 6.52577,17.86166 4.51144,9.5845 5.12371,12.19445 5.9971,25.56403 l 0.97269,14.88974 -7.3576,7.10264 c -15.14907,14.62407 -27.58711,32.61516 -27.58711,39.90357 0,1.30626 -0.562,2.72235 -1.2489,3.14687 -0.6869,0.42453 -2.09486,2.40993 -3.12882,4.41203 -1.03396,2.00209 -3.77194,7.03304 -6.08442,11.1799 -2.3125,4.14686 -4.20452,9.35331 -4.20452,11.5699 0,3.77024 -4.9372,9.55702 -8.15392,9.55702 -0.6202,0 -4.40712,2.09787 -8.41538,4.66191 -7.07085,4.52317 -14.09737,12.04156 -14.09737,15.08421 0,0.82194 -1.71905,3.46531 -3.82011,5.87415 -2.10105,2.40885 -4.28504,5.87973 -4.85329,7.71307 -1.83759,5.92861 -5.58983,11.96553 -9.20428,14.80866 -5.34568,4.20491 -13.20365,21.49915 -17.37055,38.23003 -1.3683,5.49402 -3.45086,8.859 -9.48972,15.33333 -11.7389,12.58545 -31.28068,31.62797 -32.45718,31.62797 -1.52499,0 -4.1382,6.28562 -4.1382,9.9537 0,7.0802 0.76274,7.48308 12.48316,6.59365 5.9676,-0.45287 14.68354,-1.96751 19.36877,-3.36588 13.56176,-4.04768 25.23264,-6.5148 30.81879,-6.5148 2.84454,0 5.50546,-0.53971 5.91314,-1.19936 1.78164,-2.88275 21.17775,-5.46833 45.46566,-6.06077 6.89856,-0.16827 12.31528,-1.05912 15.20485,-2.50063 2.46876,-1.23159 6.75741,-2.23924 9.53035,-2.23924 2.77292,0 6.72804,-0.64116 8.78916,-1.42479 2.0611,-0.78364 5.85017,-1.67252 8.42013,-1.97529 12.99313,-1.53076 16.86137,-2.38872 18.90516,-4.19308 2.41395,-2.13116 21.30388,-4.27756 38.36496,-4.35928 5.46195,-0.0261 14.86817,-0.76143 20.90275,-1.63393 8.28097,-1.19731 13.85715,-1.21964 22.73586,-0.0911 8.34584,1.06085 16.60653,1.10507 28.43059,0.15216 29.22113,-2.35495 36.4236,-2.05115 40.16908,1.69433 2.40573,2.40574 2.72618,3.89746 2.11317,9.83688 -0.39741,3.85062 -1.51871,8.27594 -2.49176,9.83403 -1.541,2.46753 -2.58439,2.72477 -8.08979,1.99447 -4.89944,-0.64995 -7.15028,-0.29099 -10.01065,1.59646 -3.07907,2.03176 -6.54899,2.44603 -20.95652,2.502 -17.1524,0.0667 -17.27156,0.0884 -18.03677,3.30156 -1.11875,4.69754 -3.3615,4.78282 -6.58876,0.25054 l -2.8333,-3.97902 -7.4328,3.28714 c -6.47225,2.86234 -10.98564,3.63982 -19.17523,3.30314 -1.1,-0.0452 -6.8,0.56216 -12.66667,1.34972 -5.86667,0.78758 -11.86667,1.43263 -13.33333,1.43347 -4.8229,0.003 -19.96672,2.90003 -21.60268,4.13299 -0.88148,0.66432 -2.7591,0.84084 -4.17248,0.39224 -1.41338,-0.44859 -5.19218,0.0153 -8.39731,1.03094 -3.20515,1.0156 -8.36887,2.62624 -11.47493,3.57918 -3.10607,0.95294 -6.64906,2.83945 -7.87332,4.19224 -2.40522,2.65773 -9.11436,3.33477 -10.5193,1.06153 -0.5894,-0.95367 -1.4696,-0.89552 -2.76904,0.18292 -1.24316,1.03172 -4.31741,1.29528 -8.84885,0.75859 -6.09525,-0.72188 -7.57012,-0.38842 -12.06808,2.72868 l -5.1242,3.55108 -6.90824,-2.20542 c -8.97817,-2.86621 -24.36543,-4.08625 -30.07219,-2.3844 -2.79377,0.83316 -7.25528,4.3889 -11.77853,9.38724 -4.00469,4.42534 -8.28092,7.99868 -9.50272,7.94079 -1.38573,-0.0656 -1.59445,-0.35827 -0.5548,-0.77777 2.91501,-1.17624 1.7912,-3.45776 -1.33333,-2.7069 -14.2682,3.42886 -22.47939,4.9233 -27.05091,4.9233 -2.96189,0 -7.73897,1.2 -10.61576,2.66666 -2.87679,1.46667 -6.90364,2.66667 -8.94859,2.66667 -2.04494,0 -3.71808,0.45353 -3.71808,1.00785 0,0.55432 -1.93649,1.86503 -4.30332,2.91268 -2.36681,1.04766 -6.28674,3.25083 -8.71094,4.89594 -2.4242,1.6451 -6.33771,3.37652 -8.69668,3.84757 -7.95154,1.58781 -28.25982,8.95344 -31.9867,11.60127 -2.03369,1.44487 -6.90156,6.92626 -10.81748,12.18086 -3.91592,5.2546 -8.70197,11.00841 -10.63569,12.78624 -1.93372,1.77784 -3.51585,4.19581 -3.51585,5.37328 0,1.17747 -2.12032,4.1408 -4.71184,6.58517 -2.59151,2.44438 -5.5016,6.32642 -6.46687,8.62674 -0.96526,2.30032 -3.87354,6.2824 -6.46286,8.84906 -2.72136,2.69758 -5.62479,7.50263 -6.88099,11.38778 -1.52929,4.7298 -3.33881,7.40966 -6.10753,9.0452 -2.16392,1.27825 -4.70739,3.74237 -5.65215,5.47582 -0.94477,1.73344 -4.88959,8.16311 -8.76625,14.28814 -3.87667,6.12501 -8.00651,14.41454 -9.1774,18.42117 -2.69402,9.21848 -12.16235,27.71586 -16.12608,31.50398 -6.90162,6.59589 -18.98136,22.66995 -18.98136,25.25782 0,1.53333 -1.83746,4.54827 -4.08323,6.69985 -2.24577,2.15159 -5.27732,6.61384 -6.73677,9.91612 -1.45947,3.30228 -4.59628,9.00415 -6.97072,12.67082 -2.37443,3.66666 -5.01716,7.86666 -5.87275,9.33333 -5.99531,10.27739 -9.68293,15.89836 -16.18252,24.66667 -4.07692,5.5 -7.76608,10.3 -8.19815,10.66666 -0.43205,0.36667 -2.76137,4.63723 -5.17625,9.49012 -2.41488,4.85291 -6.61303,11.15291 -9.32921,14.00003 -6.04198,6.3331 -9.96536,14.3928 -9.82186,20.1765 0.0749,3.0207 -0.50154,4.3333 -1.90317,4.3333 -1.18729,0 -1.71373,0.7739 -1.28555,1.8897 0.39882,1.0393 -0.13698,2.2205 -1.19068,2.6248 -1.05369,0.4044 -1.91581,1.954 -1.91581,3.4437 0,1.4897 -0.49759,2.7085 -1.10575,2.7085 -1.58109,0 -17.56092,33.4173 -17.56092,36.7237 0,0.5189 -3,7.209 -6.66666,14.867 -3.66667,7.658 -6.66698,14.6329 -6.66734,15.4998 -0.003,4.747 -14.1083,33.9484 -20.72826,42.9095 -2.45976,3.3297 -13.14628,23.7816 -19.15907,36.6667 -0.85552,1.8333 -3.5524,6.4757 -5.99307,10.3165 -2.83816,4.4662 -4.7653,9.5122 -5.34684,14 -0.50008,3.8592 -2.03748,9.4168 -3.41642,12.3501 -5.12614,10.9045 -3.82299,27.4339 2.29637,29.12765 5.64241,1.5618 13.47864,-1.1381 19.36588,-6.67225 5.01279,-4.7122 7.05157,-5.6888 13.578,-6.5042 8.24241,-1.0298 16.99027,-5.2099 21.9488,-10.488 1.68987,-1.7988 3.76068,-3.0065 4.6018,-2.6837 0.84112,0.3228 6.11821,-1.7599 11.72685,-4.6282 5.60866,-2.8683 11.92212,-5.5939 14.02994,-6.0568 2.10781,-0.463 4.41686,-2.1245 5.13121,-3.6924 0.71435,-1.5678 2.19881,-3.3375 3.29881,-3.9326 4.82751,-2.6118 22.46882,-10.2142 27.33334,-11.7791 17.29264,-5.563 24.65122,-8.7387 32.58976,-14.0649 4.88477,-3.2774 9.83945,-5.9588 11.01042,-5.9588 2.59634,0 16.39623,-7.1393 19.17915,-9.9222 1.10623,-1.1062 4.90652,-2.8711 8.44508,-3.9219 3.53857,-1.0509 8.41033,-2.9328 10.82616,-4.182 2.41581,-1.2493 6.8394,-2.9799 9.8302,-3.8458 3.61329,-1.0462 5.60025,-2.4502 5.92199,-4.1846 0.8066,-4.3481 2.95233,-5.9425 8.02716,-5.9643 2.66021,-0.012 8.43674,-0.8901 12.83674,-1.9525 4.4,-1.0625 11.6,-1.955 16,-1.9835 4.4,-0.028 13.4,-1.0082 20,-2.1773 14.30001,-2.5331 16.12016,-2.7451 33.33333,-3.8831 14.10064,-0.9321 22.72748,-2.5905 23.97479,-4.6087 0.41472,-0.671 3.37,-1.6123 6.56728,-2.0918 4.37237,-0.6556 6.17523,-1.6662 7.27367,-4.077 0.80324,-1.7629 2.58881,-3.2053 3.96796,-3.2053 1.37914,0 5.20233,-2.372 8.49597,-5.2712 5.84835,-5.1479 14.98364,-9.3372 20.44599,-9.3761 1.4991,-0.011 5.25965,2.3436 8.35676,5.2316 3.09709,2.888 6.97056,5.6688 8.60766,6.1797 4.02739,1.2567 4.93764,2.9637 4.92503,9.236 -0.012,6.1484 -5.85167,17.8683 -9.94844,19.9671 -1.46667,0.7515 -5.47477,3.3162 -8.90691,5.6996 -3.43212,2.3833 -6.95173,4.3333 -7.82136,4.3333 -2.72994,0 -13.76485,8.8596 -17.89165,14.3647 -5.49629,7.3319 -18.78119,15.5262 -44.04675,27.1684 -3.66666,1.6896 -8.28196,4.223 -10.2562,5.6298 -3.09813,2.2077 -4.1311,2.3335 -7.54569,0.9192 -4.12292,-1.7078 -8.44821,-0.4612 -11.53144,3.3235 -0.73333,0.9002 -4.63333,2.3884 -8.66667,3.3073 -4.03333,0.9188 -11.53333,2.8743 -16.66666,4.3456 -5.13333,1.4713 -11.54037,2.5632 -14.23787,2.4266 -3.89597,-0.1974 -5.79096,0.618 -9.21505,3.9651 -4.12137,4.0288 -4.67896,4.1841 -12.70671,3.5397 -8.07578,-0.6482 -8.60236,-0.4974 -13.79898,3.9507 -4.6143,3.9496 -6.53491,4.6827 -13.15987,5.0227 -9.19999,0.4722 -15.45851,3.38 -18.06355,8.3926 -1.04161,2.0043 -5.93796,7.2441 -10.88078,11.64415 -4.94282,4.4 -10.22372,9.367 -11.73536,11.0378 -1.51163,1.6708 -3.56331,2.7251 -4.5593,2.3429 -0.99597,-0.3822 -4.28569,0.5008 -7.31048,1.9622 -3.02477,1.4614 -6.2869,2.6571 -7.24916,2.6571 -0.96225,0 -1.74956,0.6023 -1.74956,1.3384 0,0.7361 -1.83774,1.1861 -4.08389,1 -3.70472,-0.307 -4.44743,0.3425 -7.99931,6.9949 -2.15348,4.0334 -4.27424,7.3334 -4.7128,7.3334 -0.43857,0 -3.15105,-2.3963 -6.02773,-5.3251 -5.08303,-5.1751 -5.33287,-5.2682 -8.86997,-3.3063 -2.0018,1.1103 -4.6757,4.0826 -5.94202,6.605 -1.2663,2.5223 -3.73034,5.3343 -5.47564,6.2488 -1.74529,0.9144 -4.12476,3.1148 -5.28772,4.8897 -1.16296,1.7749 -3.76261,3.6407 -5.77702,4.1463 -2.0144,0.5056 -5.49886,2.7316 -7.74323,4.9467 -3.61249,3.5653 -4.76236,3.9528 -10.02245,3.3773 -5.44763,-0.5961 -6.29319,-0.2666 -10.16694,3.9626 -4.67688,5.106 -12.51844,9.7883 -16.39249,9.7883 -1.38099,0 -4.69268,2.6626 -7.35931,5.9169 -2.66664,3.2543 -5.8889,6.2508 -7.16061,6.6589 -1.27171,0.4081 -3.4916,2.5076 -4.93309,4.6656 -1.4415,2.1579 -6.06196,6.5114 -10.26772,9.6744 -4.20576,3.163 -8.3424,7.0349 -9.19254,8.6041 -0.85014,1.5693 -2.82966,3.4957 -4.39894,4.2808 -3.04448,1.5232 -16.83087,2.6792 -21.91584,1.8376 z m 2497.6403,-57.8467 c -2.7796,-1.352 -7.2847,-2.4582 -10.0111,-2.4582 -4.0973,0 -5.6809,-0.8672 -9.1308,-5 -2.2954,-2.75 -5.3576,-6.2211 -6.8048,-7.7136 -5.6641,-5.8417 -1.5569,-26.5533 7.323,-36.9275 4.8313,-5.64425 5.7622,-8.77605 3.3316,-11.20675 -0.9527,-0.9526 0.8056,-1.3472 5.6666,-1.2717 5.4316,0.084 8.0046,-0.6076 11.22,-3.0173 3.0735,-2.3031 6.1707,-3.1986 11.7596,-3.3999 4.1731,-0.1504 7.9955,-0.8752 8.4944,-1.6107 2.131,-3.1418 9.4454,-4.6313 20.2312,-4.1198 10.4834,0.4972 11.649,0.2678 20.0872,-3.9537 6.0104,-3.0069 12.1726,-4.8852 18.7263,-5.7082 6.1783,-0.7757 10.3295,-1.9942 11.2956,-3.3154 2.0729,-2.8349 6.2889,-2.6255 11.5345,0.5728 8.4355,5.1431 15.4058,2.5644 23.8067,-8.8075 l 5.4953,-7.4387 -0.9025,-13.5411 c -0.8797,-13.2017 -7.0017,-40.3511 -10.7305,-47.5871 -0.9578,-1.8587 -2.1524,-5.7587 -2.6548,-8.6667 -1.0714,-6.2015 -5.4526,-21.4553 -7.263,-25.2873 -2.924,-6.1888 -6.8668,-22.5625 -6.1352,-25.4777 0.4358,-1.7362 0.1827,-4.3639 -0.5624,-5.8395 -0.745,-1.4755 -1.9546,-3.8746 -2.688,-5.3313 -0.7333,-1.4567 -1.3333,-4.3441 -1.3333,-6.4163 0,-2.0722 -1.2,-6.2513 -2.6667,-9.287 -1.4666,-3.0356 -2.6666,-6.4722 -2.6666,-7.6369 0,-1.1646 -1.2,-4.4697 -2.6667,-7.3446 -1.4667,-2.8749 -2.6667,-7.051 -2.6667,-9.2802 0,-2.2292 -0.5209,-4.0531 -1.1577,-4.0531 -0.6368,0 -1.4672,-2.25 -1.8455,-5 -0.3781,-2.75 -2.1698,-8.3 -3.9814,-12.3334 -1.8118,-4.0333 -3.6624,-8.38328 -4.1128,-9.66662 -1.3478,-3.8405 -6.1508,-2.84177 -8.0495,1.67379 -2.3153,5.50653 -14.8609,18.26923 -21.0744,21.43913 -2.8116,1.4343 -5.112,3.0593 -5.112,3.611 0,1.1438 -7.1832,5.007 -11.6667,6.2744 -1.65,0.4664 -3,1.3672 -3,2.0017 0,0.6345 -1.2785,1.5594 -2.8412,2.0554 -2.8949,0.9188 -7.1412,4.2769 -15.9469,12.6112 -2.7117,2.5667 -7.5439,6.5325 -10.7379,8.8129 -3.194,2.2804 -8.7972,8.5804 -12.4513,14 -7.8192,11.5966 -19.4277,23.2909 -25.7373,25.9272 -5.5522,2.3199 -8.3887,5.6627 -13.6327,16.0659 -2.3691,4.6999 -5.5723,8.9255 -7.5807,10 -1.9128,1.0234 -6.5365,4.7764 -10.2749,8.3399 -3.7384,3.5636 -8.7865,7.3382 -11.2181,8.3879 -4.06,1.7528 -4.795,1.6776 -9,-0.9213 -4.3416,-2.6832 -5.1714,-4.3707 -4.6687,-9.4943 0.12,-1.2184 -0.4212,-2.6099 -1.2016,-3.0922 -0.7804,-0.4823 -1.0503,-1.4732 -0.5999,-2.2021 0.4506,-0.7289 -0.1576,-2.4045 -1.3514,-3.7236 -1.1938,-1.3192 -2.717,-5.6313 -3.385,-9.5827 -0.6678,-3.9513 -1.6249,-9.1342 -2.1266,-11.5176 -0.6212,-2.95 -0.4118,-4.3333 0.656,-4.3333 0.8625,0 5.2876,-3.5474 9.8333,-7.8831 15.7763,-15.0474 43.9823,-40.823 52.6537,-48.1169 4.7952,-4.0333 15.4803,-14.1635 23.7448,-22.5115 12.3978,-12.5231 15.545,-15.04256 17.9912,-14.4028 2.3143,0.6052 5.04,-1.06732 12.4202,-7.62083 5.2002,-4.61788 13.9516,-10.7366 19.4474,-13.59717 5.6191,-2.92472 13.8598,-8.8482 18.8288,-13.53435 4.86,-4.58333 9.3635,-8.33721 10.0076,-8.34194 3.4346,-0.0252 13.7954,-11.27434 17.4707,-18.96836 l 4.0345,-8.44627 0.5535,-33.58275 c 0.5289,-32.09443 0.6839,-33.75918 3.4969,-37.56399 1.8158,-2.45596 3.4274,-7.39828 4.2066,-12.90018 1.0342,-7.30306 2.0393,-9.71978 5.5477,-13.33954 5.0291,-5.18878 11.4892,-8.52363 16.5116,-8.52363 1.9692,0 6.0785,1.76468 9.1317,3.92152 3.0532,2.15684 7.7828,4.32015 10.5102,4.80733 5.5662,0.99432 11.0588,5.80331 13.6146,11.9204 0.9391,2.24736 2.1294,10.07066 2.6452,17.3851 0.8395,11.9015 0.6392,13.97311 -1.9056,19.71427 -1.564,3.52842 -3.3236,11.17572 -3.9101,16.994 -0.5865,5.8183 -1.6747,11.3314 -2.418,12.25138 -1.574,1.94789 -1.9487,4.33932 -5.692,36.33933 -2.6293,22.47672 -2.8352,41.84908 -0.6659,62.66668 0.2294,2.2 1.0791,11.2 1.8886,20 0.8094,8.8 2.69,20.8 4.179,26.6666 1.489,5.8667 3.6043,15.6706 4.7007,21.7865 1.0964,6.1159 2.9335,12.9377 4.0825,15.1596 1.149,2.2219 2.8876,6.818 3.8635,10.2135 1.7996,6.2609 5.9415,18.2811 14.4305,41.8795 4.9854,13.8585 6.9438,21.6699 8.9323,35.6276 0.6792,4.7667 2.1799,13.1667 3.3349,18.6667 1.1551,5.5 2.0415,12.6008 1.9696,15.7797 -0.1994,8.8233 -4.773,19.5572 -10.2605,24.0804 -3.5188,2.9005 -5.2204,5.7395 -6.5789,10.97685 -1.0079,3.8854 -2.5832,7.7804 -3.5008,8.6556 -6.2151,5.9273 -16.4636,13.8408 -17.925,13.8408 -0.9621,0 -3.698,1.9995 -6.0797,4.4433 -2.3817,2.4439 -6.4304,5.8404 -8.9971,7.5479 -2.5666,1.7075 -6.356,4.658 -8.4208,6.5567 -3.5908,3.302 -4.4809,3.4612 -20.4624,3.6596 -16.3294,0.2028 -16.796,0.2916 -20.5792,3.9162 -2.129,2.0397 -3.8709,4.7963 -3.8709,6.1258 0,2.9133 -2.4233,3.1059 -6.1587,0.4896 -1.5136,-1.0602 -5.697,-2.6468 -9.2966,-3.5258 -3.5996,-0.879 -7.2656,-2.1609 -8.1468,-2.8487 -1.0164,-0.7934 -3.2687,-0.6479 -6.1616,0.3982 -3.4536,1.2489 -5.9646,1.2922 -10.3519,0.1785 -5.0252,-1.2755 -6.3491,-1.1262 -9.9957,1.1276 -2.3119,1.4288 -5.9327,2.6241 -8.046,2.6563 -2.1135,0.032 -6.0256,0.8384 -8.6935,1.7916 -4.2517,1.5191 -5.4749,1.4295 -9.9048,-0.7252 z M 672.06029,1036.8826 c -2.89954,-2.8996 -22.95239,-5.019 -30.5904,-3.2333 -4.15162,0.9707 -4.48111,0.7231 -9.62116,-7.2296 -2.92728,-4.5291 -6.90638,-9.8187 -8.84242,-11.7548 -7.38029,-7.3803 -9.52677,-14.1284 -10.24464,-32.20735 -0.6258,-15.7604 -1.0058,-17.6091 -6.98844,-34 -3.47965,-9.5333 -6.85136,-20.6333 -7.49268,-24.6666 -4.10121,-25.7933 -5.14249,-61.4066 -2.68993,-92 2.23032,-27.821 2.68583,-30.5888 6.2758,-38.1329 2.65368,-5.5766 3.23564,-8.8788 3.23564,-18.3598 0,-9.3543 0.65176,-13.1455 3.41541,-19.8671 1.87848,-4.5688 3.91468,-12.20688 4.5249,-16.97355 1.96118,-15.31985 5.57953,-31.01234 8.86233,-38.43534 1.75855,-3.97639 3.19736,-7.80299 3.19736,-8.50354 0,-0.70056 2.7,-6.97461 6,-13.94237 3.3,-6.96775 6,-13.06459 6,-13.54855 0,-2.07413 9.96776,-20.99962 11.57113,-21.96978 0.96922,-0.58644 1.7622,-2.18644 1.7622,-3.55556 0,-1.36911 0.45,-2.6893 1,-2.93375 0.55,-0.24444 2.69136,-3.83296 4.75859,-7.97447 2.20452,-4.4166 9.37133,-13.5977 17.33333,-22.20505 7.46611,-8.07126 16.47335,-18.8213 20.01607,-23.88898 5.56251,-7.95686 7.23489,-9.4262 12.25781,-10.76963 3.19906,-0.85561 7.09631,-2.91707 8.66056,-4.58099 2.59011,-2.75517 9.30698,-15.38413 9.30698,-17.49885 0,-2.21927 7.35016,-8.79804 10.63593,-9.51972 2.01077,-0.44164 5.35253,-2.57383 7.42613,-4.7382 2.0736,-2.16436 4.8638,-3.93521 6.20044,-3.93521 2.92205,0 7.03597,-4.48507 7.05624,-7.69287 0.008,-1.26892 0.68685,-2.18304 1.50852,-2.03137 2.09195,0.38613 12.50607,-8.75592 12.50607,-10.97847 0,-1.00553 2.21449,-3.50879 4.92109,-5.56277 2.7066,-2.05399 6.35068,-5.15587 8.09795,-6.89308 2.51341,-2.49894 4.11972,-3.00556 7.69164,-2.42592 6.27474,1.01825 22.72181,-3.43104 21.28382,-5.75775 -0.97821,-1.58277 5.49624,-5.32444 9.21323,-5.32444 1.81585,0 3.68773,0.62486 4.15973,1.38856 0.472,0.76372 3.95742,1.3003 7.74536,1.19242 11.42784,-0.32548 22.32567,2.04586 33.22263,7.22918 11.10801,5.28369 12.70552,7.08844 20.23204,22.85651 2.39161,5.0104 7.47773,11.76686 13.6102,18.07994 7.69697,7.92366 10.36532,11.74755 12.47361,17.8754 4.53644,13.18542 3.64298,20.75538 -3.6513,30.93592 -2.31659,3.23323 -3,6.01875 -3,12.22776 0,8.94586 1.25136,13.2752 4.88833,16.91216 2.06273,2.06274 2.445,4.64875 2.445,16.54024 0,16.35077 -0.85417,18.23313 -15.32089,33.76288 -9.48312,10.17996 -16.06426,13.23875 -20.2784,9.425 -2.22534,-2.01389 -2.6151,-1.98705 -5.33544,0.36737 -1.6141,1.397 -4.36744,4.18999 -6.11852,6.20666 -1.7511,2.01666 -3.92907,3.66666 -4.83996,3.66666 -0.9109,0 -2.49008,1.55818 -3.50931,3.4626 -2.84773,5.32104 -8.62484,9.52834 -14.43032,10.50916 -3.75068,0.63367 -7.30079,2.78856 -12.37961,7.51432 -16.41447,15.27339 -31.08563,23.84726 -40.80622,23.84726 -5.55376,0 -7.03413,0.60686 -10.5705,4.33333 -2.26176,2.38333 -5.14759,6.43333 -6.41298,9 -2.74625,5.57045 -20.36569,22.66668 -23.36037,22.66668 -1.15728,0 -2.67415,0.5259 -3.37081,1.1687 -0.69667,0.6427 -4.86667,2.4758 -9.26667,4.0735 -4.4,1.5977 -11.14077,4.9718 -14.97949,7.498 -3.83871,2.5262 -7.416,4.5931 -7.94952,4.5931 -1.68537,0 -12.40432,11.145 -12.40432,12.8974 0,2.3319 -3.55033,3.933 -11.17633,5.0403 -5.39568,0.7835 -7.40546,1.9296 -11.74438,6.6972 -3.49436,3.8396 -6.64957,5.9608 -9.49034,6.3803 -3.74571,0.5531 -5.02267,-0.1889 -10.6574,-6.1934 -3.52098,-3.752 -6.75615,-8.5226 -7.18926,-10.6014 -0.75001,-3.5998 -5.48776,-6.9427 -7.20106,-5.0811 -0.43566,0.4734 -2.15534,4.3107 -3.82152,8.5274 -1.66619,4.2166 -3.53811,7.6666 -4.15983,7.6666 -2.41595,0 -7.89473,10.1031 -7.94071,14.6429 -0.0261,2.5798 -1.04701,8.2905 -2.26864,12.6905 -2.38777,8.6001 -2.63598,18.3848 -1.61161,63.5283 0.49959,22.0161 0.94919,26.5893 2.81823,28.6667 1.22309,1.3594 4.98406,7.8716 8.35773,14.4716 3.37365,6.6 6.62107,12.6157 7.21647,13.3681 0.59538,0.7524 1.44933,3.202 1.89765,5.4436 0.44832,2.2416 2.68961,7.9998 4.98065,12.7961 4.08752,8.5571 4.28096,8.7363 10.32902,9.5653 5.31334,0.7282 6.63461,0.4066 9.57908,-2.3322 2.5892,-2.4083 5.44976,-3.3493 11.82314,-3.8892 6.77056,-0.5736 11.59734,-2.2932 24.79014,-8.832 9.01041,-4.4658 17.35922,-8.1197 18.55292,-8.1197 1.1937,0 5.44969,-1.5 9.45777,-3.3333 4.00806,-1.8333 8.84666,-3.3333 10.75242,-3.3333 1.90576,0 8.09422,-2.6078 13.75211,-5.795 5.65789,-3.1873 15.98708,-7.4392 22.95375,-9.4487 6.96666,-2.0096 16.26666,-5.3816 20.66666,-7.4934 4.4,-2.1119 10.7,-4.2169 14,-4.6779 3.3,-0.4609 8.1,-2.0511 10.66667,-3.5337 2.56667,-1.4826 10.90864,-4.4497 18.53771,-6.5936 8.06618,-2.2667 15.44197,-5.2198 17.62485,-7.0566 3.05011,-2.5665 4.76637,-3.0228 9.1552,-2.4341 4.41239,0.5918 8.14308,-0.4186 20.37515,-5.5183 8.23557,-3.4336 15.97142,-6.7866 17.19081,-7.4511 1.21937,-0.6646 9.31937,-1.5876 18,-2.0512 18.05103,-0.9641 26.69489,-3.2177 31.25811,-8.1495 2.873,-3.1051 5.32986,-4.9422 17.07088,-12.7649 17.6676,-11.7714 35.7675,-16.7771 45.683,-12.6341 8.1739,3.4153 14.4376,14.9571 14.4376,26.6034 0,6.1095 -4.3727,9.1928 -12.3248,8.6905 -5.1616,-0.3261 -5.7156,-0.057 -6.1214,2.9748 -0.2454,1.8334 -0.9954,3.9034 -1.6667,4.6 -0.6712,0.6967 -1.2296,3.0967 -1.2408,5.3334 -0.014,2.7102 -0.3937,3.4779 -1.1395,2.3017 -1.457,-2.298 -6.5427,0.7215 -17.117,10.1628 -4.2477,3.7926 -8.7731,7.8046 -10.0564,8.9156 -1.2834,1.1109 -3.4252,2.0199 -4.7596,2.0199 -1.3344,0 -3.7166,1.4841 -5.2938,3.298 -3.159,3.6331 -5.1571,4.2425 -16.94664,5.1685 -7.8747,0.6185 -17.00452,4.4593 -24.36775,10.2512 -1.77987,1.4 -5.4184,2.9549 -8.08564,3.4553 -2.66724,0.5004 -7.62273,2.6161 -11.0122,4.7017 -3.38947,2.0856 -7.17612,3.7919 -8.41476,3.7919 -4.44053,0 -9.89655,4.0393 -18.93476,14.0179 -5.05169,5.5773 -10.02916,11.5312 -11.06103,13.2309 -3.02298,4.9795 -8.16217,7.3511 -13.48398,6.2225 -2.55194,-0.5412 -5.53988,-0.5482 -6.63988,-0.015 -1.1,0.5327 -7.23482,3.4558 -13.63294,6.4958 -6.3981,3.04005 -11.9225,5.99585 -12.27645,6.56855 -0.76145,1.2321 -13.62097,-0.8707 -17.35521,-2.8379 -1.42886,-0.7527 -6.17264,-1.79 -10.54174,-2.30525 -7.68445,-0.9061 -8.36142,-0.7229 -20.7354,5.61015 -7.03538,3.6007 -14.5916,8.2602 -16.7916,10.3543 -2.2,2.0941 -5.8,4.2447 -8,4.779 -4.24666,1.0314 -23.54123,9.8705 -24.66666,11.3003 -1.41375,1.7959 -6.63209,3.9128 -9.64568,3.9128 -1.73488,0 -3.72432,0.5382 -4.42099,1.1961 -0.74773,0.7061 -7.16445,0.6875 -15.66252,-0.045 -9.56768,-0.8251 -16.05181,-0.7816 -19.33333,0.1297 -6.47835,1.7993 -10.04736,1.743 -11.97925,-0.1889 z M 660.82873,757.19075 c 2.717,-0.7355 7.94,-3.837 11.60666,-6.89236 3.66667,-3.05531 9.36667,-6.82175 12.66667,-8.36984 3.3,-1.54809 8.93628,-5.06237 12.52507,-7.80951 3.58878,-2.74712 6.91898,-4.99477 7.40042,-4.99477 0.48146,0 4.3118,-3.32845 8.5119,-7.39656 7.47878,-7.24379 17.06125,-12.60344 22.53353,-12.60344 1.73625,0 8.64492,-5.89749 18.74329,-16 8.7964,-8.8 16.86385,-16 17.92767,-16 1.06381,0 4.38758,-2.1 7.38616,-4.66667 2.99857,-2.56666 6.50854,-4.66666 7.79993,-4.66666 1.29139,0 2.7188,-0.6 3.17203,-1.33334 0.45322,-0.73333 1.8637,-1.33333 3.13441,-1.33333 1.27071,0 4.98529,-2.7696 8.25464,-6.15465 3.26936,-3.38506 10.14428,-8.87498 15.27761,-12.19982 5.13334,-3.32485 13.35704,-10.30525 18.27491,-15.51201 7.30224,-7.73123 9.10503,-10.52415 9.83309,-15.23376 0.57984,-3.75077 0.34442,-6.31454 -0.67341,-7.33333 -1.94556,-1.94741 -16.28048,-5.16304 -23.43459,-5.25688 -10.10069,-0.13253 -27.8136,2.88013 -28.95809,4.92521 -3.10755,5.55288 -8.19976,10.09857 -11.31272,10.09857 -2.12556,0 -6.20457,2.45816 -11.06252,6.66667 -7.22212,6.25663 -8.14583,6.66667 -15.01821,6.66667 -10.65846,0 -15.5248,2.66032 -26.00069,14.21398 -8.34834,9.20724 -9.87128,10.31935 -14.13143,10.31935 -3.97524,0 -4.98249,0.59603 -6.01564,3.55969 -0.68251,1.95784 -5.98956,8.28784 -11.79345,14.06667 -11.78866,11.73775 -13.21812,13.77193 -17.68999,25.17364 -2.15712,5.49988 -5.28077,10.08343 -9.99524,14.66667 -5.91392,5.74929 -7.19313,7.95098 -9.29621,16 -1.34126,5.13333 -2.91327,9.94662 -3.49336,10.69621 -1.58127,2.04328 -6.4449,20.3135 -5.62564,21.1328 0.39086,0.3909 1.56622,-0.1449 2.61193,-1.1906 1.04571,-1.0457 4.12427,-2.5031 6.84127,-3.2386 z m 465.27337,249.71715 c 0.9166,-0.3698 1.6666,-1.5225 1.6666,-2.5614 0,-1.0389 0.9,-1.8889 2,-1.8889 1.1,0 2,0.3839 2,0.8531 0,1.2189 -4.4154,4.4073 -6,4.3326 -0.7333,-0.034 -0.5833,-0.3655 0.3334,-0.7354 z m 871.043,-18.56025 c -2.5431,-1.103 -4.9431,-2.5074 -5.3333,-3.1209 -0.3904,-0.6135 -4.9098,-1.3514 -10.0431,-1.6399 -12.0324,-0.6761 -20.6731,-6.0739 -24.9345,-15.5767 -4.4431,-9.9077 -4.8808,-11.2511 -5.5026,-16.8859 -0.3236,-2.9333 -1.6234,-8.0333 -2.8886,-11.3333 -1.7675,-4.6102 -2.5086,-12.3313 -3.1994,-33.3334 -0.9278,-28.207 -0.5412,-32.5369 3.4386,-38.4969 1.2865,-1.9267 2.4094,-6.2247 2.4953,-9.5512 0.085,-3.3265 1.1091,-7.5265 2.2739,-9.3333 1.1649,-1.8069 3.7366,-7.3605 5.7152,-12.3413 2.8457,-7.164 3.4577,-10.5069 2.9292,-16 -0.4616,-4.7993 0.1333,-9.4147 1.9249,-14.9439 1.426,-4.4 3.0892,-12.5 3.696,-18 0.6067,-5.5 2.0665,-12.2308 3.2443,-14.9572 1.1776,-2.7264 2.141,-7.9356 2.141,-11.5759 0,-5.8198 0.4787,-6.9596 3.9666,-9.44309 2.534,-1.80436 4.5254,-4.8468 5.5142,-8.42413 7.5764,-27.41101 10.9958,-35.75436 17.2196,-42.01615 2.688,-2.70428 5.6011,-6.26688 6.4736,-7.91688 1.2662,-2.39417 2.7348,-3 7.273,-3 3.1274,0 6.4064,-0.72 7.2864,-1.6 2.2069,-2.20694 3.4308,-0.57317 6.9866,9.32718 1.6582,4.61661 3.9744,8.87085 5.1474,9.45385 2.5578,1.27139 21.8293,0.90253 27.466,-0.52568 2.2,-0.55743 4.9,-1.74765 6,-2.64496 1.1,-0.89729 5.8536,-3.85861 10.5636,-6.58071 4.71,-2.72208 13.11,-8.39993 18.6666,-12.61745 5.5567,-4.21752 13.6142,-9.72561 17.9056,-12.24021 4.2914,-2.51462 9.2626,-6.37202 11.0471,-8.57202 1.7845,-2.2 4.6547,-5.7805 6.3781,-7.95666 2.7228,-3.43808 3.419,-3.71979 5.3112,-2.14932 1.8382,1.52544 2.5379,1.5075 4.4862,-0.11507 5.4212,-4.51479 19.4774,-10.52452 26.036,-11.13164 3.8164,-0.35329 8.4389,-1.20347 10.2722,-1.88928 4.6016,-1.72139 28.9056,-6.59295 34.9791,-7.01131 4.3136,-0.29713 5.7948,0.45431 11.0809,5.62179 3.356,3.28063 7.2836,7.86512 8.7282,10.18776 1.9613,3.15367 3.9353,4.44415 7.7961,5.09643 7.3947,1.24933 9.1593,3.05104 11.3792,11.61845 1.0836,4.18249 3.5176,10.78249 5.4087,14.66667 2.6421,5.42642 3.7154,10.3963 4.6342,21.45736 0.6576,7.91738 0.8492,15.41738 0.4255,16.66666 -0.4236,1.2493 -4.0703,9.10784 -8.1039,17.46344 -6.0964,12.62909 -7.5349,17.01537 -8.527,25.99997 -1.1862,10.7437 -1.2366,10.8517 -8.4484,18.1414 -3.9903,4.0333 -10.6164,11.5333 -14.7247,16.6666 -4.1083,5.1334 -11.7425,13.7028 -16.9652,19.0433 -9.0804,9.2853 -9.5365,10.0563 -10.4296,17.6315 -0.8152,6.9136 -1.6033,8.5623 -6.1932,12.9568 -5.3351,5.1078 -11.0399,15.5635 -11.0399,20.2337 0,1.4086 -2.775,5.1651 -6.1668,8.3479 -7.2677,6.82 -12.4314,17.243 -11.5334,23.2805 0.4318,2.9036 -0.3647,5.7229 -2.6368,9.3333 -1.7907,2.8452 -3.6532,7.3094 -4.1391,9.9205 -0.4859,2.6111 -2.9424,8.0111 -5.4592,12 -2.5168,3.9889 -6.0515,9.9525 -7.8549,13.2525 -1.8035,3.3 -4.6886,7.2914 -6.4111,8.8699 -4.9767,4.5601 -17.3945,10.7148 -23.8028,11.7975 -3.2341,0.5464 -7.5056,2.1952 -9.4923,3.664 -3.0484,2.2538 -4.7742,2.5254 -11.0578,1.7404 -4.278,-0.5345 -7.4544,-1.5986 -7.4662,-2.5011 -0.013,-1.0736 -0.3697,-1.02 -1.124,0.1692 -0.6069,0.957 -5.2477,2.5845 -10.3129,3.6166 -10.1049,2.0592 -19.1337,4.6232 -21.2093,6.0231 -0.7334,0.4946 -4.9334,1.0203 -9.3334,1.1682 -8.3912,0.2821 -10.8078,1.3537 -18.125,8.0369 -3.8795,3.5434 -5.4416,4.0751 -11.8388,4.0298 -4.0532,-0.029 -9.4502,-0.9547 -11.9931,-2.0577 z m 34.6236,-100.5326 c 6.9667,-2.3383 14.2592,-5.1003 16.2057,-6.1378 4.0863,-2.178 10.6654,-2.482 12.5667,-0.5806 1.4401,1.4402 9.0404,-7.6643 19.4475,-23.2964 3.4208,-5.1385 8.042,-10.5281 10.269,-11.977 2.2272,-1.4489 4.7071,-3.8635 5.5111,-5.3657 0.804,-1.5021 3.0828,-3.8327 5.0641,-5.1789 3.5742,-2.4284 7.7999,-7.6394 15.7188,-19.3833 2.2639,-3.3574 6.9139,-8.9774 10.3334,-12.4889 3.4193,-3.5115 6.217,-6.7015 6.217,-7.089 0,-0.3874 1.65,-2.8692 3.6667,-5.515 6.2477,-8.1968 4.7299,-19.5276 -4.0504,-30.2366 -2.7592,-3.3653 -4.1912,-3.9268 -10.5867,-4.1509 -5.6793,-0.199 -8.4657,-1.0752 -12.0052,-3.7749 -5.6776,-4.3305 -6.7069,-4.34594 -13.7701,-0.2066 -5.1604,3.0242 -6.6532,3.2529 -17.3353,2.6563 -12.5964,-0.7035 -16.8868,0.6822 -18.5743,5.999 -1.4327,4.5137 -5.2759,3.0701 -12.3296,-4.6312 -3.6943,-4.0333 -7.5909,-7.33328 -8.6593,-7.33328 -3.6454,0 -9.2903,9.08008 -13.6771,21.99998 -1.2449,3.6667 -3.0356,8.4667 -3.9792,10.6667 -0.9436,2.2 -2.4767,7.3 -3.4069,11.3333 -0.9302,4.0333 -4.8803,13.9818 -8.7782,22.1078 -6.8234,14.2251 -11.3937,31.6454 -9.2234,35.1568 0.4509,0.7297 -0.036,2.6937 -1.0819,4.3644 -1.1421,1.8241 -2.1907,8.2943 -2.6247,16.1957 -0.69,12.559 -0.5782,13.3026 2.4524,16.3333 1.7464,1.7465 4.3672,3.1753 5.8239,3.1753 1.4568,0 3.0543,0.6564 3.55,1.4585 1.2953,2.0958 8.6661,0.7961 23.256,-4.101 z"
       id="path223" />
  </g>
</svg>
